<svg width="1981" height="1717" xmlns="http://www.w3.org/2000/svg" xmlns:xlink="http://www.w3.org/1999/xlink" overflow="hidden"><defs><clipPath id="clip0"><rect x="149" y="266" width="1981" height="1717"/></clipPath><clipPath id="clip1"><rect x="250" y="1036" width="1730" height="778"/></clipPath><clipPath id="clip2"><rect x="250" y="1036" width="1730" height="778"/></clipPath><clipPath id="clip3"><rect x="250" y="1036" width="1730" height="778"/></clipPath></defs><g clip-path="url(#clip0)" transform="translate(-149 -266)"><path d="M165 1124.5 587.249 280 1691.75 280 2114 1124.5 1691.75 1969 587.249 1969Z" stroke="#000000" stroke-width="27.5" stroke-miterlimit="8" fill="#FFFFFF" fill-rule="evenodd"/><text font-family="CMU Sans Serif,CMU Sans Serif_MSFontService,sans-serif" font-weight="700" font-size="202" transform="matrix(1 0 0 1 771.227 787)">R.MFIV</text><g clip-path="url(#clip1)"><g clip-path="url(#clip2)"><g clip-path="url(#clip3)"><path d="M25.1851-32.6725C27.6161-32.6725 32.2836-32.6725 35.687-30.6305 40.3544-27.6161 40.7434-22.3651 40.7434-21.7817 40.8406-20.4204 40.8406-19.1562 42.4937-19.1562 44.1468-19.1562 44.1468-20.5175 44.1468-22.2678L44.1468-48.6198C44.1468-50.1757 44.1468-51.7315 42.4937-51.7315 40.8406-51.7315 40.7434-50.2729 40.7434-49.4949 40.1599-36.951 30.2415-36.2704 25.1851-36.1731L25.1851-56.6907C25.1851-63.2057 27.0326-63.2057 29.3663-63.2057L34.0339-63.2057C47.1612-63.2057 53.6762-56.4962 54.2597-49.7867 54.3569-49.0087 54.4541-47.5502 56.01-47.5502 57.663-47.5502 57.663-49.106 57.663-50.7591L57.663-63.4002C57.663-66.4146 57.4686-66.6091 54.4541-66.6091L4.6675-66.6091C2.91719-66.6091 1.36135-66.6091 1.36135-64.8588 1.36135-63.2057 3.20891-63.2057 3.98682-63.2057 9.52951-63.2057 9.91846-62.4278 9.91846-57.663L9.91846-8.94608C9.91846-4.37578 9.62671-3.40339 4.47302-3.40339 3.01443-3.40339 1.36135-3.40339 1.36135-1.75031 1.36135 0 2.91719 0 4.6675 0L56.2045 0C58.0521 0 59.0245 0 59.3161-1.36135 59.4134-1.4586 62.1361-17.6976 62.1361-18.1838 62.1361-19.2534 61.261-19.9341 60.483-19.9341 59.1217-19.9341 58.7327-18.67 58.7327-18.5728 58.1493-16.0445 57.1769-11.9605 50.0784-7.77916 45.0219-4.76474 40.0627-3.40339 34.7146-3.40339L29.3663-3.40339C27.0326-3.40339 25.1851-3.40339 25.1851-9.91846L25.1851-32.6725ZM54.2597-63.2057 54.2597-58.5382C52.6066-60.3858 50.7591-61.9416 48.717-63.2057L54.2597-63.2057ZM35.298-34.7146C36.8538-35.3952 38.9931-36.8538 40.7434-38.8959L40.7434-30.7277C38.4096-33.3532 35.3952-34.6173 35.298-34.6173L35.298-34.7146ZM13.3218-57.8576C13.3218-59.0245 13.3218-61.4554 12.5439-63.2057L22.8513-63.2057C21.7817-60.9692 21.7817-57.7603 21.7817-56.8851L21.7817-9.72398C21.7817-6.22334 22.4623-4.27854 22.8513-3.40339L12.5439-3.40339C13.3218-5.1537 13.3218-7.58469 13.3218-8.7516L13.3218-57.8576ZM49.4949-3.40339 49.4949-3.50062C52.6066-5.05646 55.2321-7.09849 57.1769-8.8488 57.0796-8.45985 56.399-4.1813 56.3017-3.40339L49.4949-3.40339Z" transform="matrix(1.00124 0 0 1 251 1181.01)"/><path d="M19.6424 112.7 38.3124 112.7 38.3124 108.811 23.532 108.811 23.532 0 38.3124 0 38.3124-3.88959 19.6424-3.88959 19.6424 112.7Z" transform="matrix(1.00124 0 0 1 315.662 1102.24)"/><path d="M61.9416-58.2465C62.4278-59.4134 63.8864-62.8168 67.9705-63.2057 68.5539-63.2057 70.0125-63.4002 70.0125-64.8588 70.0125-66.6091 68.5539-66.6091 66.8036-66.6091L51.148-66.6091C49.3977-66.6091 47.9391-66.6091 47.9391-64.8588 47.9391-63.4002 49.3977-63.3029 49.9812-63.2057 51.4397-63.0113 53.4818-62.6223 53.4818-57.5658 53.4818-51.8287 50.3701-42.5909 48.717-37.9235 48.0363-35.9786 48.0363-35.7841 40.9379-17.9894 39.1875-21.5872 24.3099-53.8707 24.3099-60.1913 24.3099-60.872 26.5464-62.914 30.1443-63.2057 31.7001-63.3029 31.9918-64.3726 31.9918-64.8588 31.9918-66.6091 30.5332-66.6091 28.7829-66.6091L3.30615-66.6091C1.55584-66.6091 0.0972398-66.6091 0.0972398-64.8588 0.0972398-63.4974 1.36135-63.3029 2.13927-63.2057 5.34818-62.7195 7.39021-58.1493 7.58469-57.8576L33.7421-0.194479C34.4228 1.26411 34.909 1.84755 35.7841 1.84755 36.8538 1.84755 37.1455 1.36135 37.729-0.194479L61.9416-58.2465ZM60.9692-63.2057C59.8024-61.9416 59.3161-60.7747 58.6355-59.2189 58.2465-58.1493 57.1769-55.6211 56.6907-54.5514 56.7879-55.4266 56.8851-56.6907 56.8851-57.5658 56.8851-58.83 56.7879-61.4554 55.7183-63.2057L60.9692-63.2057ZM11.0853-58.441C10.2101-60.2885 8.45985-63.0113 8.26537-63.2057L22.0734-63.2057C21.5872-62.8168 20.8093-62.3306 20.8093-60.2885 20.8093-53.6762 33.256-26.4492 39.382-12.9329L35.7841-4.08406 11.0853-58.441Z" transform="matrix(1.00124 0 0 1 356.234 1181.01)"/><path d="M20.8093 112.7 20.8093-3.88959 2.13927-3.88959 2.13927 0 16.9197 0 16.9197 108.811 2.13927 108.811 2.13927 112.7 20.8093 112.7Z" transform="matrix(1.00124 0 0 1 426.287 1102.24)"/><path d="M65.6367-31.5056C66.9981-31.5056 68.7484-31.5056 68.7484-33.256 68.7484-35.1035 67.0953-35.1035 65.6367-35.1035L8.36257-35.1035C7.00125-35.1035 5.25094-35.1035 5.25094-33.3532 5.25094-31.5056 6.90401-31.5056 8.36257-31.5056L65.6367-31.5056ZM65.6367-13.419C66.9981-13.419 68.7484-13.419 68.7484-15.1694 68.7484-17.0169 67.0953-17.0169 65.6367-17.0169L8.36257-17.0169C7.00125-17.0169 5.25094-17.0169 5.25094-15.2666 5.25094-13.419 6.90401-13.419 8.36257-13.419L65.6367-13.419Z" transform="matrix(1.00124 0 0 1 494.402 1181.01)"/><path d="M42.7854-16.3363 40.6461-16.3363C40.3544-14.6832 39.5765-9.33503 38.6041-7.77916 37.9235-6.90401 32.3808-6.90401 29.4636-6.90401L11.4743-6.90401C14.0997-9.14056 20.0313-15.3639 22.5596-17.6976 37.34-31.3111 42.7854-36.3676 42.7854-45.9943 42.7854-57.1769 33.9366-64.6644 22.6568-64.6644 11.377-64.6644 4.76474-55.0376 4.76474-46.675 4.76474-41.7158 9.04328-41.7158 9.33503-41.7158 11.377-41.7158 13.9053-43.1743 13.9053-46.286 13.9053-49.0087 12.0577-50.8563 9.33503-50.8563 8.45985-50.8563 8.26537-50.8563 7.97365-50.7591 9.82118-57.3714 15.0721-61.8444 21.3927-61.8444 29.6581-61.8444 34.7146-54.9404 34.7146-45.9943 34.7146-37.729 29.9498-30.5332 24.4072-24.3099L4.76474-2.33375 4.76474 0 40.2572 0 42.7854-16.3363Z" transform="matrix(1.00124 0 0 1 615.777 1115.22)"/><path d="M1375.59 759.275 1444.61 759.275 1444.61 763.164 1375.59 763.164Z" transform="matrix(1.00124 0 0 1 -772.243 395.479)"/><path d="M40.5489-59.3161C41.1324-61.6499 41.3269-62.525 42.7854-62.914 43.5634-63.1085 46.7723-63.1085 48.8142-63.1085 58.5382-63.1085 63.1085-62.7195 63.1085-55.1348 63.1085-53.6762 62.7195-49.9812 62.1361-46.3833L62.0389-45.2164C62.0389-44.8274 62.4278-44.244 63.0113-44.244 63.9836-44.244 63.9836-44.7302 64.2754-46.286L67.0953-63.4974C67.2898-64.3726 67.2898-64.5671 67.2898-64.8588 67.2898-65.9284 66.7064-65.9284 64.7616-65.9284L11.5716-65.9284C9.33503-65.9284 9.23775-65.8312 8.65432-64.0809L2.72271-46.5778C2.62547-46.3833 2.33375-45.3137 2.33375-45.2164 2.33375-44.7302 2.72271-44.244 3.30615-44.244 4.08406-44.244 4.27854-44.633 4.6675-45.8971 8.7516-57.663 10.7936-63.1085 23.7264-63.1085L30.2415-63.1085C32.5753-63.1085 33.5476-63.1085 33.5476-62.0389 33.5476-61.7471 33.5476-61.5526 33.0615-59.8024L20.0313-7.58469C19.0589-3.79235 18.8645-2.81995 8.55704-2.81995 6.1261-2.81995 5.44541-2.81995 5.44541-0.972398 5.44541 0 6.51505 0 7.00125 0 9.43223 0 11.9605-0.194479 14.3914-0.194479L29.5608-0.194479C31.9918-0.194479 34.6173 0 37.0483 0 38.118 0 39.0903 0 39.0903-1.84755 39.0903-2.81995 38.4096-2.81995 35.8814-2.81995 27.1298-2.81995 27.1298-3.6951 27.1298-5.1537 27.1298-5.25094 27.1298-5.93161 27.5188-7.48745L40.5489-59.3161Z" transform="matrix(1.00124 0 0 1 605.051 1247.71)"/><path d="M24.3099 229.388 49.8839 229.388 49.8839 224.04 29.6581 224.04 29.6581 1.4586 49.8839 1.4586 49.8839-3.88959 24.3099-3.88959 24.3099 229.388Z" transform="matrix(1.00124 0 0 1 683.899 1043.9)"/><path d="M37.8262-39.771C34.8118-39.1875 33.256-37.0483 33.256-34.909 33.256-32.5753 35.1035-31.7973 36.4649-31.7973 39.1875-31.7973 41.424-34.1311 41.424-37.0483 41.424-40.1599 38.4096-42.8827 33.5476-42.8827 29.6581-42.8827 25.1851-41.1324 21.101-35.2007 20.4204-40.3544 16.5307-42.8827 12.6411-42.8827 8.8488-42.8827 6.90401-39.9654 5.73714-37.8262 4.08406-34.3255 2.62547-28.4912 2.62547-28.005 2.62547-27.6161 3.01443-27.1298 3.6951-27.1298 4.47302-27.1298 4.57026-27.2271 5.1537-29.4636 6.61229-35.298 8.45985-40.9379 12.3495-40.9379 14.6832-40.9379 15.3639-39.2848 15.3639-36.4649 15.3639-34.3255 14.3914-30.5332 13.7108-27.5188L10.988-17.0169C10.5991-15.1694 9.52951-10.7936 9.04328-9.04328 8.36257-6.51505 7.29297-1.94479 7.29297-1.4586 7.29297-0.0972398 8.36257 0.972398 9.82118 0.972398 10.8908 0.972398 12.7384 0.291719 13.3218-1.65307 13.6135-2.43099 17.2114-17.1142 17.7949-19.3507 18.281-21.4899 18.8645-23.532 19.3507-25.6712 19.7396-27.0326 20.1286-28.5884 20.4204-29.8526 20.712-30.7277 23.3375-35.4925 25.7685-37.6317 26.9354-38.7014 29.4636-40.9379 33.4504-40.9379 35.0062-40.9379 36.5621-40.6461 37.8262-39.771Z" transform="matrix(1.00124 0 0 1 735.287 1181.01)"/><path d="M40.5489-59.3161C41.1324-61.6499 41.3269-62.525 42.7854-62.914 43.5634-63.1085 46.7723-63.1085 48.8142-63.1085 58.5382-63.1085 63.1085-62.7195 63.1085-55.1348 63.1085-53.6762 62.7195-49.9812 62.1361-46.3833L62.0389-45.2164C62.0389-44.8274 62.4278-44.244 63.0113-44.244 63.9836-44.244 63.9836-44.7302 64.2754-46.286L67.0953-63.4974C67.2898-64.3726 67.2898-64.5671 67.2898-64.8588 67.2898-65.9284 66.7064-65.9284 64.7616-65.9284L11.5716-65.9284C9.33503-65.9284 9.23775-65.8312 8.65432-64.0809L2.72271-46.5778C2.62547-46.3833 2.33375-45.3137 2.33375-45.2164 2.33375-44.7302 2.72271-44.244 3.30615-44.244 4.08406-44.244 4.27854-44.633 4.6675-45.8971 8.7516-57.663 10.7936-63.1085 23.7264-63.1085L30.2415-63.1085C32.5753-63.1085 33.5476-63.1085 33.5476-62.0389 33.5476-61.7471 33.5476-61.5526 33.0615-59.8024L20.0313-7.58469C19.0589-3.79235 18.8645-2.81995 8.55704-2.81995 6.1261-2.81995 5.44541-2.81995 5.44541-0.972398 5.44541 0 6.51505 0 7.00125 0 9.43223 0 11.9605-0.194479 14.3914-0.194479L29.5608-0.194479C31.9918-0.194479 34.6173 0 37.0483 0 38.118 0 39.0903 0 39.0903-1.84755 39.0903-2.81995 38.4096-2.81995 35.8814-2.81995 27.1298-2.81995 27.1298-3.6951 27.1298-5.1537 27.1298-5.25094 27.1298-5.93161 27.5188-7.48745L40.5489-59.3161Z" transform="matrix(1.00124 0 0 1 780.737 1181.01)"/><path d="M64.0809-22.3651C65.7339-22.3651 67.4843-22.3651 67.4843-24.3099 67.4843-26.2546 65.7339-26.2547 64.0809-26.2547L11.4743-26.2547C9.82118-26.2547 8.07089-26.2547 8.07089-24.3099 8.07089-22.365 9.82118-22.3651 11.4743-22.3651L64.0809-22.3651Z" transform="matrix(1.00124 0 0 1 871.28 1181.01)"/><path d="M68.0677 228.416C68.0677 228.027 67.8733 227.833 67.6788 227.541 64.0809 223.943 57.5658 217.428 51.0508 206.926 35.3952 181.838 28.2967 150.235 28.2967 112.798 28.2967 86.6408 31.7973 52.8983 47.8419 23.9209 55.5238 10.1129 63.4974 2.13927 67.776-2.13927 68.0677-2.43099 68.0677-2.62547 68.0677-2.91719 68.0677-3.88959 67.387-3.88959 66.0257-3.88959 64.6644-3.88959 64.4699-3.88959 63.0113-2.43099 30.436 27.2271 20.2258 71.7628 20.2258 112.7 20.2258 150.916 28.9774 189.423 53.6762 218.498 55.6211 220.734 59.3161 224.721 63.3029 228.221 64.4699 229.388 64.6644 229.388 66.0257 229.388 67.387 229.388 68.0677 229.388 68.0677 228.416Z" transform="matrix(1.00124 0 0 1 968.354 1043.9)"/><path d="M61.7471-67.5815C61.7471-68.4567 61.0665-68.4567 60.872-68.4567 60.483-68.4567 60.3858-68.3594 59.2189-66.9009 58.6355-66.2202 54.6486-61.1637 54.5514-61.0665 51.3425-67.387 44.9247-68.4567 40.8406-68.4567 28.4912-68.4567 17.3086-57.1769 17.3086-46.1888 17.3086-38.8959 21.6844-34.6173 26.4492-32.9642 27.5188-32.5753 33.256-31.0194 36.1731-30.3387 41.1324-28.9774 42.3964-28.5884 44.4385-26.4492 44.8274-25.963 46.7723-23.7264 46.7723-19.1562 46.7723-10.1129 38.4096-0.777916 28.6856-0.777916 20.712-0.777916 11.8632-4.1813 11.8632-15.0721 11.8632-16.9197 12.2522-19.2534 12.5439-20.2258 12.5439-20.5175 12.6411-21.0038 12.6411-21.1983 12.6411-21.5872 12.4467-22.0734 11.6687-22.0734 10.7936-22.0734 10.6964-21.8789 10.3074-20.2258L5.34818-0.291719C5.34818-0.194479 4.95922 1.06964 4.95922 1.16687 4.95922 2.04204 5.73714 2.04204 5.93161 2.04204 6.32057 2.04204 6.41781 1.94479 7.58469 0.486198L12.0577-5.34818C14.3914-1.84755 19.4479 2.04204 28.4912 2.04204 41.0351 2.04204 52.5094-10.1129 52.5094-22.2678 52.5094-26.3519 51.537-29.9498 47.8419-33.5476 45.7998-35.5897 44.0495-36.0759 35.1035-38.4096 28.5884-40.1599 27.7133-40.4517 25.963-42.0075 24.3099-43.6606 23.0457-45.9943 23.0457-49.3005 23.0457-57.4686 31.3111-65.8312 40.5489-65.8312 50.0784-65.8312 54.5514-59.9968 54.5514-50.7591 54.5514-48.2308 54.0652-45.6053 54.0652-45.2164 54.0652-44.3413 54.8431-44.3413 55.1348-44.3413 56.01-44.3413 56.1072-44.633 56.4962-46.1888L61.7471-67.5815Z" transform="matrix(1.00124 0 0 1 1049.76 1115.22)"/><path d="M31.7001-20.6797C31.7001-27.6161 30.987-31.8298 28.8477-35.9786 25.9953-41.6834 20.7445-43.1095 17.179-43.1095 9.0109-43.1095 6.02885-37.0158 5.12129-35.2007 2.78754-30.4684 2.65789-24.0506 2.65789-20.6797 2.65789-16.4011 2.85236-9.85363 5.96403-4.6675 8.94608 0.129653 13.7432 1.36135 17.179 1.36135 20.2907 1.36135 25.8657 0.388959 29.107-6.02885 31.5056-10.6964 31.7001-16.4659 31.7001-20.6797ZM17.179-0.453785C14.9749-0.453785 10.5019-1.49101 9.14056-8.29774 8.42739-11.9929 8.42739-18.0866 8.42739-21.4576 8.42739-25.9305 8.42739-30.4684 9.14056-34.0339 10.5019-40.6461 15.5584-41.2944 17.179-41.2944 19.3831-41.2944 23.8561-40.1924 25.1526-34.2932 25.9305-30.7277 25.9305-25.8657 25.9305-21.4576 25.9305-17.6328 25.9305-11.7984 25.1526-8.16809 23.7913-1.36135 19.3182-0.453785 17.179-0.453785Z" transform="matrix(1.00124 0 0 1 1108.17 1129.81)"/><path d="M17.4059-22.5596C20.0313-22.5596 26.6437-22.7541 31.3111-24.5044 38.7014-27.3243 39.382-32.9642 39.382-34.7146 39.382-38.9931 35.687-42.8827 29.2692-42.8827 19.0589-42.8827 4.37578-33.6449 4.37578-16.3363 4.37578-6.1261 10.2101 0.972398 19.0589 0.972398 32.2836 0.972398 40.6461-9.33503 40.6461-10.5991 40.6461-11.1825 40.0627-11.6687 39.6738-11.6687 39.382-11.6687 39.2848-11.5716 38.4096-10.6964 32.1863-2.43099 22.9485-0.972398 19.2534-0.972398 13.7108-0.972398 10.7936-5.34818 10.7936-12.5439 10.7936-13.9053 10.7936-16.3363 12.2522-22.5596L17.4059-22.5596ZM12.7384-24.5044C16.9197-39.4793 26.1574-40.9379 29.2692-40.9379 33.5476-40.9379 36.4649-38.4096 36.4649-34.7146 36.4649-24.5044 20.9065-24.5044 16.8224-24.5044L12.7384-24.5044Z" transform="matrix(1.00124 0 0 1 1146.71 1115.22)"/><path d="M12.5115-8.94608C13.2246-11.7336 13.9376-14.5212 14.586-17.3735 14.6508-17.5031 15.1046-19.3831 15.1694-19.7072 15.3639-20.2907 16.9845-22.9485 18.67-24.5692 20.7445-26.4492 22.9485-26.7733 24.1154-26.7733 24.8285-26.7733 25.9953-26.7085 26.903-25.9305 24.1154-25.3471 23.7264-22.9485 23.7264-22.3651 23.7264-20.939 24.8285-19.9665 26.2547-19.9665 28.005-19.9665 29.9498-21.3927 29.9498-23.9858 29.9498-26.3195 27.9402-28.5884 24.2451-28.5884 19.8368-28.5884 16.8549-25.6712 15.4935-23.9209 14.1969-28.5884 9.78881-28.5884 9.14056-28.5884 6.80677-28.5884 5.18611-27.0975 4.14889-25.0878 2.65789-22.1706 1.94479-18.8645 1.94479-18.67 1.94479-18.0866 2.39858-17.8273 2.91719-17.8273 3.75993-17.8273 3.82476-18.0866 4.27854-19.772 5.05646-22.9485 6.22334-26.7733 8.94608-26.7733 10.6315-26.7733 11.0205-25.1526 11.0205-23.7264 11.0205-22.5596 10.6964-21.3279 10.1778-19.1886 10.0481-18.67 9.07573-14.8453 8.81643-13.9376L6.41781-4.21371C6.15851-3.24132 5.76955-1.62066 5.76955-1.36135 5.76955 0.129653 7.00125 0.648264 7.844 0.648264 10.1129 0.648264 10.5667-1.16687 11.0853-3.37097L12.5115-8.94608Z" transform="matrix(1.00124 0 0 1 1190.73 1079.94)"/><path d="M29.3015-39.22C29.885-41.5537 29.9498-41.6834 32.6077-41.6834L37.5344-41.6834C44.2765-41.6834 45.0544-39.5441 45.0544-36.3028 45.0544-34.6821 44.6654-31.8946 44.6006-31.5704 44.4709-30.8573 44.4061-30.2739 44.4061-30.1443 44.4061-29.3015 44.9895-29.107 45.3785-29.107 46.0916-29.107 46.3509-29.496 46.5453-30.7277L48.2956-42.915C48.2956-43.8227 47.5177-43.8227 46.3509-43.8227L8.16809-43.8227C6.54746-43.8227 6.41781-43.8227 5.96403-42.4613L2.00961-31.2463C1.87996-30.9222 1.68549-30.4036 1.68549-30.0146 1.68549-29.496 2.13927-29.107 2.65789-29.107 3.37097-29.107 3.50062-29.4312 3.88959-30.5332 7.58469-40.9054 9.46468-41.6834 19.3182-41.6834L21.8465-41.6834C23.7913-41.6834 23.8561-41.6185 23.8561-41.0999 23.8561-40.9054 23.5968-39.6089 23.532-39.3496L14.9749-5.31576C14.3914-2.85236 14.1969-2.13927 7.45504-2.13927 5.38059-2.13927 4.73232-2.13927 4.73232-0.907573 4.73232-0.842739 4.73232 0 5.83437 0 7.58469 0 12.0577-0.194479 13.808-0.194479L19.3182-0.194479C21.1334-0.194479 25.6712 0 27.4864 0 28.005 0 28.9774 0 28.9774-1.2317 28.9774-2.13927 28.2643-2.13927 26.514-2.13927 24.9581-2.13927 24.4395-2.13927 22.7541-2.26892 20.6797-2.4634 20.4204-2.72271 20.4204-3.56545 20.4204-3.82476 20.4852-4.08406 20.6797-4.73232L29.3015-39.22Z" transform="matrix(1.00124 0 0 1 1223.65 1079.94)"/><path d="M1819.74 759.275 2047.63 759.275 2047.63 763.164 1819.74 763.164Z" transform="matrix(1.00124 0 0 1 -772.243 395.479)"/><path d="M61.7471-67.5815C61.7471-68.4567 61.0665-68.4567 60.872-68.4567 60.483-68.4567 60.3858-68.3594 59.2189-66.9009 58.6355-66.2202 54.6486-61.1637 54.5514-61.0665 51.3425-67.387 44.9247-68.4567 40.8406-68.4567 28.4912-68.4567 17.3086-57.1769 17.3086-46.1888 17.3086-38.8959 21.6844-34.6173 26.4492-32.9642 27.5188-32.5753 33.256-31.0194 36.1731-30.3387 41.1324-28.9774 42.3964-28.5884 44.4385-26.4492 44.8274-25.963 46.7723-23.7264 46.7723-19.1562 46.7723-10.1129 38.4096-0.777916 28.6856-0.777916 20.712-0.777916 11.8632-4.1813 11.8632-15.0721 11.8632-16.9197 12.2522-19.2534 12.5439-20.2258 12.5439-20.5175 12.6411-21.0038 12.6411-21.1983 12.6411-21.5872 12.4467-22.0734 11.6687-22.0734 10.7936-22.0734 10.6964-21.8789 10.3074-20.2258L5.34818-0.291719C5.34818-0.194479 4.95922 1.06964 4.95922 1.16687 4.95922 2.04204 5.73714 2.04204 5.93161 2.04204 6.32057 2.04204 6.41781 1.94479 7.58469 0.486198L12.0577-5.34818C14.3914-1.84755 19.4479 2.04204 28.4912 2.04204 41.0351 2.04204 52.5094-10.1129 52.5094-22.2678 52.5094-26.3519 51.537-29.9498 47.8419-33.5476 45.7998-35.5897 44.0495-36.0759 35.1035-38.4096 28.5884-40.1599 27.7133-40.4517 25.963-42.0075 24.3099-43.6606 23.0457-45.9943 23.0457-49.3005 23.0457-57.4686 31.3111-65.8312 40.5489-65.8312 50.0784-65.8312 54.5514-59.9968 54.5514-50.7591 54.5514-48.2308 54.0652-45.6053 54.0652-45.2164 54.0652-44.3413 54.8431-44.3413 55.1348-44.3413 56.01-44.3413 56.1072-44.633 56.4962-46.1888L61.7471-67.5815Z" transform="matrix(1.00124 0 0 1 1115.26 1247.71)"/><path d="M32.0891-18.5403C32.9967-18.9941 33.3208-19.1238 33.3208-19.7072 33.3208-20.0961 32.9318-20.55 32.4132-20.55 32.2836-20.55 30.5332-20.2258 29.5608-20.0313L19.6424-18.0866 18.2162-30.0146C18.0866-31.0518 17.8921-31.7001 17.179-31.7001 16.4011-31.7001 16.3363-31.1815 16.2066-30.0146L14.7805-18.0866 2.85236-20.4204 1.94479-20.55C1.42618-20.55 1.03722-20.0961 1.03722-19.7072 1.03722-19.0589 1.55584-18.7996 2.2041-18.5403L13.2894-13.4839 8.16809-4.34337C7.71434-3.50062 6.8716-1.94479 6.8716-1.75031 6.8716-1.36135 7.1309-0.842739 7.77916-0.842739 7.90882-0.842739 8.1033-0.842739 8.49222-1.16687 9.0109-1.68549 10.2426-3.11166 10.7612-3.63028L17.179-10.5667 24.3099-2.91719C24.5692-2.59305 25.2823-1.81514 25.6064-1.55584 26.2547-0.907573 26.3195-0.842739 26.5789-0.842739 27.2271-0.842739 27.4864-1.36135 27.4864-1.75031 27.4864-2.2041 21.8465-12.1225 21.0686-13.419L32.0891-18.5403Z" transform="matrix(1.00124 0 0 1 1173.68 1262.29)"/><path d="M64.0809-22.3651C65.7339-22.3651 67.4843-22.3651 67.4843-24.3099 67.4843-26.2546 65.7339-26.2547 64.0809-26.2547L11.4743-26.2547C9.82118-26.2547 8.07089-26.2547 8.07089-24.3099 8.07089-22.365 9.82118-22.3651 11.4743-22.3651L64.0809-22.3651Z" transform="matrix(1.00124 0 0 1 1309.3 1181.01)"/><path d="M28.005-62.3306C28.005-64.5671 28.005-64.6644 26.0602-64.6644 23.7264-62.0389 18.8645-58.441 8.8488-58.441L8.8488-55.6211C11.0853-55.6211 15.9473-55.6211 21.2955-58.1493L21.2955-7.48745C21.2955-3.98682 21.0038-2.81995 12.4467-2.81995L9.43223-2.81995 9.43223 0C12.0577-0.194479 21.4899-0.194479 24.6988-0.194479 27.9077-0.194479 37.2428-0.194479 39.8682 0L39.8682-2.81995 36.8538-2.81995C28.2967-2.81995 28.005-3.98682 28.005-7.48745L28.005-62.3306Z" transform="matrix(1.00124 0 0 1 1406.38 1181.01)"/><path d="M51.2452 112.798C51.2452 74.5827 42.4937 36.0759 17.7949 7.00125 15.85 4.76474 12.155 0.777916 8.16809-2.72271 7.00125-3.88959 6.80677-3.88959 5.44541-3.88959 4.27854-3.88959 3.40339-3.88959 3.40339-2.91719 3.40339-2.52823 3.79235-2.13927 3.98682-1.94479 7.39021 1.55584 13.9053 8.07089 20.4204 18.5728 36.0759 43.6606 43.1743 75.2634 43.1743 112.7 43.1743 138.858 39.6738 172.6 23.6293 201.578 15.9473 215.386 7.87641 223.457 3.79235 227.541 3.59786 227.833 3.40339 228.124 3.40339 228.416 3.40339 229.388 4.27854 229.388 5.44541 229.388 6.80677 229.388 7.00125 229.388 8.45985 227.929 41.0351 198.272 51.2452 153.736 51.2452 112.798Z" transform="matrix(1.00124 0 0 1 1453.87 1043.9)"/><path d="M64.0809-22.3651C65.7339-22.3651 67.4843-22.3651 67.4843-24.3099 67.4843-26.2546 65.7339-26.2547 64.0809-26.2547L11.4743-26.2547C9.82118-26.2547 8.07089-26.2547 8.07089-24.3099 8.07089-22.365 9.82118-22.3651 11.4743-22.3651L64.0809-22.3651Z" transform="matrix(1.00124 0 0 1 1547.63 1181.01)"/><path d="M16.7252-67.4843 3.20891-66.4146 3.20891-63.5947C9.82118-63.5947 10.5991-62.914 10.5991-58.1493L10.5991-7.19573C10.5991-2.81995 9.52951-2.81995 3.20891-2.81995L3.20891 0C5.93161-0.194479 10.6964-0.194479 13.6135-0.194479 16.5307-0.194479 21.3927-0.194479 24.1154 0L24.1154-2.81995C17.8921-2.81995 16.7252-2.81995 16.7252-7.19573L16.7252-67.4843Z" transform="matrix(1.00124 0 0 1 1644.71 1181.01)"/><path d="M43.2716-23.6293C43.2716-32.6725 43.2716-35.3952 41.0351-38.5069 38.2151-42.2992 33.6449-42.8827 30.3387-42.8827 20.9065-42.8827 17.2114-34.8118 16.4335-32.867L16.3363-32.867 16.3363-42.8827 3.11166-41.813 3.11166-38.9931C9.72398-38.9931 10.5019-38.3124 10.5019-33.5476L10.5019-7.19573C10.5019-2.81995 9.43223-2.81995 3.11166-2.81995L3.11166 0C5.6399-0.194479 10.8908-0.194479 13.6135-0.194479 16.4335-0.194479 21.6844-0.194479 24.2127 0L24.2127-2.81995C17.9894-2.81995 16.8224-2.81995 16.8224-7.19573L16.8224-25.2823C16.8224-35.4925 23.532-40.9379 29.5608-40.9379 35.5897-40.9379 36.951-35.9786 36.951-30.0471L36.951-7.19573C36.951-2.81995 35.8814-2.81995 29.5608-2.81995L29.5608 0C32.0891-0.194479 37.34-0.194479 40.0627-0.194479 42.8827-0.194479 48.1336-0.194479 50.6618 0L50.6618-2.81995C45.7998-2.81995 43.3688-2.81995 43.2716-5.73714L43.2716-23.6293Z" transform="matrix(1.00124 0 0 1 1671.09 1181.01)"/><path d="M68.0677 228.416C68.0677 228.027 67.8733 227.833 67.6788 227.541 64.0809 223.943 57.5658 217.428 51.0508 206.926 35.3952 181.838 28.2967 150.235 28.2967 112.798 28.2967 86.6408 31.7973 52.8983 47.8419 23.9209 55.5238 10.1129 63.4974 2.13927 67.776-2.13927 68.0677-2.43099 68.0677-2.62547 68.0677-2.91719 68.0677-3.88959 67.387-3.88959 66.0257-3.88959 64.6644-3.88959 64.4699-3.88959 63.0113-2.43099 30.436 27.2271 20.2258 71.7628 20.2258 112.7 20.2258 150.916 28.9774 189.423 53.6762 218.498 55.6211 220.734 59.3161 224.721 63.3029 228.221 64.4699 229.388 64.6644 229.388 66.0257 229.388 67.387 229.388 68.0677 229.388 68.0677 228.416Z" transform="matrix(1.00124 0 0 1 1740.38 1043.9)"/><path d="M61.7471-67.5815C61.7471-68.4567 61.0665-68.4567 60.872-68.4567 60.483-68.4567 60.3858-68.3594 59.2189-66.9009 58.6355-66.2202 54.6486-61.1637 54.5514-61.0665 51.3425-67.387 44.9247-68.4567 40.8406-68.4567 28.4912-68.4567 17.3086-57.1769 17.3086-46.1888 17.3086-38.8959 21.6844-34.6173 26.4492-32.9642 27.5188-32.5753 33.256-31.0194 36.1731-30.3387 41.1324-28.9774 42.3964-28.5884 44.4385-26.4492 44.8274-25.963 46.7723-23.7264 46.7723-19.1562 46.7723-10.1129 38.4096-0.777916 28.6856-0.777916 20.712-0.777916 11.8632-4.1813 11.8632-15.0721 11.8632-16.9197 12.2522-19.2534 12.5439-20.2258 12.5439-20.5175 12.6411-21.0038 12.6411-21.1983 12.6411-21.5872 12.4467-22.0734 11.6687-22.0734 10.7936-22.0734 10.6964-21.8789 10.3074-20.2258L5.34818-0.291719C5.34818-0.194479 4.95922 1.06964 4.95922 1.16687 4.95922 2.04204 5.73714 2.04204 5.93161 2.04204 6.32057 2.04204 6.41781 1.94479 7.58469 0.486198L12.0577-5.34818C14.3914-1.84755 19.4479 2.04204 28.4912 2.04204 41.0351 2.04204 52.5094-10.1129 52.5094-22.2678 52.5094-26.3519 51.537-29.9498 47.8419-33.5476 45.7998-35.5897 44.0495-36.0759 35.1035-38.4096 28.5884-40.1599 27.7133-40.4517 25.963-42.0075 24.3099-43.6606 23.0457-45.9943 23.0457-49.3005 23.0457-57.4686 31.3111-65.8312 40.5489-65.8312 50.0784-65.8312 54.5514-59.9968 54.5514-50.7591 54.5514-48.2308 54.0652-45.6053 54.0652-45.2164 54.0652-44.3413 54.8431-44.3413 55.1348-44.3413 56.01-44.3413 56.1072-44.633 56.4962-46.1888L61.7471-67.5815Z" transform="matrix(1.00124 0 0 1 1821.78 1115.22)"/><path d="M32.0891-18.5403C32.9967-18.9941 33.3208-19.1238 33.3208-19.7072 33.3208-20.0961 32.9318-20.55 32.4132-20.55 32.2836-20.55 30.5332-20.2258 29.5608-20.0313L19.6424-18.0866 18.2162-30.0146C18.0866-31.0518 17.8921-31.7001 17.179-31.7001 16.4011-31.7001 16.3363-31.1815 16.2066-30.0146L14.7805-18.0866 2.85236-20.4204 1.94479-20.55C1.42618-20.55 1.03722-20.0961 1.03722-19.7072 1.03722-19.0589 1.55584-18.7996 2.2041-18.5403L13.2894-13.4839 8.16809-4.34337C7.71434-3.50062 6.8716-1.94479 6.8716-1.75031 6.8716-1.36135 7.1309-0.842739 7.77916-0.842739 7.90882-0.842739 8.1033-0.842739 8.49222-1.16687 9.0109-1.68549 10.2426-3.11166 10.7612-3.63028L17.179-10.5667 24.3099-2.91719C24.5692-2.59305 25.2823-1.81514 25.6064-1.55584 26.2547-0.907573 26.3195-0.842739 26.5789-0.842739 27.2271-0.842739 27.4864-1.36135 27.4864-1.75031 27.4864-2.2041 21.8465-12.1225 21.0686-13.419L32.0891-18.5403Z" transform="matrix(1.00124 0 0 1 1880.2 1129.81)"/><path d="M2590.81 759.275 2687.86 759.275 2687.86 763.164 2590.81 763.164Z" transform="matrix(1.00124 0 0 1 -772.243 395.479)"/><path d="M61.7471-67.5815C61.7471-68.4567 61.0665-68.4567 60.872-68.4567 60.483-68.4567 60.3858-68.3594 59.2189-66.9009 58.6355-66.2202 54.6486-61.1637 54.5514-61.0665 51.3425-67.387 44.9247-68.4567 40.8406-68.4567 28.4912-68.4567 17.3086-57.1769 17.3086-46.1888 17.3086-38.8959 21.6844-34.6173 26.4492-32.9642 27.5188-32.5753 33.256-31.0194 36.1731-30.3387 41.1324-28.9774 42.3964-28.5884 44.4385-26.4492 44.8274-25.963 46.7723-23.7264 46.7723-19.1562 46.7723-10.1129 38.4096-0.777916 28.6856-0.777916 20.712-0.777916 11.8632-4.1813 11.8632-15.0721 11.8632-16.9197 12.2522-19.2534 12.5439-20.2258 12.5439-20.5175 12.6411-21.0038 12.6411-21.1983 12.6411-21.5872 12.4467-22.0734 11.6687-22.0734 10.7936-22.0734 10.6964-21.8789 10.3074-20.2258L5.34818-0.291719C5.34818-0.194479 4.95922 1.06964 4.95922 1.16687 4.95922 2.04204 5.73714 2.04204 5.93161 2.04204 6.32057 2.04204 6.41781 1.94479 7.58469 0.486198L12.0577-5.34818C14.3914-1.84755 19.4479 2.04204 28.4912 2.04204 41.0351 2.04204 52.5094-10.1129 52.5094-22.2678 52.5094-26.3519 51.537-29.9498 47.8419-33.5476 45.7998-35.5897 44.0495-36.0759 35.1035-38.4096 28.5884-40.1599 27.7133-40.4517 25.963-42.0075 24.3099-43.6606 23.0457-45.9943 23.0457-49.3005 23.0457-57.4686 31.3111-65.8312 40.5489-65.8312 50.0784-65.8312 54.5514-59.9968 54.5514-50.7591 54.5514-48.2308 54.0652-45.6053 54.0652-45.2164 54.0652-44.3413 54.8431-44.3413 55.1348-44.3413 56.01-44.3413 56.1072-44.633 56.4962-46.1888L61.7471-67.5815Z" transform="matrix(1.00124 0 0 1 1821.78 1247.71)"/><path d="M31.7001-20.6797C31.7001-27.6161 30.987-31.8298 28.8477-35.9786 25.9953-41.6834 20.7445-43.1095 17.179-43.1095 9.0109-43.1095 6.02885-37.0158 5.12129-35.2007 2.78754-30.4684 2.65789-24.0506 2.65789-20.6797 2.65789-16.4011 2.85236-9.85363 5.96403-4.6675 8.94608 0.129653 13.7432 1.36135 17.179 1.36135 20.2907 1.36135 25.8657 0.388959 29.107-6.02885 31.5056-10.6964 31.7001-16.4659 31.7001-20.6797ZM17.179-0.453785C14.9749-0.453785 10.5019-1.49101 9.14056-8.29774 8.42739-11.9929 8.42739-18.0866 8.42739-21.4576 8.42739-25.9305 8.42739-30.4684 9.14056-34.0339 10.5019-40.6461 15.5584-41.2944 17.179-41.2944 19.3831-41.2944 23.8561-40.1924 25.1526-34.2932 25.9305-30.7277 25.9305-25.8657 25.9305-21.4576 25.9305-17.6328 25.9305-11.7984 25.1526-8.16809 23.7913-1.36135 19.3182-0.453785 17.179-0.453785Z" transform="matrix(1.00124 0 0 1 1880.2 1262.29)"/><path d="M51.2452 112.798C51.2452 74.5827 42.4937 36.0759 17.7949 7.00125 15.85 4.76474 12.155 0.777916 8.16809-2.72271 7.00125-3.88959 6.80677-3.88959 5.44541-3.88959 4.27854-3.88959 3.40339-3.88959 3.40339-2.91719 3.40339-2.52823 3.79235-2.13927 3.98682-1.94479 7.39021 1.55584 13.9053 8.07089 20.4204 18.5728 36.0759 43.6606 43.1743 75.2634 43.1743 112.7 43.1743 138.858 39.6738 172.6 23.6293 201.578 15.9473 215.386 7.87641 223.457 3.79235 227.541 3.59786 227.833 3.40339 228.124 3.40339 228.416 3.40339 229.388 4.27854 229.388 5.44541 229.388 6.80677 229.388 7.00125 229.388 8.45985 227.929 41.0351 198.272 51.2452 153.736 51.2452 112.798Z" transform="matrix(1.00124 0 0 1 1928.69 1043.9)"/><path d="M38.7986-22.4623 65.6367-22.4623C66.9981-22.4623 68.7484-22.4623 68.7484-24.2127 68.7484-26.0602 67.0953-26.0602 65.6367-26.0602L38.7986-26.0602 38.7986-52.8983C38.7986-54.2597 38.7986-56.01 37.0483-56.01 35.2007-56.01 35.2007-54.3569 35.2007-52.8983L35.2007-26.0602 8.36257-26.0602C7.00125-26.0602 5.25094-26.0602 5.25094-24.3099 5.25094-22.4623 6.90401-22.4623 8.36257-22.4623L35.2007-22.4623 35.2007 4.37578C35.2007 5.73714 35.2007 7.48745 36.951 7.48745 38.7986 7.48745 38.7986 5.83437 38.7986 4.37578L38.7986-22.4623Z" transform="matrix(1.00124 0 0 1 584.325 1456.79)"/><path d="M17.4059-22.5596C20.0313-22.5596 26.6437-22.7541 31.3111-24.5044 38.7014-27.3243 39.382-32.9642 39.382-34.7146 39.382-38.9931 35.687-42.8827 29.2692-42.8827 19.0589-42.8827 4.37578-33.6449 4.37578-16.3363 4.37578-6.1261 10.2101 0.972398 19.0589 0.972398 32.2836 0.972398 40.6461-9.33503 40.6461-10.5991 40.6461-11.1825 40.0627-11.6687 39.6738-11.6687 39.382-11.6687 39.2848-11.5716 38.4096-10.6964 32.1863-2.43099 22.9485-0.972398 19.2534-0.972398 13.7108-0.972398 10.7936-5.34818 10.7936-12.5439 10.7936-13.9053 10.7936-16.3363 12.2522-22.5596L17.4059-22.5596ZM12.7384-24.5044C16.9197-39.4793 26.1574-40.9379 29.2692-40.9379 33.5476-40.9379 36.4649-38.4096 36.4649-34.7146 36.4649-24.5044 20.9065-24.5044 16.8224-24.5044L12.7384-24.5044Z" transform="matrix(1.00124 0 0 1 679.828 1456.79)"/><path d="M12.5115-8.94608C13.2246-11.7336 13.9376-14.5212 14.586-17.3735 14.6508-17.5031 15.1046-19.3831 15.1694-19.7072 15.3639-20.2907 16.9845-22.9485 18.67-24.5692 20.7445-26.4492 22.9485-26.7733 24.1154-26.7733 24.8285-26.7733 25.9953-26.7085 26.903-25.9305 24.1154-25.3471 23.7264-22.9485 23.7264-22.3651 23.7264-20.939 24.8285-19.9665 26.2547-19.9665 28.005-19.9665 29.9498-21.3927 29.9498-23.9858 29.9498-26.3195 27.9402-28.5884 24.2451-28.5884 19.8368-28.5884 16.8549-25.6712 15.4935-23.9209 14.1969-28.5884 9.78881-28.5884 9.14056-28.5884 6.80677-28.5884 5.18611-27.0975 4.14889-25.0878 2.65789-22.1706 1.94479-18.8645 1.94479-18.67 1.94479-18.0866 2.39858-17.8273 2.91719-17.8273 3.75993-17.8273 3.82476-18.0866 4.27854-19.772 5.05646-22.9485 6.22334-26.7733 8.94608-26.7733 10.6315-26.7733 11.0205-25.1526 11.0205-23.7264 11.0205-22.5596 10.6964-21.3279 10.1778-19.1886 10.0481-18.67 9.07573-14.8453 8.81643-13.9376L6.41781-4.21371C6.15851-3.24132 5.76955-1.62066 5.76955-1.36135 5.76955 0.129653 7.00125 0.648264 7.844 0.648264 10.1129 0.648264 10.5667-1.16687 11.0853-3.37097L12.5115-8.94608Z" transform="matrix(1.00124 0 0 1 723.845 1416.65)"/><path d="M29.3015-39.22C29.885-41.5537 29.9498-41.6834 32.6077-41.6834L37.5344-41.6834C44.2765-41.6834 45.0544-39.5441 45.0544-36.3028 45.0544-34.6821 44.6654-31.8946 44.6006-31.5704 44.4709-30.8573 44.4061-30.2739 44.4061-30.1443 44.4061-29.3015 44.9895-29.107 45.3785-29.107 46.0916-29.107 46.3509-29.496 46.5453-30.7277L48.2956-42.915C48.2956-43.8227 47.5177-43.8227 46.3509-43.8227L8.16809-43.8227C6.54746-43.8227 6.41781-43.8227 5.96403-42.4613L2.00961-31.2463C1.87996-30.9222 1.68549-30.4036 1.68549-30.0146 1.68549-29.496 2.13927-29.107 2.65789-29.107 3.37097-29.107 3.50062-29.4312 3.88959-30.5332 7.58469-40.9054 9.46468-41.6834 19.3182-41.6834L21.8465-41.6834C23.7913-41.6834 23.8561-41.6185 23.8561-41.0999 23.8561-40.9054 23.5968-39.6089 23.532-39.3496L14.9749-5.31576C14.3914-2.85236 14.1969-2.13927 7.45504-2.13927 5.38059-2.13927 4.73232-2.13927 4.73232-0.907573 4.73232-0.842739 4.73232 0 5.83437 0 7.58469 0 12.0577-0.194479 13.808-0.194479L19.3182-0.194479C21.1334-0.194479 25.6712 0 27.4864 0 28.005 0 28.9774 0 28.9774-1.2317 28.9774-2.13927 28.2643-2.13927 26.514-2.13927 24.9581-2.13927 24.4395-2.13927 22.7541-2.26892 20.6797-2.4634 20.4204-2.72271 20.4204-3.56545 20.4204-3.82476 20.4852-4.08406 20.6797-4.73232L29.3015-39.22Z" transform="matrix(1.00124 0 0 1 756.77 1416.65)"/><path d="M10.1129 211.691C13.2246 211.496 14.8777 209.357 14.8777 206.926 14.8777 203.717 12.4467 202.161 10.2101 202.161 7.87641 202.161 5.44541 203.62 5.44541 207.023 5.44541 211.983 10.3074 216.066 16.239 216.066 31.0194 216.066 36.5621 193.312 43.4661 165.113 50.9536 134.385 57.2741 103.365 62.525 72.1517 66.1229 51.4397 69.7208 31.9918 73.0269 19.4479 74.1938 14.6832 77.5 2.13927 81.2923 2.13927 84.3065 2.13927 86.7376 3.98682 87.1264 4.37578 83.9177 4.57026 82.2649 6.70953 82.2649 9.14056 82.2649 12.3495 84.6961 13.9053 86.932 13.9053 89.2656 13.9053 91.6967 12.4467 91.6967 9.04328 91.6967 3.79235 86.4456 0 81.0978 0 73.7076 0 68.2622 10.5991 62.914 30.436 62.6223 31.5056 49.3977 80.3199 38.7014 143.914 36.1731 158.792 33.3532 175.031 30.1443 188.548 28.394 195.646 23.9209 213.927 16.0445 213.927 12.5439 213.927 10.2101 211.691 10.1129 211.691Z" transform="matrix(1.00124 0 0 1 826.896 1324.44)"/><path d="M43.4985-43.8875C43.5634-44.1468 43.693-44.5358 43.693-44.8599 43.693-45.3137 43.304-45.6378 42.8502-45.6378 42.3964-45.6378 42.2668-45.5081 41.5537-44.7302 40.8406-43.8875 39.1552-41.813 38.4421-41.0351 35.9138-44.7302 31.8298-45.6378 28.5236-45.6378 19.5127-45.6378 11.7984-38.0531 11.7984-30.6629 11.7984-26.903 13.808-24.6988 14.1321-24.2451 16.2714-21.9762 18.1514-21.4576 22.8189-20.3555 25.0878-19.772 25.2174-19.772 27.0975-19.3182 28.9775-18.8645 33.1263-17.8273 33.1263-12.4467 33.1263-6.80677 27.5512-0.777916 20.7445-0.777916 16.5307-0.777916 8.81643-2.07445 8.81643-10.1129 8.81643-10.3074 8.81643-11.6687 9.20538-13.2246L9.27021-13.8728C9.27021-14.6508 8.55704-14.7156 8.29774-14.7156 7.45504-14.7156 7.39021-14.4562 7.06607-12.9653L4.4082-2.39858C4.14889-1.42618 3.6951 0.324132 3.6951 0.518611 3.6951 1.03722 4.08406 1.36135 4.53785 1.36135 4.99164 1.36135 5.05646 1.29653 5.76955 0.453785L8.88125-3.17649C10.3722-1.2317 14.0673 1.36135 20.6148 1.36135 30.0146 1.36135 37.729-7.1309 37.729-14.9101 37.729-17.8921 36.7565-20.2258 35.0062-22.041 33.0615-24.1802 30.9222-24.6988 27.8754-25.4767 25.9953-25.9305 23.4671-26.514 21.9762-26.903 20.0313-27.3568 16.4011-28.6533 16.4011-33.1911 16.4011-38.2476 21.8465-43.693 28.4588-43.693 34.2932-43.693 38.3124-40.6461 38.3124-33.6449 38.3124-32.0891 38.0531-30.7277 38.0531-30.4684 38.0531-29.6905 38.6366-29.5608 39.0903-29.5608 39.8682-29.5608 39.9331-29.8201 40.1924-30.8573L43.4985-43.8875Z" transform="matrix(1.00124 0 0 1 924.255 1350.1)"/><path d="M14.9749-7.24435C15.0721-7.34159 15.3639-7.68192 15.5097-7.68192 15.7042-7.68192 18.5728-4.52164 19.0104-4.03544 19.9828-2.96581 20.9551-1.89617 21.9762-0.87516 22.2193-0.680677 22.3651-0.486198 22.6568-0.486198 23.0457-0.486198 23.3861-0.826537 23.3861-1.2155 23.3861-1.50721 21.4899-4.86198 20.8579-6.02885 19.5452-8.26537 19.5452-8.36257 18.67-10.0157L26.8382-13.8566C27.5188-14.1969 27.7619-14.4401 27.7619-14.7805 27.7619-15.0235 27.6161-15.5097 26.984-15.5097 26.595-15.5097 21.6844-14.5373 20.9065-14.3429L17.4545-13.7108 16.3363-22.6568C16.239-23.3375 16.1418-23.9209 15.5097-23.9209 14.829-23.9209 14.7318-23.143 14.6832-22.6568L13.565-13.7108 4.03544-15.5097C3.40339-15.5097 3.25752-15.0235 3.25752-14.7805 3.25752-14.4401 3.54925-14.1484 4.08406-13.9053L12.3495-10.0157C11.4743-8.36257 11.4743-8.26537 10.2101-6.02885 9.33503-4.52164 7.63331-1.50721 7.63331-1.2155 7.63331-0.826537 7.97365-0.486198 8.36257-0.486198 8.55704-0.486198 8.7516-0.534818 9.23775-1.06964L14.9749-7.24435Z" transform="matrix(1.00124 0 0 1 966.041 1358.2)"/><path d="M31.7001-20.6797C31.7001-27.6161 30.987-31.8298 28.8477-35.9786 25.9953-41.6834 20.7445-43.1095 17.179-43.1095 9.0109-43.1095 6.02885-37.0158 5.12129-35.2007 2.78754-30.4684 2.65789-24.0506 2.65789-20.6797 2.65789-16.4011 2.85236-9.85363 5.96403-4.6675 8.94608 0.129653 13.7432 1.36135 17.179 1.36135 20.2907 1.36135 25.8657 0.388959 29.107-6.02885 31.5056-10.6964 31.7001-16.4659 31.7001-20.6797ZM17.179-0.453785C14.9749-0.453785 10.5019-1.49101 9.14056-8.29774 8.42739-11.9929 8.42739-18.0866 8.42739-21.4576 8.42739-25.9305 8.42739-30.4684 9.14056-34.0339 10.5019-40.6461 15.5584-41.2944 17.179-41.2944 19.3831-41.2944 23.8561-40.1924 25.1526-34.2932 25.9305-30.7277 25.9305-25.8657 25.9305-21.4576 25.9305-17.6328 25.9305-11.7984 25.1526-8.16809 23.7913-1.36135 19.3182-0.453785 17.179-0.453785Z" transform="matrix(1.00124 0 0 1 880.987 1544.58)"/><path d="M28.005-62.3306C28.005-64.5671 28.005-64.6644 26.0602-64.6644 23.7264-62.0389 18.8645-58.441 8.8488-58.441L8.8488-55.6211C11.0853-55.6211 15.9473-55.6211 21.2955-58.1493L21.2955-7.48745C21.2955-3.98682 21.0038-2.81995 12.4467-2.81995L9.43223-2.81995 9.43223 0C12.0577-0.194479 21.4899-0.194479 24.6988-0.194479 27.9077-0.194479 37.2428-0.194479 39.8682 0L39.8682-2.81995 36.8538-2.81995C28.2967-2.81995 28.005-3.98682 28.005-7.48745L28.005-62.3306Z" transform="matrix(1.00124 0 0 1 1070.86 1391.01)"/><path d="M1801.38 1035.06 1927.85 1035.06 1927.85 1038.95 1801.38 1038.95Z" transform="matrix(1.00124 0 0 1 -772.243 395.479)"/><path d="M48.6198-39.2848C48.5226-39.5765 48.1336-40.3544 48.1336-40.6461 48.1336-40.7434 48.2308-40.8406 49.8839-42.1048L59.3161-49.4949C72.3463-59.6079 76.6248-63.0113 83.3345-63.5947 84.0153-63.692 84.9873-63.692 84.9873-65.345 84.9873-65.9284 84.6961-66.4146 83.9177-66.4146 82.8481-66.4146 81.6809-66.2202 80.6116-66.2202L76.9165-66.2202C73.9021-66.2202 70.6932-66.4146 67.776-66.4146 67.0953-66.4146 65.9284-66.4146 65.9284-64.6644 65.9284-63.692 66.6091-63.5947 67.1925-63.5947 68.2622-63.4974 69.5263-63.1085 69.5263-61.7471 69.5263-59.8024 66.6091-57.4686 65.8312-56.8851L27.7133-27.2271 35.7841-59.3161C36.6593-62.6223 36.8538-63.5947 43.7578-63.5947 45.6053-63.5947 46.4805-63.5947 46.4805-65.4423 46.4805-66.4146 45.5081-66.4146 45.0219-66.4146 43.2716-66.4146 41.2296-66.2202 39.382-66.2202L27.9077-66.2202C26.1574-66.2202 24.0182-66.4146 22.2678-66.4146 21.4899-66.4146 20.4204-66.4146 20.4204-64.5671 20.4204-63.5947 21.2955-63.5947 22.7541-63.5947 28.6856-63.5947 28.6856-62.8168 28.6856-61.7471 28.6856-61.5526 28.6856-60.9692 28.2967-59.5106L15.1694-7.19573C14.2942-3.79235 14.0997-2.81995 7.29297-2.81995 5.44541-2.81995 4.47302-2.81995 4.47302-1.06964 4.47302 0 5.34818 0 5.93161 0 7.77916 0 9.72398-0.194479 11.5716-0.194479L22.9485-0.194479C24.7961-0.194479 26.8382 0 28.6856 0 29.4636 0 30.5332 0 30.5332-1.84755 30.5332-2.81995 29.6581-2.81995 28.1995-2.81995 22.2678-2.81995 22.2678-3.59786 22.2678-4.57026 22.2678-5.25094 22.8513-7.68192 23.2403-9.23775L27.0326-24.3099 41.813-35.8814C44.633-29.6581 49.7867-17.2114 53.7735-7.68192 54.0652-7.09849 54.2597-6.51505 54.2597-5.83437 54.2597-2.91719 50.3701-2.81995 49.4949-2.81995 48.6198-2.81995 47.6474-2.81995 47.6474-0.972398 47.6474 0 48.717 0 49.0087 0 52.4122 0 56.01-0.194479 59.4134-0.194479L64.0809-0.194479C65.5395-0.194479 67.1925 0 68.6512 0 69.2346 0 70.3042 0 70.3042-1.84755 70.3042-2.81995 69.4291-2.81995 68.4567-2.81995 64.8588-2.91719 63.5947-3.6951 62.1361-7.19573L48.6198-39.2848Z" transform="matrix(1.00124 0 0 1 1031.37 1523.49)"/><path d="M18.281-13.2246C19.3182-14.1969 22.041-16.3363 23.0782-17.2438 27.0975-20.939 30.9222-24.5044 30.9222-30.4036 30.9222-38.118 24.4395-43.1095 16.3363-43.1095 8.55704-43.1095 3.4358-37.2103 3.4358-31.4408 3.4358-28.2643 5.96403-27.8105 6.8716-27.8105 8.23292-27.8105 10.2426-28.7829 10.2426-31.2463 10.2426-34.6173 7.00125-34.6173 6.22334-34.6173 8.1033-39.3496 12.4467-40.9703 15.6232-40.9703 21.652-40.9703 24.7637-35.849 24.7637-30.4036 24.7637-23.6616 20.0313-18.7348 12.3818-10.8908L4.21371-2.4634C3.4358-1.75031 3.4358-1.62066 3.4358 0L29.0422 0 30.9222-11.6039 28.9126-11.6039C28.7181-10.3074 28.1995-7.06607 27.4216-5.83437 27.0326-5.31576 22.1058-5.31576 21.0686-5.31576L9.52951-5.31576 18.281-13.2246Z" transform="matrix(1.00124 0 0 1 1119.17 1495.41)"/><path d="M28.7829-30.9222 45.1192-30.9222C58.5382-30.9222 71.9573-40.8406 71.9573-51.9259 71.9573-59.5106 65.5395-66.4146 53.2873-66.4146L23.2403-66.4146C21.3927-66.4146 20.5175-66.4146 20.5175-64.5671 20.5175-63.5947 21.3927-63.5947 22.8513-63.5947 28.7829-63.5947 28.7829-62.8168 28.7829-61.7471 28.7829-61.5526 28.7829-60.9692 28.394-59.5106L15.2666-7.19573C14.3914-3.79235 14.1969-2.81995 7.39021-2.81995 5.54266-2.81995 4.57026-2.81995 4.57026-1.06964 4.57026 0 5.44541 0 6.02885 0 7.87641 0 9.82118-0.194479 11.6687-0.194479L23.0457-0.194479C24.8933-0.194479 26.9354 0 28.7829 0 29.5608 0 30.6305 0 30.6305-1.84755 30.6305-2.81995 29.7553-2.81995 28.2967-2.81995 22.4623-2.81995 22.3651-3.50062 22.3651-4.47302 22.3651-4.95922 22.4623-5.6399 22.5596-6.1261L28.7829-30.9222ZM35.7841-59.8024C36.6593-63.4002 37.0483-63.5947 40.8406-63.5947L50.4673-63.5947C57.7603-63.5947 63.7892-61.261 63.7892-53.968 63.7892-51.4397 62.525-43.1743 58.0521-38.7014 56.399-36.951 51.7315-33.256 42.8827-33.256L29.1719-33.256 35.7841-59.8024Z" transform="matrix(1.00124 0 0 1 1167.75 1456.79)"/><path d="M31.7001-20.6797C31.7001-27.6161 30.987-31.8298 28.8477-35.9786 25.9953-41.6834 20.7445-43.1095 17.179-43.1095 9.0109-43.1095 6.02885-37.0158 5.12129-35.2007 2.78754-30.4684 2.65789-24.0506 2.65789-20.6797 2.65789-16.4011 2.85236-9.85363 5.96403-4.6675 8.94608 0.129653 13.7432 1.36135 17.179 1.36135 20.2907 1.36135 25.8657 0.388959 29.107-6.02885 31.5056-10.6964 31.7001-16.4659 31.7001-20.6797ZM17.179-0.453785C14.9749-0.453785 10.5019-1.49101 9.14056-8.29774 8.42739-11.9929 8.42739-18.0866 8.42739-21.4576 8.42739-25.9305 8.42739-30.4684 9.14056-34.0339 10.5019-40.6461 15.5584-41.2944 17.179-41.2944 19.3831-41.2944 23.8561-40.1924 25.1526-34.2932 25.9305-30.7277 25.9305-25.8657 25.9305-21.4576 25.9305-17.6328 25.9305-11.7984 25.1526-8.16809 23.7913-1.36135 19.3182-0.453785 17.179-0.453785Z" transform="matrix(1.00124 0 0 1 1228.96 1471.38)"/><path d="M31.6029 23.6293C31.6029 23.3375 31.6029 23.143 29.9498 21.4899 20.2258 11.6687 14.7805-4.37578 14.7805-24.2127 14.7805-43.0771 19.3507-59.3161 30.6305-70.7904 31.6029-71.6656 31.6029-71.8601 31.6029-72.1517 31.6029-72.7352 31.1166-72.9297 30.7277-72.9297 29.4636-72.9297 21.4899-65.9284 16.7252-56.399 11.766-46.5778 9.52951-36.1731 9.52951-24.2127 9.52951-15.5584 10.8908-3.98682 15.9473 6.41781 21.6844 18.0866 29.6581 24.4072 30.7277 24.4072 31.1166 24.4072 31.6029 24.2127 31.6029 23.6293Z" transform="matrix(1.00124 0 0 1 1267.5 1456.79)"/><path d="M48.6198-39.2848C48.5226-39.5765 48.1336-40.3544 48.1336-40.6461 48.1336-40.7434 48.2308-40.8406 49.8839-42.1048L59.3161-49.4949C72.3463-59.6079 76.6248-63.0113 83.3345-63.5947 84.0153-63.692 84.9873-63.692 84.9873-65.345 84.9873-65.9284 84.6961-66.4146 83.9177-66.4146 82.8481-66.4146 81.6809-66.2202 80.6116-66.2202L76.9165-66.2202C73.9021-66.2202 70.6932-66.4146 67.776-66.4146 67.0953-66.4146 65.9284-66.4146 65.9284-64.6644 65.9284-63.692 66.6091-63.5947 67.1925-63.5947 68.2622-63.4974 69.5263-63.1085 69.5263-61.7471 69.5263-59.8024 66.6091-57.4686 65.8312-56.8851L27.7133-27.2271 35.7841-59.3161C36.6593-62.6223 36.8538-63.5947 43.7578-63.5947 45.6053-63.5947 46.4805-63.5947 46.4805-65.4423 46.4805-66.4146 45.5081-66.4146 45.0219-66.4146 43.2716-66.4146 41.2296-66.2202 39.382-66.2202L27.9077-66.2202C26.1574-66.2202 24.0182-66.4146 22.2678-66.4146 21.4899-66.4146 20.4204-66.4146 20.4204-64.5671 20.4204-63.5947 21.2955-63.5947 22.7541-63.5947 28.6856-63.5947 28.6856-62.8168 28.6856-61.7471 28.6856-61.5526 28.6856-60.9692 28.2967-59.5106L15.1694-7.19573C14.2942-3.79235 14.0997-2.81995 7.29297-2.81995 5.44541-2.81995 4.47302-2.81995 4.47302-1.06964 4.47302 0 5.34818 0 5.93161 0 7.77916 0 9.72398-0.194479 11.5716-0.194479L22.9485-0.194479C24.7961-0.194479 26.8382 0 28.6856 0 29.4636 0 30.5332 0 30.5332-1.84755 30.5332-2.81995 29.6581-2.81995 28.1995-2.81995 22.2678-2.81995 22.2678-3.59786 22.2678-4.57026 22.2678-5.25094 22.8513-7.68192 23.2403-9.23775L27.0326-24.3099 41.813-35.8814C44.633-29.6581 49.7867-17.2114 53.7735-7.68192 54.0652-7.09849 54.2597-6.51505 54.2597-5.83437 54.2597-2.91719 50.3701-2.81995 49.4949-2.81995 48.6198-2.81995 47.6474-2.81995 47.6474-0.972398 47.6474 0 48.717 0 49.0087 0 52.4122 0 56.01-0.194479 59.4134-0.194479L64.0809-0.194479C65.5395-0.194479 67.1925 0 68.6512 0 69.2346 0 70.3042 0 70.3042-1.84755 70.3042-2.81995 69.4291-2.81995 68.4567-2.81995 64.8588-2.91719 63.5947-3.6951 62.1361-7.19573L48.6198-39.2848Z" transform="matrix(1.00124 0 0 1 1304.44 1456.79)"/><path d="M27.4216-24.2127C27.4216-31.6029 26.4492-43.6606 21.0038-54.9404 15.2666-66.6091 7.29297-72.9297 6.22334-72.9297 5.83437-72.9297 5.34818-72.7352 5.34818-72.1517 5.34818-71.8601 5.34818-71.6656 7.00125-70.0125 16.7252-60.1913 22.1706-44.1468 22.1706-24.3099 22.1706-5.44541 17.6004 10.7936 6.32057 22.2678 5.34818 23.143 5.34818 23.3375 5.34818 23.6293 5.34818 24.2127 5.83437 24.4072 6.22334 24.4072 7.48745 24.4072 15.4611 17.4059 20.2258 7.87641 25.1851-2.04204 27.4216-12.5439 27.4216-24.2127Z" transform="matrix(1.00124 0 0 1 1392.23 1456.79)"/><path d="M48.9115-65.0533C49.0087-65.4423 49.2033-66.0257 49.2033-66.5118 49.2033-67.4843 48.2308-67.4843 48.0363-67.4843 47.9391-67.4843 43.1743-67.0953 42.6882-66.9981 41.0351-66.9009 39.5765-66.7064 37.8262-66.6091 35.3952-66.4146 34.7146-66.3174 34.7146-64.5671 34.7146-63.5947 35.4925-63.5947 36.8538-63.5947 41.6185-63.5947 41.7158-62.7195 41.7158-61.7471 41.7158-61.1637 41.5213-60.3858 41.424-60.094L35.4925-36.4649C34.4228-38.9931 31.7973-42.8827 26.7409-42.8827 15.7528-42.8827 3.88959-28.6856 3.88959-14.2942 3.88959-4.6675 9.52951 0.972398 16.1418 0.972398 21.4899 0.972398 26.0602-3.20891 28.7829-6.41781 29.7553-0.680677 34.3255 0.972398 37.2428 0.972398 40.16 0.972398 42.4937-0.777916 44.244-4.27854 45.7998-7.58469 47.1612-13.5163 47.1612-13.9053 47.1612-14.3914 46.7723-14.7805 46.1888-14.7805 45.3137-14.7805 45.2164-14.2942 44.8274-12.8356 43.3688-7.09849 41.5213-0.972398 37.5344-0.972398 34.7146-0.972398 34.52-3.50062 34.52-5.44541 34.52-5.83437 34.52-7.87641 35.2007-10.5991L48.9115-65.0533ZM29.2692-11.5716C28.7829-9.91846 28.7829-9.72398 27.4216-7.87641 25.2823-5.1537 21.0038-0.972398 16.4335-0.972398 12.4467-0.972398 10.2101-4.57026 10.2101-10.3074 10.2101-15.6556 13.2246-26.5464 15.0721-30.6305 18.3783-37.4372 22.9485-40.9379 26.7409-40.9379 33.1587-40.9379 34.4228-32.9642 34.4228-32.1863 34.4228-32.0891 34.1311-30.825 34.0339-30.6305L29.2692-11.5716Z" transform="matrix(1.00124 0 0 1 1429.16 1456.79)"/><path d="M48.6198-39.2848C48.5226-39.5765 48.1336-40.3544 48.1336-40.6461 48.1336-40.7434 48.2308-40.8406 49.8839-42.1048L59.3161-49.4949C72.3463-59.6079 76.6248-63.0113 83.3345-63.5947 84.0153-63.692 84.9873-63.692 84.9873-65.345 84.9873-65.9284 84.6961-66.4146 83.9177-66.4146 82.8481-66.4146 81.6809-66.2202 80.6116-66.2202L76.9165-66.2202C73.9021-66.2202 70.6932-66.4146 67.776-66.4146 67.0953-66.4146 65.9284-66.4146 65.9284-64.6644 65.9284-63.692 66.6091-63.5947 67.1925-63.5947 68.2622-63.4974 69.5263-63.1085 69.5263-61.7471 69.5263-59.8024 66.6091-57.4686 65.8312-56.8851L27.7133-27.2271 35.7841-59.3161C36.6593-62.6223 36.8538-63.5947 43.7578-63.5947 45.6053-63.5947 46.4805-63.5947 46.4805-65.4423 46.4805-66.4146 45.5081-66.4146 45.0219-66.4146 43.2716-66.4146 41.2296-66.2202 39.382-66.2202L27.9077-66.2202C26.1574-66.2202 24.0182-66.4146 22.2678-66.4146 21.4899-66.4146 20.4204-66.4146 20.4204-64.5671 20.4204-63.5947 21.2955-63.5947 22.7541-63.5947 28.6856-63.5947 28.6856-62.8168 28.6856-61.7471 28.6856-61.5526 28.6856-60.9692 28.2967-59.5106L15.1694-7.19573C14.2942-3.79235 14.0997-2.81995 7.29297-2.81995 5.44541-2.81995 4.47302-2.81995 4.47302-1.06964 4.47302 0 5.34818 0 5.93161 0 7.77916 0 9.72398-0.194479 11.5716-0.194479L22.9485-0.194479C24.7961-0.194479 26.8382 0 28.6856 0 29.4636 0 30.5332 0 30.5332-1.84755 30.5332-2.81995 29.6581-2.81995 28.1995-2.81995 22.2678-2.81995 22.2678-3.59786 22.2678-4.57026 22.2678-5.25094 22.8513-7.68192 23.2403-9.23775L27.0326-24.3099 41.813-35.8814C44.633-29.6581 49.7867-17.2114 53.7735-7.68192 54.0652-7.09849 54.2597-6.51505 54.2597-5.83437 54.2597-2.91719 50.3701-2.81995 49.4949-2.81995 48.6198-2.81995 47.6474-2.81995 47.6474-0.972398 47.6474 0 48.717 0 49.0087 0 52.4122 0 56.01-0.194479 59.4134-0.194479L64.0809-0.194479C65.5395-0.194479 67.1925 0 68.6512 0 69.2346 0 70.3042 0 70.3042-1.84755 70.3042-2.81995 69.4291-2.81995 68.4567-2.81995 64.8588-2.91719 63.5947-3.6951 62.1361-7.19573L48.6198-39.2848Z" transform="matrix(1.00124 0 0 1 1478.51 1456.79)"/><path d="M38.7986-22.4623 65.6367-22.4623C66.9981-22.4623 68.7484-22.4623 68.7484-24.2127 68.7484-26.0602 67.0953-26.0602 65.6367-26.0602L38.7986-26.0602 38.7986-52.8983C38.7986-54.2597 38.7986-56.01 37.0483-56.01 35.2007-56.01 35.2007-54.3569 35.2007-52.8983L35.2007-26.0602 8.36257-26.0602C7.00125-26.0602 5.25094-26.0602 5.25094-24.3099 5.25094-22.4623 6.90401-22.4623 8.36257-22.4623L35.2007-22.4623 35.2007 4.37578C35.2007 5.73714 35.2007 7.48745 36.951 7.48745 38.7986 7.48745 38.7986 5.83437 38.7986 4.37578L38.7986-22.4623Z" transform="matrix(1.00124 0 0 1 584.325 1717.99)"/><path d="M17.4059-22.5596C20.0313-22.5596 26.6437-22.7541 31.3111-24.5044 38.7014-27.3243 39.382-32.9642 39.382-34.7146 39.382-38.9931 35.687-42.8827 29.2692-42.8827 19.0589-42.8827 4.37578-33.6449 4.37578-16.3363 4.37578-6.1261 10.2101 0.972398 19.0589 0.972398 32.2836 0.972398 40.6461-9.33503 40.6461-10.5991 40.6461-11.1825 40.0627-11.6687 39.6738-11.6687 39.382-11.6687 39.2848-11.5716 38.4096-10.6964 32.1863-2.43099 22.9485-0.972398 19.2534-0.972398 13.7108-0.972398 10.7936-5.34818 10.7936-12.5439 10.7936-13.9053 10.7936-16.3363 12.2522-22.5596L17.4059-22.5596ZM12.7384-24.5044C16.9197-39.4793 26.1574-40.9379 29.2692-40.9379 33.5476-40.9379 36.4649-38.4096 36.4649-34.7146 36.4649-24.5044 20.9065-24.5044 16.8224-24.5044L12.7384-24.5044Z" transform="matrix(1.00124 0 0 1 679.828 1717.99)"/><path d="M12.5115-8.94608C13.2246-11.7336 13.9376-14.5212 14.586-17.3735 14.6508-17.5031 15.1046-19.3831 15.1694-19.7072 15.3639-20.2907 16.9845-22.9485 18.67-24.5692 20.7445-26.4492 22.9485-26.7733 24.1154-26.7733 24.8285-26.7733 25.9953-26.7085 26.903-25.9305 24.1154-25.3471 23.7264-22.9485 23.7264-22.3651 23.7264-20.939 24.8285-19.9665 26.2547-19.9665 28.005-19.9665 29.9498-21.3927 29.9498-23.9858 29.9498-26.3195 27.9402-28.5884 24.2451-28.5884 19.8368-28.5884 16.8549-25.6712 15.4935-23.9209 14.1969-28.5884 9.78881-28.5884 9.14056-28.5884 6.80677-28.5884 5.18611-27.0975 4.14889-25.0878 2.65789-22.1706 1.94479-18.8645 1.94479-18.67 1.94479-18.0866 2.39858-17.8273 2.91719-17.8273 3.75993-17.8273 3.82476-18.0866 4.27854-19.772 5.05646-22.9485 6.22334-26.7733 8.94608-26.7733 10.6315-26.7733 11.0205-25.1526 11.0205-23.7264 11.0205-22.5596 10.6964-21.3279 10.1778-19.1886 10.0481-18.67 9.07573-14.8453 8.81643-13.9376L6.41781-4.21371C6.15851-3.24132 5.76955-1.62066 5.76955-1.36135 5.76955 0.129653 7.00125 0.648264 7.844 0.648264 10.1129 0.648264 10.5667-1.16687 11.0853-3.37097L12.5115-8.94608Z" transform="matrix(1.00124 0 0 1 723.845 1677.84)"/><path d="M29.3015-39.22C29.885-41.5537 29.9498-41.6834 32.6077-41.6834L37.5344-41.6834C44.2765-41.6834 45.0544-39.5441 45.0544-36.3028 45.0544-34.6821 44.6654-31.8946 44.6006-31.5704 44.4709-30.8573 44.4061-30.2739 44.4061-30.1443 44.4061-29.3015 44.9895-29.107 45.3785-29.107 46.0916-29.107 46.3509-29.496 46.5453-30.7277L48.2956-42.915C48.2956-43.8227 47.5177-43.8227 46.3509-43.8227L8.16809-43.8227C6.54746-43.8227 6.41781-43.8227 5.96403-42.4613L2.00961-31.2463C1.87996-30.9222 1.68549-30.4036 1.68549-30.0146 1.68549-29.496 2.13927-29.107 2.65789-29.107 3.37097-29.107 3.50062-29.4312 3.88959-30.5332 7.58469-40.9054 9.46468-41.6834 19.3182-41.6834L21.8465-41.6834C23.7913-41.6834 23.8561-41.6185 23.8561-41.0999 23.8561-40.9054 23.5968-39.6089 23.532-39.3496L14.9749-5.31576C14.3914-2.85236 14.1969-2.13927 7.45504-2.13927 5.38059-2.13927 4.73232-2.13927 4.73232-0.907573 4.73232-0.842739 4.73232 0 5.83437 0 7.58469 0 12.0577-0.194479 13.808-0.194479L19.3182-0.194479C21.1334-0.194479 25.6712 0 27.4864 0 28.005 0 28.9774 0 28.9774-1.2317 28.9774-2.13927 28.2643-2.13927 26.514-2.13927 24.9581-2.13927 24.4395-2.13927 22.7541-2.26892 20.6797-2.4634 20.4204-2.72271 20.4204-3.56545 20.4204-3.82476 20.4852-4.08406 20.6797-4.73232L29.3015-39.22Z" transform="matrix(1.00124 0 0 1 756.77 1677.84)"/><path d="M10.1129 211.691C13.2246 211.496 14.8777 209.357 14.8777 206.926 14.8777 203.717 12.4467 202.161 10.2101 202.161 7.87641 202.161 5.44541 203.62 5.44541 207.023 5.44541 211.983 10.3074 216.066 16.239 216.066 31.0194 216.066 36.5621 193.312 43.4661 165.113 50.9536 134.385 57.2741 103.365 62.525 72.1517 66.1229 51.4397 69.7208 31.9918 73.0269 19.4479 74.1938 14.6832 77.5 2.13927 81.2923 2.13927 84.3065 2.13927 86.7376 3.98682 87.1264 4.37578 83.9177 4.57026 82.2649 6.70953 82.2649 9.14056 82.2649 12.3495 84.6961 13.9053 86.932 13.9053 89.2656 13.9053 91.6967 12.4467 91.6967 9.04328 91.6967 3.79235 86.4456 0 81.0978 0 73.7076 0 68.2622 10.5991 62.914 30.436 62.6223 31.5056 49.3977 80.3199 38.7014 143.914 36.1731 158.792 33.3532 175.031 30.1443 188.548 28.394 195.646 23.9209 213.927 16.0445 213.927 12.5439 213.927 10.2101 211.691 10.1129 211.691Z" transform="matrix(1.00124 0 0 1 826.896 1585.63)"/><path d="M35.0062-17.7624C31.1815-22.3651 30.6629-22.8837 28.394-24.5692 25.4119-26.8382 21.4576-28.5884 17.179-28.5884 9.27021-28.5884 3.82476-21.652 3.82476-13.9376 3.82476-6.35299 9.20538 0.648264 16.9197 0.648264 22.2355 0.648264 28.4588-2.13927 33.8394-10.1778 37.6642-5.57507 38.1828-5.05646 40.4517-3.37097 43.4337-1.10205 47.3881 0.648264 51.6666 0.648264 59.5754 0.648264 65.0209-6.28816 65.0209-14.0025 65.0209-21.5872 59.6403-28.5884 51.9259-28.5884 46.6102-28.5884 40.3868-25.8009 35.0062-17.7624ZM36.951-15.3639C39.4145-19.4479 44.7302-26.1251 52.3797-26.1251 59.3161-26.1251 63.2057-19.8368 63.2057-14.0025 63.2057-7.71434 58.4086-2.85236 52.7038-2.85236 46.9991-2.85236 43.1743-7.58469 36.951-15.3639ZM31.8946-12.5763C29.4312-8.49222 24.1154-1.81514 16.4659-1.81514 9.52951-1.81514 5.6399-8.1033 5.6399-13.9376 5.6399-20.2258 10.4371-25.0878 16.1418-25.0878 21.8465-25.0878 25.6712-20.3555 31.8946-12.5763Z" transform="matrix(1.00124 0 0 1 924.255 1611.29)"/><path d="M43.4985-43.8875C43.5634-44.1468 43.693-44.5358 43.693-44.8599 43.693-45.3137 43.304-45.6378 42.8502-45.6378 42.3964-45.6378 42.2668-45.5081 41.5537-44.7302 40.8406-43.8875 39.1552-41.813 38.4421-41.0351 35.9138-44.7302 31.8298-45.6378 28.5236-45.6378 19.5127-45.6378 11.7984-38.0531 11.7984-30.6629 11.7984-26.903 13.808-24.6988 14.1321-24.2451 16.2714-21.9762 18.1514-21.4576 22.8189-20.3555 25.0878-19.772 25.2174-19.772 27.0975-19.3182 28.9775-18.8645 33.1263-17.8273 33.1263-12.4467 33.1263-6.80677 27.5512-0.777916 20.7445-0.777916 16.5307-0.777916 8.81643-2.07445 8.81643-10.1129 8.81643-10.3074 8.81643-11.6687 9.20538-13.2246L9.27021-13.8728C9.27021-14.6508 8.55704-14.7156 8.29774-14.7156 7.45504-14.7156 7.39021-14.4562 7.06607-12.9653L4.4082-2.39858C4.14889-1.42618 3.6951 0.324132 3.6951 0.518611 3.6951 1.03722 4.08406 1.36135 4.53785 1.36135 4.99164 1.36135 5.05646 1.29653 5.76955 0.453785L8.88125-3.17649C10.3722-1.2317 14.0673 1.36135 20.6148 1.36135 30.0146 1.36135 37.729-7.1309 37.729-14.9101 37.729-17.8921 36.7565-20.2258 35.0062-22.041 33.0615-24.1802 30.9222-24.6988 27.8754-25.4767 25.9953-25.9305 23.4671-26.514 21.9762-26.903 20.0313-27.3568 16.4011-28.6533 16.4011-33.1911 16.4011-38.2476 21.8465-43.693 28.4588-43.693 34.2932-43.693 38.3124-40.6461 38.3124-33.6449 38.3124-32.0891 38.0531-30.7277 38.0531-30.4684 38.0531-29.6905 38.6366-29.5608 39.0903-29.5608 39.8682-29.5608 39.9331-29.8201 40.1924-30.8573L43.4985-43.8875Z" transform="matrix(1.00124 0 0 1 880.987 1805.78)"/><path d="M14.9749-7.24435C15.0721-7.34159 15.3639-7.68192 15.5097-7.68192 15.7042-7.68192 18.5728-4.52164 19.0104-4.03544 19.9828-2.96581 20.9551-1.89617 21.9762-0.87516 22.2193-0.680677 22.3651-0.486198 22.6568-0.486198 23.0457-0.486198 23.3861-0.826537 23.3861-1.2155 23.3861-1.50721 21.4899-4.86198 20.8579-6.02885 19.5452-8.26537 19.5452-8.36257 18.67-10.0157L26.8382-13.8566C27.5188-14.1969 27.7619-14.4401 27.7619-14.7805 27.7619-15.0235 27.6161-15.5097 26.984-15.5097 26.595-15.5097 21.6844-14.5373 20.9065-14.3429L17.4545-13.7108 16.3363-22.6568C16.239-23.3375 16.1418-23.9209 15.5097-23.9209 14.829-23.9209 14.7318-23.143 14.6832-22.6568L13.565-13.7108 4.03544-15.5097C3.40339-15.5097 3.25752-15.0235 3.25752-14.7805 3.25752-14.4401 3.54925-14.1484 4.08406-13.9053L12.3495-10.0157C11.4743-8.36257 11.4743-8.26537 10.2101-6.02885 9.33503-4.52164 7.63331-1.50721 7.63331-1.2155 7.63331-0.826537 7.97365-0.486198 8.36257-0.486198 8.55704-0.486198 8.7516-0.534818 9.23775-1.06964L14.9749-7.24435Z" transform="matrix(1.00124 0 0 1 922.773 1813.88)"/><path d="M28.005-62.3306C28.005-64.5671 28.005-64.6644 26.0602-64.6644 23.7264-62.0389 18.8645-58.441 8.8488-58.441L8.8488-55.6211C11.0853-55.6211 15.9473-55.6211 21.2955-58.1493L21.2955-7.48745C21.2955-3.98682 21.0038-2.81995 12.4467-2.81995L9.43223-2.81995 9.43223 0C12.0577-0.194479 21.4899-0.194479 24.6988-0.194479 27.9077-0.194479 37.2428-0.194479 39.8682 0L39.8682-2.81995 36.8538-2.81995C28.2967-2.81995 28.005-3.98682 28.005-7.48745L28.005-62.3306Z" transform="matrix(1.00124 0 0 1 1062.72 1652.21)"/><path d="M1793.26 1296.26 1919.74 1296.26 1919.74 1300.15 1793.26 1300.15Z" transform="matrix(1.00124 0 0 1 -772.243 395.479)"/><path d="M48.6198-39.2848C48.5226-39.5765 48.1336-40.3544 48.1336-40.6461 48.1336-40.7434 48.2308-40.8406 49.8839-42.1048L59.3161-49.4949C72.3463-59.6079 76.6248-63.0113 83.3345-63.5947 84.0153-63.692 84.9873-63.692 84.9873-65.345 84.9873-65.9284 84.6961-66.4146 83.9177-66.4146 82.8481-66.4146 81.6809-66.2202 80.6116-66.2202L76.9165-66.2202C73.9021-66.2202 70.6932-66.4146 67.776-66.4146 67.0953-66.4146 65.9284-66.4146 65.9284-64.6644 65.9284-63.692 66.6091-63.5947 67.1925-63.5947 68.2622-63.4974 69.5263-63.1085 69.5263-61.7471 69.5263-59.8024 66.6091-57.4686 65.8312-56.8851L27.7133-27.2271 35.7841-59.3161C36.6593-62.6223 36.8538-63.5947 43.7578-63.5947 45.6053-63.5947 46.4805-63.5947 46.4805-65.4423 46.4805-66.4146 45.5081-66.4146 45.0219-66.4146 43.2716-66.4146 41.2296-66.2202 39.382-66.2202L27.9077-66.2202C26.1574-66.2202 24.0182-66.4146 22.2678-66.4146 21.4899-66.4146 20.4204-66.4146 20.4204-64.5671 20.4204-63.5947 21.2955-63.5947 22.7541-63.5947 28.6856-63.5947 28.6856-62.8168 28.6856-61.7471 28.6856-61.5526 28.6856-60.9692 28.2967-59.5106L15.1694-7.19573C14.2942-3.79235 14.0997-2.81995 7.29297-2.81995 5.44541-2.81995 4.47302-2.81995 4.47302-1.06964 4.47302 0 5.34818 0 5.93161 0 7.77916 0 9.72398-0.194479 11.5716-0.194479L22.9485-0.194479C24.7961-0.194479 26.8382 0 28.6856 0 29.4636 0 30.5332 0 30.5332-1.84755 30.5332-2.81995 29.6581-2.81995 28.1995-2.81995 22.2678-2.81995 22.2678-3.59786 22.2678-4.57026 22.2678-5.25094 22.8513-7.68192 23.2403-9.23775L27.0326-24.3099 41.813-35.8814C44.633-29.6581 49.7867-17.2114 53.7735-7.68192 54.0652-7.09849 54.2597-6.51505 54.2597-5.83437 54.2597-2.91719 50.3701-2.81995 49.4949-2.81995 48.6198-2.81995 47.6474-2.81995 47.6474-0.972398 47.6474 0 48.717 0 49.0087 0 52.4122 0 56.01-0.194479 59.4134-0.194479L64.0809-0.194479C65.5395-0.194479 67.1925 0 68.6512 0 69.2346 0 70.3042 0 70.3042-1.84755 70.3042-2.81995 69.4291-2.81995 68.4567-2.81995 64.8588-2.91719 63.5947-3.6951 62.1361-7.19573L48.6198-39.2848Z" transform="matrix(1.00124 0 0 1 1023.24 1784.7)"/><path d="M18.281-13.2246C19.3182-14.1969 22.041-16.3363 23.0782-17.2438 27.0975-20.939 30.9222-24.5044 30.9222-30.4036 30.9222-38.118 24.4395-43.1095 16.3363-43.1095 8.55704-43.1095 3.4358-37.2103 3.4358-31.4408 3.4358-28.2643 5.96403-27.8105 6.8716-27.8105 8.23292-27.8105 10.2426-28.7829 10.2426-31.2463 10.2426-34.6173 7.00125-34.6173 6.22334-34.6173 8.1033-39.3496 12.4467-40.9703 15.6232-40.9703 21.652-40.9703 24.7637-35.849 24.7637-30.4036 24.7637-23.6616 20.0313-18.7348 12.3818-10.8908L4.21371-2.4634C3.4358-1.75031 3.4358-1.62066 3.4358 0L29.0422 0 30.9222-11.6039 28.9126-11.6039C28.7181-10.3074 28.1995-7.06607 27.4216-5.83437 27.0326-5.31576 22.1058-5.31576 21.0686-5.31576L9.52951-5.31576 18.281-13.2246Z" transform="matrix(1.00124 0 0 1 1111.03 1756.6)"/><path d="M72.638-67.5815C72.638-68.4567 71.9573-68.4567 71.7628-68.4567 71.5683-68.4567 71.1794-68.4567 70.4015-67.4843L63.692-59.3161C60.2885-65.1505 54.9404-68.4567 47.6474-68.4567 26.6437-68.4567 4.86198-47.1612 4.86198-24.3099 4.86198-8.07089 16.239 2.04204 30.436 2.04204 38.2151 2.04204 45.0219-1.26411 50.6618-6.02885 59.1217-13.1274 61.6499-22.5596 61.6499-23.3375 61.6499-24.2127 60.872-24.2127 60.5803-24.2127 59.7051-24.2127 59.6079-23.6293 59.4134-23.2403 54.9404-8.07089 41.813-0.777916 32.0891-0.777916 21.7817-0.777916 12.8356-7.39021 12.8356-21.1983 12.8356-24.3099 13.808-41.2296 24.7961-53.968 30.1443-60.1913 39.2848-65.6367 48.5226-65.6367 59.2189-65.6367 63.9836-56.7879 63.9836-46.8695 63.9836-44.3413 63.692-42.202 63.692-41.813 63.692-40.9379 64.6644-40.9379 64.956-40.9379 66.0257-40.9379 66.1229-41.0351 66.5118-42.7854L72.638-67.5815Z" transform="matrix(1.00124 0 0 1 1159.61 1717.99)"/><path d="M31.7001-20.6797C31.7001-27.6161 30.987-31.8298 28.8477-35.9786 25.9953-41.6834 20.7445-43.1095 17.179-43.1095 9.0109-43.1095 6.02885-37.0158 5.12129-35.2007 2.78754-30.4684 2.65789-24.0506 2.65789-20.6797 2.65789-16.4011 2.85236-9.85363 5.96403-4.6675 8.94608 0.129653 13.7432 1.36135 17.179 1.36135 20.2907 1.36135 25.8657 0.388959 29.107-6.02885 31.5056-10.6964 31.7001-16.4659 31.7001-20.6797ZM17.179-0.453785C14.9749-0.453785 10.5019-1.49101 9.14056-8.29774 8.42739-11.9929 8.42739-18.0866 8.42739-21.4576 8.42739-25.9305 8.42739-30.4684 9.14056-34.0339 10.5019-40.6461 15.5584-41.2944 17.179-41.2944 19.3831-41.2944 23.8561-40.1924 25.1526-34.2932 25.9305-30.7277 25.9305-25.8657 25.9305-21.4576 25.9305-17.6328 25.9305-11.7984 25.1526-8.16809 23.7913-1.36135 19.3182-0.453785 17.179-0.453785Z" transform="matrix(1.00124 0 0 1 1227.56 1732.58)"/><path d="M31.6029 23.6293C31.6029 23.3375 31.6029 23.143 29.9498 21.4899 20.2258 11.6687 14.7805-4.37578 14.7805-24.2127 14.7805-43.0771 19.3507-59.3161 30.6305-70.7904 31.6029-71.6656 31.6029-71.8601 31.6029-72.1517 31.6029-72.7352 31.1166-72.9297 30.7277-72.9297 29.4636-72.9297 21.4899-65.9284 16.7252-56.399 11.766-46.5778 9.52951-36.1731 9.52951-24.2127 9.52951-15.5584 10.8908-3.98682 15.9473 6.41781 21.6844 18.0866 29.6581 24.4072 30.7277 24.4072 31.1166 24.4072 31.6029 24.2127 31.6029 23.6293Z" transform="matrix(1.00124 0 0 1 1266.1 1717.99)"/><path d="M48.6198-39.2848C48.5226-39.5765 48.1336-40.3544 48.1336-40.6461 48.1336-40.7434 48.2308-40.8406 49.8839-42.1048L59.3161-49.4949C72.3463-59.6079 76.6248-63.0113 83.3345-63.5947 84.0153-63.692 84.9873-63.692 84.9873-65.345 84.9873-65.9284 84.6961-66.4146 83.9177-66.4146 82.8481-66.4146 81.6809-66.2202 80.6116-66.2202L76.9165-66.2202C73.9021-66.2202 70.6932-66.4146 67.776-66.4146 67.0953-66.4146 65.9284-66.4146 65.9284-64.6644 65.9284-63.692 66.6091-63.5947 67.1925-63.5947 68.2622-63.4974 69.5263-63.1085 69.5263-61.7471 69.5263-59.8024 66.6091-57.4686 65.8312-56.8851L27.7133-27.2271 35.7841-59.3161C36.6593-62.6223 36.8538-63.5947 43.7578-63.5947 45.6053-63.5947 46.4805-63.5947 46.4805-65.4423 46.4805-66.4146 45.5081-66.4146 45.0219-66.4146 43.2716-66.4146 41.2296-66.2202 39.382-66.2202L27.9077-66.2202C26.1574-66.2202 24.0182-66.4146 22.2678-66.4146 21.4899-66.4146 20.4204-66.4146 20.4204-64.5671 20.4204-63.5947 21.2955-63.5947 22.7541-63.5947 28.6856-63.5947 28.6856-62.8168 28.6856-61.7471 28.6856-61.5526 28.6856-60.9692 28.2967-59.5106L15.1694-7.19573C14.2942-3.79235 14.0997-2.81995 7.29297-2.81995 5.44541-2.81995 4.47302-2.81995 4.47302-1.06964 4.47302 0 5.34818 0 5.93161 0 7.77916 0 9.72398-0.194479 11.5716-0.194479L22.9485-0.194479C24.7961-0.194479 26.8382 0 28.6856 0 29.4636 0 30.5332 0 30.5332-1.84755 30.5332-2.81995 29.6581-2.81995 28.1995-2.81995 22.2678-2.81995 22.2678-3.59786 22.2678-4.57026 22.2678-5.25094 22.8513-7.68192 23.2403-9.23775L27.0326-24.3099 41.813-35.8814C44.633-29.6581 49.7867-17.2114 53.7735-7.68192 54.0652-7.09849 54.2597-6.51505 54.2597-5.83437 54.2597-2.91719 50.3701-2.81995 49.4949-2.81995 48.6198-2.81995 47.6474-2.81995 47.6474-0.972398 47.6474 0 48.717 0 49.0087 0 52.4122 0 56.01-0.194479 59.4134-0.194479L64.0809-0.194479C65.5395-0.194479 67.1925 0 68.6512 0 69.2346 0 70.3042 0 70.3042-1.84755 70.3042-2.81995 69.4291-2.81995 68.4567-2.81995 64.8588-2.91719 63.5947-3.6951 62.1361-7.19573L48.6198-39.2848Z" transform="matrix(1.00124 0 0 1 1303.03 1717.99)"/><path d="M27.4216-24.2127C27.4216-31.6029 26.4492-43.6606 21.0038-54.9404 15.2666-66.6091 7.29297-72.9297 6.22334-72.9297 5.83437-72.9297 5.34818-72.7352 5.34818-72.1517 5.34818-71.8601 5.34818-71.6656 7.00125-70.0125 16.7252-60.1913 22.1706-44.1468 22.1706-24.3099 22.1706-5.44541 17.6004 10.7936 6.32057 22.2678 5.34818 23.143 5.34818 23.3375 5.34818 23.6293 5.34818 24.2127 5.83437 24.4072 6.22334 24.4072 7.48745 24.4072 15.4611 17.4059 20.2258 7.87641 25.1851-2.04204 27.4216-12.5439 27.4216-24.2127Z" transform="matrix(1.00124 0 0 1 1390.83 1717.99)"/><path d="M48.9115-65.0533C49.0087-65.4423 49.2033-66.0257 49.2033-66.5118 49.2033-67.4843 48.2308-67.4843 48.0363-67.4843 47.9391-67.4843 43.1743-67.0953 42.6882-66.9981 41.0351-66.9009 39.5765-66.7064 37.8262-66.6091 35.3952-66.4146 34.7146-66.3174 34.7146-64.5671 34.7146-63.5947 35.4925-63.5947 36.8538-63.5947 41.6185-63.5947 41.7158-62.7195 41.7158-61.7471 41.7158-61.1637 41.5213-60.3858 41.424-60.094L35.4925-36.4649C34.4228-38.9931 31.7973-42.8827 26.7409-42.8827 15.7528-42.8827 3.88959-28.6856 3.88959-14.2942 3.88959-4.6675 9.52951 0.972398 16.1418 0.972398 21.4899 0.972398 26.0602-3.20891 28.7829-6.41781 29.7553-0.680677 34.3255 0.972398 37.2428 0.972398 40.16 0.972398 42.4937-0.777916 44.244-4.27854 45.7998-7.58469 47.1612-13.5163 47.1612-13.9053 47.1612-14.3914 46.7723-14.7805 46.1888-14.7805 45.3137-14.7805 45.2164-14.2942 44.8274-12.8356 43.3688-7.09849 41.5213-0.972398 37.5344-0.972398 34.7146-0.972398 34.52-3.50062 34.52-5.44541 34.52-5.83437 34.52-7.87641 35.2007-10.5991L48.9115-65.0533ZM29.2692-11.5716C28.7829-9.91846 28.7829-9.72398 27.4216-7.87641 25.2823-5.1537 21.0038-0.972398 16.4335-0.972398 12.4467-0.972398 10.2101-4.57026 10.2101-10.3074 10.2101-15.6556 13.2246-26.5464 15.0721-30.6305 18.3783-37.4372 22.9485-40.9379 26.7409-40.9379 33.1587-40.9379 34.4228-32.9642 34.4228-32.1863 34.4228-32.0891 34.1311-30.825 34.0339-30.6305L29.2692-11.5716Z" transform="matrix(1.00124 0 0 1 1427.76 1717.99)"/><path d="M48.6198-39.2848C48.5226-39.5765 48.1336-40.3544 48.1336-40.6461 48.1336-40.7434 48.2308-40.8406 49.8839-42.1048L59.3161-49.4949C72.3463-59.6079 76.6248-63.0113 83.3345-63.5947 84.0153-63.692 84.9873-63.692 84.9873-65.345 84.9873-65.9284 84.6961-66.4146 83.9177-66.4146 82.8481-66.4146 81.6809-66.2202 80.6116-66.2202L76.9165-66.2202C73.9021-66.2202 70.6932-66.4146 67.776-66.4146 67.0953-66.4146 65.9284-66.4146 65.9284-64.6644 65.9284-63.692 66.6091-63.5947 67.1925-63.5947 68.2622-63.4974 69.5263-63.1085 69.5263-61.7471 69.5263-59.8024 66.6091-57.4686 65.8312-56.8851L27.7133-27.2271 35.7841-59.3161C36.6593-62.6223 36.8538-63.5947 43.7578-63.5947 45.6053-63.5947 46.4805-63.5947 46.4805-65.4423 46.4805-66.4146 45.5081-66.4146 45.0219-66.4146 43.2716-66.4146 41.2296-66.2202 39.382-66.2202L27.9077-66.2202C26.1574-66.2202 24.0182-66.4146 22.2678-66.4146 21.4899-66.4146 20.4204-66.4146 20.4204-64.5671 20.4204-63.5947 21.2955-63.5947 22.7541-63.5947 28.6856-63.5947 28.6856-62.8168 28.6856-61.7471 28.6856-61.5526 28.6856-60.9692 28.2967-59.5106L15.1694-7.19573C14.2942-3.79235 14.0997-2.81995 7.29297-2.81995 5.44541-2.81995 4.47302-2.81995 4.47302-1.06964 4.47302 0 5.34818 0 5.93161 0 7.77916 0 9.72398-0.194479 11.5716-0.194479L22.9485-0.194479C24.7961-0.194479 26.8382 0 28.6856 0 29.4636 0 30.5332 0 30.5332-1.84755 30.5332-2.81995 29.6581-2.81995 28.1995-2.81995 22.2678-2.81995 22.2678-3.59786 22.2678-4.57026 22.2678-5.25094 22.8513-7.68192 23.2403-9.23775L27.0326-24.3099 41.813-35.8814C44.633-29.6581 49.7867-17.2114 53.7735-7.68192 54.0652-7.09849 54.2597-6.51505 54.2597-5.83437 54.2597-2.91719 50.3701-2.81995 49.4949-2.81995 48.6198-2.81995 47.6474-2.81995 47.6474-0.972398 47.6474 0 48.717 0 49.0087 0 52.4122 0 56.01-0.194479 59.4134-0.194479L64.0809-0.194479C65.5395-0.194479 67.1925 0 68.6512 0 69.2346 0 70.3042 0 70.3042-1.84755 70.3042-2.81995 69.4291-2.81995 68.4567-2.81995 64.8588-2.91719 63.5947-3.6951 62.1361-7.19573L48.6198-39.2848Z" transform="matrix(1.00124 0 0 1 1477.11 1717.99)"/><path d="M21.5872 224.04 1.36135 224.04 1.36135 229.388 26.9354 229.388 26.9354-3.88959 1.36135-3.88959 1.36135 1.4586 21.5872 1.4586 21.5872 224.04Z" transform="matrix(1.00124 0 0 1 1564.91 1580.88)"/></g></g></g></g></svg>