<svg width="189" height="164" xmlns="http://www.w3.org/2000/svg" xmlns:xlink="http://www.w3.org/1999/xlink" overflow="hidden"><defs><clipPath id="clip0"><rect x="434" y="71" width="189" height="164"/></clipPath><clipPath id="clip1"><rect x="443" y="144" width="166" height="75"/></clipPath><clipPath id="clip2"><rect x="443" y="144" width="166" height="75"/></clipPath><clipPath id="clip3"><rect x="443" y="144" width="166" height="75"/></clipPath></defs><g clip-path="url(#clip0)" transform="translate(-434 -71)"><path d="M15.742 107.284 56.0273 26.7138 161.404 26.7138 201.689 107.284 161.404 187.855 56.0273 187.855Z" stroke="#000000" stroke-width="2.62367" stroke-miterlimit="8" fill="#FFFFFF" fill-rule="evenodd" transform="matrix(1 0 0 1.00114 419.784 45.5929)"/><text font-family="CMU Sans Serif,CMU Sans Serif_MSFontService,sans-serif" font-weight="700" font-size="202" transform="matrix(0.0954064 0 0 0.0955154 493.364 121)">R<tspan font-size="202" x="142" y="0">.</tspan><tspan font-size="202" x="204" y="0">MFIV</tspan></text><g clip-path="url(#clip1)"><g clip-path="url(#clip2)"><g clip-path="url(#clip3)"><path d="M2.40557-3.12073C2.63776-3.12073 3.08358-3.12073 3.40866-2.92569 3.85447-2.63776 3.89162-2.13621 3.89162-2.08049 3.90091-1.95046 3.90091-1.82971 4.0588-1.82971 4.2167-1.82971 4.2167-1.95974 4.2167-2.12692L4.2167-4.64394C4.2167-4.79255 4.2167-4.94116 4.0588-4.94116 3.90091-4.94116 3.89162-4.80184 3.89162-4.72753 3.83589-3.52939 2.88853-3.46438 2.40557-3.45509L2.40557-5.41484C2.40557-6.03712 2.58203-6.03712 2.80493-6.03712L3.25076-6.03712C4.50462-6.03712 5.12691-5.39626 5.18264-4.7554 5.19192-4.68109 5.20121-4.54178 5.34982-4.54178 5.50771-4.54178 5.50771-4.69038 5.50771-4.84828L5.50771-6.0557C5.50771-6.34362 5.48914-6.3622 5.20121-6.3622L0.445818-6.3622C0.278637-6.3622 0.13003-6.3622 0.13003-6.19502 0.13003-6.03712 0.3065-6.03712 0.380803-6.03712 0.910215-6.03712 0.947366-5.96282 0.947366-5.50771L0.947366-0.854489C0.947366-0.417955 0.919499-0.325076 0.427242-0.325076 0.287925-0.325076 0.13003-0.325076 0.13003-0.167182 0.13003 0 0.278637 0 0.445818 0L5.3684 0C5.54487 0 5.63775 0 5.6656-0.13003 5.6749-0.139319 5.93496-1.69039 5.93496-1.73683 5.93496-1.839 5.85137-1.90401 5.77706-1.90401 5.64704-1.90401 5.60988-1.78327 5.60988-1.77399 5.55416-1.5325 5.46128-1.14241 4.78326-0.74303 4.30029-0.455106 3.82661-0.325076 3.31578-0.325076L2.80493-0.325076C2.58203-0.325076 2.40557-0.325076 2.40557-0.947366L2.40557-3.12073ZM5.18264-6.03712 5.18264-5.5913C5.02474-5.76778 4.84828-5.91638 4.65323-6.03712L5.18264-6.03712ZM3.3715-3.31578C3.52011-3.38079 3.72444-3.52011 3.89162-3.71516L3.89162-2.93497C3.66871-3.18575 3.38079-3.30649 3.3715-3.30649L3.3715-3.31578ZM1.27244-5.52629C1.27244-5.63775 1.27244-5.86994 1.19814-6.03712L2.18265-6.03712C2.08049-5.8235 2.08049-5.517 2.08049-5.43341L2.08049-0.92879C2.08049-0.594425 2.1455-0.408667 2.18265-0.325076L1.19814-0.325076C1.27244-0.492258 1.27244-0.724455 1.27244-0.835913L1.27244-5.52629ZM4.72753-0.325076 4.72753-0.334363C5.02474-0.48297 5.27552-0.678015 5.46128-0.845197 5.45198-0.808046 5.38697-0.399379 5.37768-0.325076L4.72753-0.325076Z" transform="matrix(1.0001 0 0 1 443.731 158.398)"/><path d="M1.87615 10.7646 3.65943 10.7646 3.65943 10.3931 2.24767 10.3931 2.24767 0 3.65943 0 3.65943-0.371516 1.87615-0.371516 1.87615 10.7646Z" transform="matrix(1.0001 0 0 1 449.901 150.874)"/><path d="M5.91638-5.56344C5.96282-5.6749 6.10214-5.99997 6.49223-6.03712 6.54796-6.03712 6.68727-6.0557 6.68727-6.19502 6.68727-6.3622 6.54796-6.3622 6.38077-6.3622L4.88542-6.3622C4.71824-6.3622 4.57892-6.3622 4.57892-6.19502 4.57892-6.0557 4.71824-6.0464 4.77398-6.03712 4.91329-6.01855 5.10834-5.9814 5.10834-5.49842 5.10834-4.95044 4.81112-4.06809 4.65323-3.62228 4.58821-3.43651 4.58821-3.41793 3.9102-1.71827 3.74301-2.06191 2.32197-5.14548 2.32197-5.7492 2.32197-5.81422 2.53559-6.00926 2.87925-6.03712 3.02785-6.0464 3.05571-6.14858 3.05571-6.19502 3.05571-6.3622 2.91639-6.3622 2.74921-6.3622L0.315788-6.3622C0.148607-6.3622 0.0092879-6.3622 0.0092879-6.19502 0.0092879-6.06498 0.13003-6.0464 0.204333-6.03712 0.510834-5.99068 0.705879-5.55416 0.724455-5.52629L3.22289-0.0185757C3.28791 0.120742 3.33435 0.17647 3.41793 0.17647 3.52011 0.17647 3.54797 0.13003 3.6037-0.0185757L5.91638-5.56344ZM5.8235-6.03712C5.71205-5.91638 5.6656-5.80492 5.6006-5.65632 5.56344-5.55416 5.46128-5.31267 5.41484-5.2105 5.42412-5.2941 5.43341-5.41484 5.43341-5.49842 5.43341-5.61917 5.42412-5.86994 5.32196-6.03712L5.8235-6.03712ZM1.05882-5.58202C0.975222-5.75848 0.808046-6.01855 0.78947-6.03712L2.10835-6.03712C2.06191-5.99997 1.98761-5.95353 1.98761-5.75848 1.98761-5.12691 3.17646-2.52631 3.76159-1.23529L3.41793-0.390091 1.05882-5.58202Z" transform="matrix(1.0001 0 0 1 453.771 158.398)"/><path d="M1.98761 10.7646 1.98761-0.371516 0.204333-0.371516 0.204333 0 1.61609 0 1.61609 10.3931 0.204333 10.3931 0.204333 10.7646 1.98761 10.7646Z" transform="matrix(1.0001 0 0 1 460.455 150.874)"/><path d="M6.26932-3.00927C6.39935-3.00927 6.56653-3.00927 6.56653-3.17646 6.56653-3.35293 6.40864-3.35293 6.26932-3.35293L0.798755-3.35293C0.668727-3.35293 0.501546-3.35293 0.501546-3.18575 0.501546-3.00927 0.65944-3.00927 0.798755-3.00927L6.26932-3.00927ZM6.26932-1.28172C6.39935-1.28172 6.56653-1.28172 6.56653-1.44891 6.56653-1.62538 6.40864-1.62538 6.26932-1.62538L0.798755-1.62538C0.668727-1.62538 0.501546-1.62538 0.501546-1.4582 0.501546-1.28172 0.65944-1.28172 0.798755-1.28172L6.26932-1.28172Z" transform="matrix(1.0001 0 0 1 466.954 158.398)"/><path d="M4.08667-1.56037 3.88233-1.56037C3.85447-1.40247 3.78017-0.891639 3.68729-0.74303 3.62228-0.65944 3.09287-0.65944 2.81423-0.65944L1.09597-0.65944C1.34674-0.873065 1.9133-1.46749 2.15479-1.69039 3.56655-2.99069 4.08667-3.47367 4.08667-4.39317 4.08667-5.46128 3.24147-6.17645 2.16407-6.17645 1.08668-6.17645 0.455106-5.25694 0.455106-4.45818 0.455106-3.9845 0.863773-3.9845 0.891639-3.9845 1.08668-3.9845 1.32817-4.12381 1.32817-4.42103 1.32817-4.68109 1.1517-4.85756 0.891639-4.85756 0.808046-4.85756 0.78947-4.85756 0.761607-4.84828 0.938074-5.47985 1.43962-5.90709 2.04333-5.90709 2.83281-5.90709 3.31578-5.24766 3.31578-4.39317 3.31578-3.6037 2.86067-2.91639 2.33126-2.32197L0.455106-0.222909 0.455106 0 3.84518 0 4.08667-1.56037Z" transform="matrix(1.0001 0 0 1 478.534 152.114)"/><path d="M131.39 72.5225 137.983 72.5225 137.983 72.8939 131.39 72.8939Z" transform="matrix(1.0001 0 0 1 346.108 83.3672)"/><path d="M3.87305-5.6656C3.92878-5.88852 3.94736-5.9721 4.08667-6.00926 4.16098-6.02784 4.46748-6.02784 4.66251-6.02784 5.5913-6.02784 6.02784-5.99068 6.02784-5.26622 6.02784-5.12691 5.99068-4.77398 5.93496-4.43032L5.92567-4.31886C5.92567-4.28171 5.96282-4.22599 6.01855-4.22599 6.11142-4.22599 6.11142-4.27242 6.13929-4.42103L6.40864-6.06498C6.42722-6.14858 6.42722-6.16715 6.42722-6.19502 6.42722-6.29718 6.37149-6.29718 6.18573-6.29718L1.10527-6.29718C0.891639-6.29718 0.882348-6.2879 0.826621-6.12072L0.260061-4.4489C0.250773-4.43032 0.222909-4.32816 0.222909-4.31886 0.222909-4.27242 0.260061-4.22599 0.315788-4.22599 0.390091-4.22599 0.408667-4.26314 0.445818-4.38388 0.835913-5.50771 1.03096-6.02784 2.26624-6.02784L2.88853-6.02784C3.11144-6.02784 3.20431-6.02784 3.20431-5.92567 3.20431-5.8978 3.20431-5.87922 3.15788-5.71205L1.9133-0.724455C1.82042-0.362228 1.80185-0.269349 0.817329-0.269349 0.585137-0.269349 0.520121-0.269349 0.520121-0.092879 0.520121 0 0.622288 0 0.668727 0 0.900924 0 1.14241-0.0185757 1.3746-0.0185757L2.82351-0.0185757C3.05571-0.0185757 3.30649 0 3.53868 0 3.64086 0 3.73373 0 3.73373-0.17647 3.73373-0.269349 3.66871-0.269349 3.42723-0.269349 2.59131-0.269349 2.59131-0.352939 2.59131-0.492258 2.59131-0.501546 2.59131-0.56656 2.62847-0.715167L3.87305-5.6656Z" transform="matrix(1.0001 0 0 1 477.51 164.768)"/><path d="M2.32197 21.9101 4.76468 21.9101 4.76468 21.3993 2.83281 21.3993 2.83281 0.139319 4.76468 0.139319 4.76468-0.371516 2.32197-0.371516 2.32197 21.9101Z" transform="matrix(1.0001 0 0 1 485.033 145.301)"/><path d="M3.61299-3.79874C3.32506-3.74301 3.17646-3.53868 3.17646-3.33435 3.17646-3.11144 3.35293-3.03713 3.48296-3.03713 3.74301-3.03713 3.95663-3.26005 3.95663-3.53868 3.95663-3.83589 3.66871-4.09596 3.20431-4.09596 2.83281-4.09596 2.40557-3.92878 2.01547-3.36221 1.95046-3.85447 1.57894-4.09596 1.20742-4.09596 0.845197-4.09596 0.65944-3.81731 0.547985-3.61299 0.390091-3.27862 0.250773-2.72135 0.250773-2.67491 0.250773-2.63776 0.287925-2.59131 0.352939-2.59131 0.427242-2.59131 0.43653-2.60061 0.492258-2.81423 0.631576-3.3715 0.808046-3.9102 1.17957-3.9102 1.40247-3.9102 1.46749-3.75231 1.46749-3.48296 1.46749-3.27862 1.3746-2.91639 1.30959-2.62847L1.04952-1.62538C1.01238-1.44891 0.910215-1.03096 0.863773-0.863773 0.798755-0.622288 0.696591-0.185757 0.696591-0.139319 0.696591-0.0092879 0.798755 0.092879 0.938074 0.092879 1.04024 0.092879 1.21671 0.0278637 1.27244-0.157894 1.3003-0.232197 1.64395-1.63467 1.69969-1.84829 1.74612-2.05262 1.80185-2.24767 1.84829-2.452 1.88544-2.58203 1.92259-2.73063 1.95046-2.85138 1.97832-2.93497 2.22909-3.39008 2.46129-3.59441 2.57275-3.69658 2.81423-3.9102 3.19503-3.9102 3.34363-3.9102 3.49224-3.88233 3.61299-3.79874Z" transform="matrix(1.0001 0 0 1 489.936 158.398)"/><path d="M3.87305-5.6656C3.92878-5.88852 3.94736-5.9721 4.08667-6.00926 4.16098-6.02784 4.46748-6.02784 4.66251-6.02784 5.5913-6.02784 6.02784-5.99068 6.02784-5.26622 6.02784-5.12691 5.99068-4.77398 5.93496-4.43032L5.92567-4.31886C5.92567-4.28171 5.96282-4.22599 6.01855-4.22599 6.11142-4.22599 6.11142-4.27242 6.13929-4.42103L6.40864-6.06498C6.42722-6.14858 6.42722-6.16715 6.42722-6.19502 6.42722-6.29718 6.37149-6.29718 6.18573-6.29718L1.10527-6.29718C0.891639-6.29718 0.882348-6.2879 0.826621-6.12072L0.260061-4.4489C0.250773-4.43032 0.222909-4.32816 0.222909-4.31886 0.222909-4.27242 0.260061-4.22599 0.315788-4.22599 0.390091-4.22599 0.408667-4.26314 0.445818-4.38388 0.835913-5.50771 1.03096-6.02784 2.26624-6.02784L2.88853-6.02784C3.11144-6.02784 3.20431-6.02784 3.20431-5.92567 3.20431-5.8978 3.20431-5.87922 3.15788-5.71205L1.9133-0.724455C1.82042-0.362228 1.80185-0.269349 0.817329-0.269349 0.585137-0.269349 0.520121-0.269349 0.520121-0.092879 0.520121 0 0.622288 0 0.668727 0 0.900924 0 1.14241-0.0185757 1.3746-0.0185757L2.82351-0.0185757C3.05571-0.0185757 3.30649 0 3.53868 0 3.64086 0 3.73373 0 3.73373-0.17647 3.73373-0.269349 3.66871-0.269349 3.42723-0.269349 2.59131-0.269349 2.59131-0.352939 2.59131-0.492258 2.59131-0.501546 2.59131-0.56656 2.62847-0.715167L3.87305-5.6656Z" transform="matrix(1.0001 0 0 1 494.272 158.398)"/><path d="M6.12072-2.13621C6.2786-2.13621 6.44579-2.13621 6.44579-2.32197 6.44579-2.50772 6.2786-2.50773 6.12072-2.50773L1.09597-2.50773C0.938074-2.50773 0.770895-2.50773 0.770895-2.32197 0.770895-2.1362 0.938074-2.13621 1.09597-2.13621L6.12072-2.13621Z" transform="matrix(1.0001 0 0 1 502.91 158.398)"/><path d="M6.50152 21.8173C6.50152 21.7801 6.48295 21.7616 6.46437 21.7337 6.12072 21.39 5.49842 20.7677 4.87614 19.7646 3.38079 17.3683 2.70277 14.3498 2.70277 10.7739 2.70277 8.27553 3.03713 5.0526 4.56964 2.28482 5.30338 0.965938 6.06498 0.204333 6.47365-0.204333 6.50152-0.232197 6.50152-0.250773 6.50152-0.278637 6.50152-0.371516 6.4365-0.371516 6.30647-0.371516 6.17645-0.371516 6.15787-0.371516 6.01855-0.232197 2.90711 2.60061 1.93188 6.85446 1.93188 10.7646 1.93188 14.4148 2.76779 18.0928 5.12691 20.8699 5.31267 21.0835 5.6656 21.4643 6.0464 21.7986 6.15787 21.9101 6.17645 21.9101 6.30647 21.9101 6.4365 21.9101 6.50152 21.9101 6.50152 21.8173Z" transform="matrix(1.0001 0 0 1 512.172 145.301)"/><path d="M5.8978-6.45508C5.8978-6.53867 5.83279-6.53867 5.81422-6.53867 5.77706-6.53867 5.76778-6.52938 5.65632-6.39007 5.6006-6.32505 5.21979-5.84208 5.2105-5.83279 4.904-6.4365 4.291-6.53867 3.90091-6.53867 2.72135-6.53867 1.65324-5.46128 1.65324-4.41174 1.65324-3.71516 2.07119-3.30649 2.52631-3.14859 2.62847-3.11144 3.17646-2.96283 3.45509-2.89781 3.92878-2.76779 4.04951-2.73063 4.24456-2.52631 4.28171-2.47987 4.46748-2.26624 4.46748-1.82971 4.46748-0.965938 3.66871-0.074303 2.73992-0.074303 1.97832-0.074303 1.13312-0.399379 1.13312-1.43962 1.13312-1.61609 1.17027-1.839 1.19814-1.93188 1.19814-1.95974 1.20742-2.00619 1.20742-2.02476 1.20742-2.06191 1.18885-2.10835 1.11454-2.10835 1.03096-2.10835 1.02167-2.08977 0.984516-1.93188L0.510834-0.0278637C0.510834-0.0185757 0.473682 0.102167 0.473682 0.111454 0.473682 0.195046 0.547985 0.195046 0.56656 0.195046 0.603712 0.195046 0.613 0.185757 0.724455 0.0464394L1.1517-0.510834C1.3746-0.17647 1.85757 0.195046 2.72135 0.195046 3.91949 0.195046 5.01546-0.965938 5.01546-2.12692 5.01546-2.51701 4.92258-2.86067 4.56964-3.20431 4.37459-3.39937 4.20741-3.44581 3.35293-3.66871 2.73063-3.83589 2.64705-3.86376 2.47987-4.01236 2.32197-4.17026 2.20122-4.39317 2.20122-4.70896 2.20122-5.48914 2.99069-6.2879 3.87305-6.2879 4.78326-6.2879 5.2105-5.73062 5.2105-4.84828 5.2105-4.60679 5.16406-4.35601 5.16406-4.31886 5.16406-4.23528 5.23836-4.23528 5.26622-4.23528 5.34982-4.23528 5.3591-4.26314 5.39626-4.41174L5.8978-6.45508Z" transform="matrix(1.0001 0 0 1 519.938 152.114)"/><path d="M3.02785-1.97523C3.02785-2.63776 2.95974-3.04024 2.7554-3.43651 2.48295-3.98141 1.98142-4.11762 1.64086-4.11762 0.86068-4.11762 0.575848-3.53558 0.489162-3.36221 0.266253-2.9102 0.25387-2.2972 0.25387-1.97523 0.25387-1.56656 0.272444-0.941174 0.569657-0.445818 0.854489 0.0123839 1.31269 0.13003 1.64086 0.13003 1.93808 0.13003 2.47057 0.0371516 2.78017-0.575848 3.00927-1.02167 3.02785-1.57275 3.02785-1.97523ZM1.64086-0.0433435C1.43033-0.0433435 1.00309-0.142414 0.873065-0.792562 0.804946-1.14551 0.804946-1.72755 0.804946-2.04953 0.804946-2.47676 0.804946-2.9102 0.873065-3.25076 1.00309-3.88233 1.48607-3.94425 1.64086-3.94425 1.85139-3.94425 2.27863-3.83899 2.40246-3.27553 2.47676-2.93497 2.47676-2.47057 2.47676-2.04953 2.47676-1.6842 2.47676-1.12693 2.40246-0.780179 2.27244-0.13003 1.84519-0.0433435 1.64086-0.0433435Z" transform="matrix(1.0001 0 0 1 525.511 153.507)"/><path d="M1.66253-2.15479C1.9133-2.15479 2.54488-2.17337 2.99069-2.34055 3.69658-2.60989 3.76159-3.14859 3.76159-3.31578 3.76159-3.72444 3.40866-4.09596 2.79566-4.09596 1.82042-4.09596 0.417955-3.21361 0.417955-1.56037 0.417955-0.585137 0.975222 0.092879 1.82042 0.092879 3.08358 0.092879 3.88233-0.891639 3.88233-1.01238 3.88233-1.0681 3.82661-1.11454 3.78946-1.11454 3.76159-1.11454 3.75231-1.10527 3.66871-1.02167 3.07429-0.232197 2.19194-0.092879 1.839-0.092879 1.30959-0.092879 1.03096-0.510834 1.03096-1.19814 1.03096-1.32817 1.03096-1.56037 1.17027-2.15479L1.66253-2.15479ZM1.21671-2.34055C1.61609-3.77088 2.49844-3.9102 2.79566-3.9102 3.20431-3.9102 3.48296-3.66871 3.48296-3.31578 3.48296-2.34055 1.99689-2.34055 1.6068-2.34055L1.21671-2.34055Z" transform="matrix(1.0001 0 0 1 529.188 152.114)"/><path d="M1.19504-0.854489C1.26315-1.12074 1.33126-1.387 1.39319-1.65944 1.39938-1.67182 1.44272-1.85139 1.44891-1.88234 1.46749-1.93808 1.62228-2.19194 1.78327-2.34674 1.98142-2.52631 2.19194-2.55726 2.30339-2.55726 2.37151-2.55726 2.48295-2.55107 2.56965-2.47676 2.30339-2.42104 2.26624-2.19194 2.26624-2.13621 2.26624-2 2.37151-1.90711 2.50773-1.90711 2.67491-1.90711 2.86067-2.04333 2.86067-2.29101 2.86067-2.51392 2.66872-2.73063 2.31578-2.73063 1.89472-2.73063 1.6099-2.452 1.47987-2.28482 1.35602-2.73063 0.934982-2.73063 0.873065-2.73063 0.650152-2.73063 0.495354-2.58823 0.396283-2.39627 0.25387-2.11763 0.185757-1.80185 0.185757-1.78327 0.185757-1.72755 0.229101-1.70278 0.278637-1.70278 0.359131-1.70278 0.365324-1.72755 0.408667-1.88853 0.48297-2.19194 0.594425-2.55726 0.854489-2.55726 1.01547-2.55726 1.05263-2.40246 1.05263-2.26624 1.05263-2.15479 1.02167-2.03714 0.972137-1.83281 0.959749-1.78327 0.866872-1.41796 0.842105-1.33126L0.613-0.402474C0.588233-0.309596 0.551081-0.154798 0.551081-0.13003 0.551081 0.0123839 0.668727 0.0619192 0.749223 0.0619192 0.965938 0.0619192 1.00928-0.111454 1.05882-0.32198L1.19504-0.854489Z" transform="matrix(1.0001 0 0 1 533.388 148.744)"/><path d="M2.79875-3.74612C2.85448-3.96902 2.86067-3.98141 3.11454-3.98141L3.58511-3.98141C4.22909-3.98141 4.30339-3.77707 4.30339-3.46748 4.30339-3.31268 4.26624-3.04643 4.26005-3.01546 4.24766-2.94735 4.24147-2.89162 4.24147-2.87925 4.24147-2.79875 4.29719-2.78017 4.33435-2.78017 4.40246-2.78017 4.42723-2.81732 4.44579-2.93497L4.61298-4.09905C4.61298-4.18574 4.53867-4.18574 4.42723-4.18574L0.780179-4.18574C0.625383-4.18574 0.613-4.18574 0.569657-4.05571L0.191949-2.9845C0.179565-2.95355 0.16099-2.90401 0.16099-2.86686 0.16099-2.81732 0.204333-2.78017 0.25387-2.78017 0.32198-2.78017 0.334363-2.81113 0.371516-2.91639 0.724455-3.9071 0.904023-3.98141 1.84519-3.98141L2.08668-3.98141C2.27244-3.98141 2.27863-3.97521 2.27863-3.92567 2.27863-3.9071 2.25386-3.78326 2.24767-3.75849L1.43033-0.507737C1.3746-0.272444 1.35602-0.204333 0.712071-0.204333 0.513929-0.204333 0.45201-0.204333 0.45201-0.0866872 0.45201-0.0804946 0.45201 0 0.557272 0 0.724455 0 1.1517-0.0185757 1.31888-0.0185757L1.84519-0.0185757C2.01857-0.0185757 2.452 0 2.62538 0 2.67491 0 2.76779 0 2.76779-0.117646 2.76779-0.204333 2.69968-0.204333 2.5325-0.204333 2.38388-0.204333 2.33435-0.204333 2.17337-0.216717 1.97523-0.235293 1.95046-0.260061 1.95046-0.340556 1.95046-0.365324 1.95665-0.390091 1.97523-0.45201L2.79875-3.74612Z" transform="matrix(1.0001 0 0 1 536.528 148.744)"/><path d="M173.813 72.5225 195.58 72.5225 195.58 72.8939 173.813 72.8939Z" transform="matrix(1.0001 0 0 1 346.108 83.3672)"/><path d="M5.8978-6.45508C5.8978-6.53867 5.83279-6.53867 5.81422-6.53867 5.77706-6.53867 5.76778-6.52938 5.65632-6.39007 5.6006-6.32505 5.21979-5.84208 5.2105-5.83279 4.904-6.4365 4.291-6.53867 3.90091-6.53867 2.72135-6.53867 1.65324-5.46128 1.65324-4.41174 1.65324-3.71516 2.07119-3.30649 2.52631-3.14859 2.62847-3.11144 3.17646-2.96283 3.45509-2.89781 3.92878-2.76779 4.04951-2.73063 4.24456-2.52631 4.28171-2.47987 4.46748-2.26624 4.46748-1.82971 4.46748-0.965938 3.66871-0.074303 2.73992-0.074303 1.97832-0.074303 1.13312-0.399379 1.13312-1.43962 1.13312-1.61609 1.17027-1.839 1.19814-1.93188 1.19814-1.95974 1.20742-2.00619 1.20742-2.02476 1.20742-2.06191 1.18885-2.10835 1.11454-2.10835 1.03096-2.10835 1.02167-2.08977 0.984516-1.93188L0.510834-0.0278637C0.510834-0.0185757 0.473682 0.102167 0.473682 0.111454 0.473682 0.195046 0.547985 0.195046 0.56656 0.195046 0.603712 0.195046 0.613 0.185757 0.724455 0.0464394L1.1517-0.510834C1.3746-0.17647 1.85757 0.195046 2.72135 0.195046 3.91949 0.195046 5.01546-0.965938 5.01546-2.12692 5.01546-2.51701 4.92258-2.86067 4.56964-3.20431 4.37459-3.39937 4.20741-3.44581 3.35293-3.66871 2.73063-3.83589 2.64705-3.86376 2.47987-4.01236 2.32197-4.17026 2.20122-4.39317 2.20122-4.70896 2.20122-5.48914 2.99069-6.2879 3.87305-6.2879 4.78326-6.2879 5.2105-5.73062 5.2105-4.84828 5.2105-4.60679 5.16406-4.35601 5.16406-4.31886 5.16406-4.23528 5.23836-4.23528 5.26622-4.23528 5.34982-4.23528 5.3591-4.26314 5.39626-4.41174L5.8978-6.45508Z" transform="matrix(1.0001 0 0 1 526.187 164.768)"/><path d="M3.065-1.77088C3.15169-1.81423 3.18265-1.82662 3.18265-1.88234 3.18265-1.91949 3.1455-1.96284 3.09596-1.96284 3.08358-1.96284 2.91639-1.93188 2.82351-1.9133L1.87615-1.72755 1.73993-2.86686C1.72755-2.96593 1.70897-3.02785 1.64086-3.02785 1.56656-3.02785 1.56037-2.97831 1.54798-2.86686L1.41177-1.72755 0.272444-1.95046 0.185757-1.96284C0.136222-1.96284 0.0990705-1.91949 0.0990705-1.88234 0.0990705-1.82042 0.148607-1.79565 0.210526-1.77088L1.26934-1.28792 0.780179-0.414859C0.736839-0.334363 0.656344-0.185757 0.656344-0.167182 0.656344-0.13003 0.681111-0.0804946 0.74303-0.0804946 0.755414-0.0804946 0.77399-0.0804946 0.811138-0.111454 0.86068-0.16099 0.978326-0.297212 1.02786-0.346748L1.64086-1.00928 2.32197-0.278637C2.34674-0.247676 2.41485-0.173374 2.44581-0.148607 2.50773-0.0866872 2.51392-0.0804946 2.5387-0.0804946 2.60061-0.0804946 2.62538-0.13003 2.62538-0.167182 2.62538-0.210526 2.08668-1.15789 2.01238-1.28172L3.065-1.77088Z" transform="matrix(1.0001 0 0 1 531.761 166.161)"/><path d="M6.12072-2.13621C6.2786-2.13621 6.44579-2.13621 6.44579-2.32197 6.44579-2.50772 6.2786-2.50773 6.12072-2.50773L1.09597-2.50773C0.938074-2.50773 0.770895-2.50773 0.770895-2.32197 0.770895-2.1362 0.938074-2.13621 1.09597-2.13621L6.12072-2.13621Z" transform="matrix(1.0001 0 0 1 544.7 158.398)"/><path d="M2.67491-5.95353C2.67491-6.16715 2.67491-6.17645 2.48915-6.17645 2.26624-5.92567 1.80185-5.58202 0.845197-5.58202L0.845197-5.31267C1.05882-5.31267 1.52321-5.31267 2.03405-5.55416L2.03405-0.715167C2.03405-0.380803 2.00619-0.269349 1.18885-0.269349L0.900924-0.269349 0.900924 0C1.1517-0.0185757 2.05262-0.0185757 2.35912-0.0185757 2.66562-0.0185757 3.55726-0.0185757 3.80803 0L3.80803-0.269349 3.52011-0.269349C2.70277-0.269349 2.67491-0.380803 2.67491-0.715167L2.67491-5.95353Z" transform="matrix(1.0001 0 0 1 553.962 158.398)"/><path d="M4.89471 10.7739C4.89471 7.1238 4.0588 3.44581 1.69969 0.668727 1.51392 0.455106 1.16099 0.074303 0.780179-0.260061 0.668727-0.371516 0.650152-0.371516 0.520121-0.371516 0.408667-0.371516 0.325076-0.371516 0.325076-0.278637 0.325076-0.241485 0.362228-0.204333 0.380803-0.185757 0.705879 0.148607 1.32817 0.770895 1.95046 1.77399 3.44581 4.17026 4.12381 7.18882 4.12381 10.7646 4.12381 13.2631 3.78946 16.486 2.25696 19.2538 1.52321 20.5727 0.752319 21.3436 0.362228 21.7337 0.343651 21.7616 0.325076 21.7894 0.325076 21.8173 0.325076 21.9101 0.408667 21.9101 0.520121 21.9101 0.650152 21.9101 0.668727 21.9101 0.808046 21.7707 3.91949 18.938 4.89471 14.6842 4.89471 10.7739Z" transform="matrix(1.0001 0 0 1 558.493 145.301)"/><path d="M6.12072-2.13621C6.2786-2.13621 6.44579-2.13621 6.44579-2.32197 6.44579-2.50772 6.2786-2.50773 6.12072-2.50773L1.09597-2.50773C0.938074-2.50773 0.770895-2.50773 0.770895-2.32197 0.770895-2.1362 0.938074-2.13621 1.09597-2.13621L6.12072-2.13621Z" transform="matrix(1.0001 0 0 1 567.438 158.398)"/><path d="M1.59751-6.44579 0.3065-6.34362 0.3065-6.07428C0.938074-6.07428 1.01238-6.00926 1.01238-5.55416L1.01238-0.687303C1.01238-0.269349 0.910215-0.269349 0.3065-0.269349L0.3065 0C0.56656-0.0185757 1.02167-0.0185757 1.3003-0.0185757 1.57894-0.0185757 2.04333-0.0185757 2.30339 0L2.30339-0.269349C1.70897-0.269349 1.59751-0.269349 1.59751-0.687303L1.59751-6.44579Z" transform="matrix(1.0001 0 0 1 576.7 158.398)"/><path d="M4.13311-2.25696C4.13311-3.12073 4.13311-3.38079 3.91949-3.678 3.65013-4.04023 3.21361-4.09596 2.89781-4.09596 1.99689-4.09596 1.64395-3.32506 1.56965-3.13931L1.56037-3.13931 1.56037-4.09596 0.297212-3.99379 0.297212-3.72444C0.92879-3.72444 1.00309-3.65943 1.00309-3.20431L1.00309-0.687303C1.00309-0.269349 0.900924-0.269349 0.297212-0.269349L0.297212 0C0.538698-0.0185757 1.04024-0.0185757 1.3003-0.0185757 1.56965-0.0185757 2.07119-0.0185757 2.31269 0L2.31269-0.269349C1.71827-0.269349 1.6068-0.269349 1.6068-0.687303L1.6068-2.41485C1.6068-3.39008 2.24767-3.9102 2.82351-3.9102 3.39937-3.9102 3.52939-3.43651 3.52939-2.86996L3.52939-0.687303C3.52939-0.269349 3.42723-0.269349 2.82351-0.269349L2.82351 0C3.065-0.0185757 3.56655-0.0185757 3.82661-0.0185757 4.09596-0.0185757 4.5975-0.0185757 4.83898 0L4.83898-0.269349C4.37459-0.269349 4.14239-0.269349 4.13311-0.547985L4.13311-2.25696Z" transform="matrix(1.0001 0 0 1 579.217 158.398)"/><path d="M6.50152 21.8173C6.50152 21.7801 6.48295 21.7616 6.46437 21.7337 6.12072 21.39 5.49842 20.7677 4.87614 19.7646 3.38079 17.3683 2.70277 14.3498 2.70277 10.7739 2.70277 8.27553 3.03713 5.0526 4.56964 2.28482 5.30338 0.965938 6.06498 0.204333 6.47365-0.204333 6.50152-0.232197 6.50152-0.250773 6.50152-0.278637 6.50152-0.371516 6.4365-0.371516 6.30647-0.371516 6.17645-0.371516 6.15787-0.371516 6.01855-0.232197 2.90711 2.60061 1.93188 6.85446 1.93188 10.7646 1.93188 14.4148 2.76779 18.0928 5.12691 20.8699 5.31267 21.0835 5.6656 21.4643 6.0464 21.7986 6.15787 21.9101 6.17645 21.9101 6.30647 21.9101 6.4365 21.9101 6.50152 21.9101 6.50152 21.8173Z" transform="matrix(1.0001 0 0 1 585.828 145.301)"/><path d="M5.8978-6.45508C5.8978-6.53867 5.83279-6.53867 5.81422-6.53867 5.77706-6.53867 5.76778-6.52938 5.65632-6.39007 5.6006-6.32505 5.21979-5.84208 5.2105-5.83279 4.904-6.4365 4.291-6.53867 3.90091-6.53867 2.72135-6.53867 1.65324-5.46128 1.65324-4.41174 1.65324-3.71516 2.07119-3.30649 2.52631-3.14859 2.62847-3.11144 3.17646-2.96283 3.45509-2.89781 3.92878-2.76779 4.04951-2.73063 4.24456-2.52631 4.28171-2.47987 4.46748-2.26624 4.46748-1.82971 4.46748-0.965938 3.66871-0.074303 2.73992-0.074303 1.97832-0.074303 1.13312-0.399379 1.13312-1.43962 1.13312-1.61609 1.17027-1.839 1.19814-1.93188 1.19814-1.95974 1.20742-2.00619 1.20742-2.02476 1.20742-2.06191 1.18885-2.10835 1.11454-2.10835 1.03096-2.10835 1.02167-2.08977 0.984516-1.93188L0.510834-0.0278637C0.510834-0.0185757 0.473682 0.102167 0.473682 0.111454 0.473682 0.195046 0.547985 0.195046 0.56656 0.195046 0.603712 0.195046 0.613 0.185757 0.724455 0.0464394L1.1517-0.510834C1.3746-0.17647 1.85757 0.195046 2.72135 0.195046 3.91949 0.195046 5.01546-0.965938 5.01546-2.12692 5.01546-2.51701 4.92258-2.86067 4.56964-3.20431 4.37459-3.39937 4.20741-3.44581 3.35293-3.66871 2.73063-3.83589 2.64705-3.86376 2.47987-4.01236 2.32197-4.17026 2.20122-4.39317 2.20122-4.70896 2.20122-5.48914 2.99069-6.2879 3.87305-6.2879 4.78326-6.2879 5.2105-5.73062 5.2105-4.84828 5.2105-4.60679 5.16406-4.35601 5.16406-4.31886 5.16406-4.23528 5.23836-4.23528 5.26622-4.23528 5.34982-4.23528 5.3591-4.26314 5.39626-4.41174L5.8978-6.45508Z" transform="matrix(1.0001 0 0 1 593.594 152.114)"/><path d="M3.065-1.77088C3.15169-1.81423 3.18265-1.82662 3.18265-1.88234 3.18265-1.91949 3.1455-1.96284 3.09596-1.96284 3.08358-1.96284 2.91639-1.93188 2.82351-1.9133L1.87615-1.72755 1.73993-2.86686C1.72755-2.96593 1.70897-3.02785 1.64086-3.02785 1.56656-3.02785 1.56037-2.97831 1.54798-2.86686L1.41177-1.72755 0.272444-1.95046 0.185757-1.96284C0.136222-1.96284 0.0990705-1.91949 0.0990705-1.88234 0.0990705-1.82042 0.148607-1.79565 0.210526-1.77088L1.26934-1.28792 0.780179-0.414859C0.736839-0.334363 0.656344-0.185757 0.656344-0.167182 0.656344-0.13003 0.681111-0.0804946 0.74303-0.0804946 0.755414-0.0804946 0.77399-0.0804946 0.811138-0.111454 0.86068-0.16099 0.978326-0.297212 1.02786-0.346748L1.64086-1.00928 2.32197-0.278637C2.34674-0.247676 2.41485-0.173374 2.44581-0.148607 2.50773-0.0866872 2.51392-0.0804946 2.5387-0.0804946 2.60061-0.0804946 2.62538-0.13003 2.62538-0.167182 2.62538-0.210526 2.08668-1.15789 2.01238-1.28172L3.065-1.77088Z" transform="matrix(1.0001 0 0 1 599.167 153.507)"/><path d="M247.462 72.5225 256.732 72.5225 256.732 72.8939 247.462 72.8939Z" transform="matrix(1.0001 0 0 1 346.108 83.3672)"/><path d="M5.8978-6.45508C5.8978-6.53867 5.83279-6.53867 5.81422-6.53867 5.77706-6.53867 5.76778-6.52938 5.65632-6.39007 5.6006-6.32505 5.21979-5.84208 5.2105-5.83279 4.904-6.4365 4.291-6.53867 3.90091-6.53867 2.72135-6.53867 1.65324-5.46128 1.65324-4.41174 1.65324-3.71516 2.07119-3.30649 2.52631-3.14859 2.62847-3.11144 3.17646-2.96283 3.45509-2.89781 3.92878-2.76779 4.04951-2.73063 4.24456-2.52631 4.28171-2.47987 4.46748-2.26624 4.46748-1.82971 4.46748-0.965938 3.66871-0.074303 2.73992-0.074303 1.97832-0.074303 1.13312-0.399379 1.13312-1.43962 1.13312-1.61609 1.17027-1.839 1.19814-1.93188 1.19814-1.95974 1.20742-2.00619 1.20742-2.02476 1.20742-2.06191 1.18885-2.10835 1.11454-2.10835 1.03096-2.10835 1.02167-2.08977 0.984516-1.93188L0.510834-0.0278637C0.510834-0.0185757 0.473682 0.102167 0.473682 0.111454 0.473682 0.195046 0.547985 0.195046 0.56656 0.195046 0.603712 0.195046 0.613 0.185757 0.724455 0.0464394L1.1517-0.510834C1.3746-0.17647 1.85757 0.195046 2.72135 0.195046 3.91949 0.195046 5.01546-0.965938 5.01546-2.12692 5.01546-2.51701 4.92258-2.86067 4.56964-3.20431 4.37459-3.39937 4.20741-3.44581 3.35293-3.66871 2.73063-3.83589 2.64705-3.86376 2.47987-4.01236 2.32197-4.17026 2.20122-4.39317 2.20122-4.70896 2.20122-5.48914 2.99069-6.2879 3.87305-6.2879 4.78326-6.2879 5.2105-5.73062 5.2105-4.84828 5.2105-4.60679 5.16406-4.35601 5.16406-4.31886 5.16406-4.23528 5.23836-4.23528 5.26622-4.23528 5.34982-4.23528 5.3591-4.26314 5.39626-4.41174L5.8978-6.45508Z" transform="matrix(1.0001 0 0 1 593.594 164.768)"/><path d="M3.02785-1.97523C3.02785-2.63776 2.95974-3.04024 2.7554-3.43651 2.48295-3.98141 1.98142-4.11762 1.64086-4.11762 0.86068-4.11762 0.575848-3.53558 0.489162-3.36221 0.266253-2.9102 0.25387-2.2972 0.25387-1.97523 0.25387-1.56656 0.272444-0.941174 0.569657-0.445818 0.854489 0.0123839 1.31269 0.13003 1.64086 0.13003 1.93808 0.13003 2.47057 0.0371516 2.78017-0.575848 3.00927-1.02167 3.02785-1.57275 3.02785-1.97523ZM1.64086-0.0433435C1.43033-0.0433435 1.00309-0.142414 0.873065-0.792562 0.804946-1.14551 0.804946-1.72755 0.804946-2.04953 0.804946-2.47676 0.804946-2.9102 0.873065-3.25076 1.00309-3.88233 1.48607-3.94425 1.64086-3.94425 1.85139-3.94425 2.27863-3.83899 2.40246-3.27553 2.47676-2.93497 2.47676-2.47057 2.47676-2.04953 2.47676-1.6842 2.47676-1.12693 2.40246-0.780179 2.27244-0.13003 1.84519-0.0433435 1.64086-0.0433435Z" transform="matrix(1.0001 0 0 1 599.167 166.161)"/><path d="M4.89471 10.7739C4.89471 7.1238 4.0588 3.44581 1.69969 0.668727 1.51392 0.455106 1.16099 0.074303 0.780179-0.260061 0.668727-0.371516 0.650152-0.371516 0.520121-0.371516 0.408667-0.371516 0.325076-0.371516 0.325076-0.278637 0.325076-0.241485 0.362228-0.204333 0.380803-0.185757 0.705879 0.148607 1.32817 0.770895 1.95046 1.77399 3.44581 4.17026 4.12381 7.18882 4.12381 10.7646 4.12381 13.2631 3.78946 16.486 2.25696 19.2538 1.52321 20.5727 0.752319 21.3436 0.362228 21.7337 0.343651 21.7616 0.325076 21.7894 0.325076 21.8173 0.325076 21.9101 0.408667 21.9101 0.520121 21.9101 0.650152 21.9101 0.668727 21.9101 0.808046 21.7707 3.91949 18.938 4.89471 14.6842 4.89471 10.7739Z" transform="matrix(1.0001 0 0 1 603.794 145.301)"/><path d="M3.70587-2.1455 6.26932-2.1455C6.39935-2.1455 6.56653-2.1455 6.56653-2.31269 6.56653-2.48915 6.40864-2.48915 6.26932-2.48915L3.70587-2.48915 3.70587-5.0526C3.70587-5.18264 3.70587-5.34982 3.53868-5.34982 3.36221-5.34982 3.36221-5.19192 3.36221-5.0526L3.36221-2.48915 0.798755-2.48915C0.668727-2.48915 0.501546-2.48915 0.501546-2.32197 0.501546-2.1455 0.65944-2.1455 0.798755-2.1455L3.36221-2.1455 3.36221 0.417955C3.36221 0.547985 3.36221 0.715167 3.52939 0.715167 3.70587 0.715167 3.70587 0.557272 3.70587 0.417955L3.70587-2.1455Z" transform="matrix(1.0001 0 0 1 475.533 184.739)"/><path d="M1.66253-2.15479C1.9133-2.15479 2.54488-2.17337 2.99069-2.34055 3.69658-2.60989 3.76159-3.14859 3.76159-3.31578 3.76159-3.72444 3.40866-4.09596 2.79566-4.09596 1.82042-4.09596 0.417955-3.21361 0.417955-1.56037 0.417955-0.585137 0.975222 0.092879 1.82042 0.092879 3.08358 0.092879 3.88233-0.891639 3.88233-1.01238 3.88233-1.0681 3.82661-1.11454 3.78946-1.11454 3.76159-1.11454 3.75231-1.10527 3.66871-1.02167 3.07429-0.232197 2.19194-0.092879 1.839-0.092879 1.30959-0.092879 1.03096-0.510834 1.03096-1.19814 1.03096-1.32817 1.03096-1.56037 1.17027-2.15479L1.66253-2.15479ZM1.21671-2.34055C1.61609-3.77088 2.49844-3.9102 2.79566-3.9102 3.20431-3.9102 3.48296-3.66871 3.48296-3.31578 3.48296-2.34055 1.99689-2.34055 1.6068-2.34055L1.21671-2.34055Z" transform="matrix(1.0001 0 0 1 484.644 184.739)"/><path d="M1.19504-0.854489C1.26315-1.12074 1.33126-1.387 1.39319-1.65944 1.39938-1.67182 1.44272-1.85139 1.44891-1.88234 1.46749-1.93808 1.62228-2.19194 1.78327-2.34674 1.98142-2.52631 2.19194-2.55726 2.30339-2.55726 2.37151-2.55726 2.48295-2.55107 2.56965-2.47676 2.30339-2.42104 2.26624-2.19194 2.26624-2.13621 2.26624-2 2.37151-1.90711 2.50773-1.90711 2.67491-1.90711 2.86067-2.04333 2.86067-2.29101 2.86067-2.51392 2.66872-2.73063 2.31578-2.73063 1.89472-2.73063 1.6099-2.452 1.47987-2.28482 1.35602-2.73063 0.934982-2.73063 0.873065-2.73063 0.650152-2.73063 0.495354-2.58823 0.396283-2.39627 0.25387-2.11763 0.185757-1.80185 0.185757-1.78327 0.185757-1.72755 0.229101-1.70278 0.278637-1.70278 0.359131-1.70278 0.365324-1.72755 0.408667-1.88853 0.48297-2.19194 0.594425-2.55726 0.854489-2.55726 1.01547-2.55726 1.05263-2.40246 1.05263-2.26624 1.05263-2.15479 1.02167-2.03714 0.972137-1.83281 0.959749-1.78327 0.866872-1.41796 0.842105-1.33126L0.613-0.402474C0.588233-0.309596 0.551081-0.154798 0.551081-0.13003 0.551081 0.0123839 0.668727 0.0619192 0.749223 0.0619192 0.965938 0.0619192 1.00928-0.111454 1.05882-0.32198L1.19504-0.854489Z" transform="matrix(1.0001 0 0 1 488.844 180.905)"/><path d="M2.79875-3.74612C2.85448-3.96902 2.86067-3.98141 3.11454-3.98141L3.58511-3.98141C4.22909-3.98141 4.30339-3.77707 4.30339-3.46748 4.30339-3.31268 4.26624-3.04643 4.26005-3.01546 4.24766-2.94735 4.24147-2.89162 4.24147-2.87925 4.24147-2.79875 4.29719-2.78017 4.33435-2.78017 4.40246-2.78017 4.42723-2.81732 4.44579-2.93497L4.61298-4.09905C4.61298-4.18574 4.53867-4.18574 4.42723-4.18574L0.780179-4.18574C0.625383-4.18574 0.613-4.18574 0.569657-4.05571L0.191949-2.9845C0.179565-2.95355 0.16099-2.90401 0.16099-2.86686 0.16099-2.81732 0.204333-2.78017 0.25387-2.78017 0.32198-2.78017 0.334363-2.81113 0.371516-2.91639 0.724455-3.9071 0.904023-3.98141 1.84519-3.98141L2.08668-3.98141C2.27244-3.98141 2.27863-3.97521 2.27863-3.92567 2.27863-3.9071 2.25386-3.78326 2.24767-3.75849L1.43033-0.507737C1.3746-0.272444 1.35602-0.204333 0.712071-0.204333 0.513929-0.204333 0.45201-0.204333 0.45201-0.0866872 0.45201-0.0804946 0.45201 0 0.557272 0 0.724455 0 1.1517-0.0185757 1.31888-0.0185757L1.84519-0.0185757C2.01857-0.0185757 2.452 0 2.62538 0 2.67491 0 2.76779 0 2.76779-0.117646 2.76779-0.204333 2.69968-0.204333 2.5325-0.204333 2.38388-0.204333 2.33435-0.204333 2.17337-0.216717 1.97523-0.235293 1.95046-0.260061 1.95046-0.340556 1.95046-0.365324 1.95665-0.390091 1.97523-0.45201L2.79875-3.74612Z" transform="matrix(1.0001 0 0 1 491.985 180.905)"/><path d="M0.965938 20.2198C1.26315 20.2011 1.42105 19.9968 1.42105 19.7646 1.42105 19.4581 1.18885 19.3095 0.975222 19.3095 0.752319 19.3095 0.520121 19.4489 0.520121 19.7739 0.520121 20.2476 0.984516 20.6376 1.55108 20.6376 2.96283 20.6376 3.49224 18.4643 4.15168 15.7708 4.86686 12.8358 5.47056 9.87295 5.9721 6.8916 6.31576 4.91329 6.65941 3.05571 6.9752 1.85757 7.08665 1.40247 7.40245 0.204333 7.76467 0.204333 8.05257 0.204333 8.28478 0.380803 8.32192 0.417955 8.01544 0.43653 7.85757 0.640864 7.85757 0.873065 7.85757 1.17957 8.08978 1.32817 8.30335 1.32817 8.52624 1.32817 8.75845 1.18885 8.75845 0.863773 8.75845 0.362228 8.25689 0 7.74609 0 7.04021 0 6.52009 1.01238 6.00926 2.90711 5.9814 3.00927 4.71824 7.67179 3.69658 13.746 3.45509 15.1671 3.18575 16.7182 2.87925 18.0092 2.71207 18.6872 2.28482 20.4333 1.5325 20.4333 1.19814 20.4333 0.975222 20.2198 0.965938 20.2198Z" transform="matrix(1.0001 0 0 1 498.676 172.097)"/><path d="M4.15478-4.19193C4.16098-4.2167 4.17336-4.25386 4.17336-4.28481 4.17336-4.32816 4.1362-4.35911 4.09286-4.35911 4.04951-4.35911 4.03713-4.34673 3.96902-4.27242 3.90091-4.19193 3.73993-3.99379 3.67181-3.91949 3.43032-4.27242 3.04024-4.35911 2.72444-4.35911 1.86376-4.35911 1.12693-3.63466 1.12693-2.92878 1.12693-2.56965 1.31888-2.35912 1.34983-2.31578 1.55417-2.09907 1.73374-2.04953 2.17956-1.94426 2.39627-1.88853 2.40865-1.88853 2.58823-1.84519 2.7678-1.80185 3.16407-1.70278 3.16407-1.18885 3.16407-0.650152 2.63157-0.074303 1.98142-0.074303 1.57894-0.074303 0.842105-0.198142 0.842105-0.965938 0.842105-0.984516 0.842105-1.11454 0.879256-1.26315L0.885448-1.32507C0.885448-1.39938 0.817329-1.40557 0.792562-1.40557 0.712071-1.40557 0.705879-1.38079 0.674919-1.23839L0.421051-0.229101C0.396283-0.136222 0.352939 0.0309596 0.352939 0.0495354 0.352939 0.0990705 0.390091 0.13003 0.433435 0.13003 0.476779 0.13003 0.48297 0.123839 0.551081 0.0433435L0.848297-0.303404C0.990705-0.117646 1.34364 0.13003 1.96903 0.13003 2.86686 0.13003 3.6037-0.681111 3.6037-1.42414 3.6037-1.70897 3.51081-1.93188 3.34363-2.10526 3.15788-2.30958 2.95355-2.35912 2.66253-2.43342 2.48295-2.47676 2.24147-2.5325 2.09907-2.56965 1.9133-2.613 1.56656-2.73683 1.56656-3.17026 1.56656-3.65324 2.08668-4.17336 2.71825-4.17336 3.27553-4.17336 3.65943-3.88233 3.65943-3.21361 3.65943-3.065 3.63466-2.93497 3.63466-2.9102 3.63466-2.8359 3.69039-2.82351 3.73373-2.82351 3.80803-2.82351 3.81423-2.84828 3.83899-2.94735L4.15478-4.19193Z" transform="matrix(1.0001 0 0 1 507.964 174.548)"/><path d="M1.43033-0.691947C1.43962-0.701235 1.46749-0.733742 1.48142-0.733742 1.49999-0.733742 1.77399-0.431886 1.81579-0.385447 1.90867-0.283281 2.00154-0.181114 2.09907-0.0835913 2.12229-0.0650152 2.13621-0.0464394 2.16407-0.0464394 2.20122-0.0464394 2.23373-0.078947 2.23373-0.116099 2.23373-0.143962 2.05262-0.464394 1.99225-0.575848 1.86687-0.78947 1.86687-0.798755 1.78327-0.956654L2.56346-1.32352C2.62847-1.35602 2.65169-1.37925 2.65169-1.41177 2.65169-1.43498 2.63776-1.48142 2.57739-1.48142 2.54023-1.48142 2.07119-1.38854 1.99689-1.36997L1.66717-1.30959 1.56037-2.16407C1.55108-2.22909 1.54179-2.28482 1.48142-2.28482 1.4164-2.28482 1.40711-2.21051 1.40247-2.16407L1.29567-1.30959 0.385447-1.48142C0.325076-1.48142 0.311143-1.43498 0.311143-1.41177 0.311143-1.37925 0.339008-1.35139 0.390091-1.32817L1.17957-0.956654C1.09597-0.798755 1.09597-0.78947 0.975222-0.575848 0.891639-0.431886 0.729099-0.143962 0.729099-0.116099 0.729099-0.078947 0.761607-0.0464394 0.798755-0.0464394 0.817329-0.0464394 0.835913-0.0510834 0.882348-0.102167L1.43033-0.691947Z" transform="matrix(1.0001 0 0 1 511.951 175.322)"/><path d="M3.02785-1.97523C3.02785-2.63776 2.95974-3.04024 2.7554-3.43651 2.48295-3.98141 1.98142-4.11762 1.64086-4.11762 0.86068-4.11762 0.575848-3.53558 0.489162-3.36221 0.266253-2.9102 0.25387-2.2972 0.25387-1.97523 0.25387-1.56656 0.272444-0.941174 0.569657-0.445818 0.854489 0.0123839 1.31269 0.13003 1.64086 0.13003 1.93808 0.13003 2.47057 0.0371516 2.78017-0.575848 3.00927-1.02167 3.02785-1.57275 3.02785-1.97523ZM1.64086-0.0433435C1.43033-0.0433435 1.00309-0.142414 0.873065-0.792562 0.804946-1.14551 0.804946-1.72755 0.804946-2.04953 0.804946-2.47676 0.804946-2.9102 0.873065-3.25076 1.00309-3.88233 1.48607-3.94425 1.64086-3.94425 1.85139-3.94425 2.27863-3.83899 2.40246-3.27553 2.47676-2.93497 2.47676-2.47057 2.47676-2.04953 2.47676-1.6842 2.47676-1.12693 2.40246-0.780179 2.27244-0.13003 1.84519-0.0433435 1.64086-0.0433435Z" transform="matrix(1.0001 0 0 1 503.836 193.124)"/><path d="M2.67491-5.95353C2.67491-6.16715 2.67491-6.17645 2.48915-6.17645 2.26624-5.92567 1.80185-5.58202 0.845197-5.58202L0.845197-5.31267C1.05882-5.31267 1.52321-5.31267 2.03405-5.55416L2.03405-0.715167C2.03405-0.380803 2.00619-0.269349 1.18885-0.269349L0.900924-0.269349 0.900924 0C1.1517-0.0185757 2.05262-0.0185757 2.35912-0.0185757 2.66562-0.0185757 3.55726-0.0185757 3.80803 0L3.80803-0.269349 3.52011-0.269349C2.70277-0.269349 2.67491-0.380803 2.67491-0.715167L2.67491-5.95353Z" transform="matrix(1.0001 0 0 1 521.951 178.456)"/><path d="M172.06 98.8642 184.139 98.8642 184.139 99.2358 172.06 99.2358Z" transform="matrix(1.0001 0 0 1 346.108 83.3672)"/><path d="M4.64394-3.75231C4.63466-3.78017 4.5975-3.85447 4.5975-3.88233 4.5975-3.89162 4.60679-3.90091 4.76468-4.02166L5.6656-4.72753C6.91019-5.69347 7.31885-6.01855 7.95973-6.07428 8.02476-6.08357 8.1176-6.08357 8.1176-6.24146 8.1176-6.29718 8.08978-6.34362 8.01544-6.34362 7.91327-6.34362 7.80179-6.32505 7.69965-6.32505L7.34671-6.32505C7.05879-6.32505 6.75229-6.34362 6.47365-6.34362 6.40864-6.34362 6.29718-6.34362 6.29718-6.17645 6.29718-6.08357 6.3622-6.07428 6.41792-6.07428 6.52009-6.06498 6.64083-6.02784 6.64083-5.8978 6.64083-5.71205 6.3622-5.48914 6.2879-5.43341L2.64705-2.60061 3.41793-5.6656C3.50153-5.9814 3.52011-6.07428 4.17955-6.07428 4.35601-6.07428 4.43961-6.07428 4.43961-6.25075 4.43961-6.34362 4.34673-6.34362 4.30029-6.34362 4.13311-6.34362 3.93806-6.32505 3.76159-6.32505L2.66562-6.32505C2.49844-6.32505 2.29411-6.34362 2.12692-6.34362 2.05262-6.34362 1.95046-6.34362 1.95046-6.16715 1.95046-6.07428 2.03405-6.07428 2.17337-6.07428 2.73992-6.07428 2.73992-5.99997 2.73992-5.8978 2.73992-5.87922 2.73992-5.8235 2.70277-5.68418L1.44891-0.687303C1.36532-0.362228 1.34674-0.269349 0.696591-0.269349 0.520121-0.269349 0.427242-0.269349 0.427242-0.102167 0.427242 0 0.510834 0 0.56656 0 0.74303 0 0.92879-0.0185757 1.10527-0.0185757L2.19194-0.0185757C2.36841-0.0185757 2.56346 0 2.73992 0 2.81423 0 2.91639 0 2.91639-0.17647 2.91639-0.269349 2.83281-0.269349 2.69349-0.269349 2.12692-0.269349 2.12692-0.343651 2.12692-0.43653 2.12692-0.501546 2.18265-0.733742 2.21981-0.882348L2.58203-2.32197 3.99379-3.42723C4.26314-2.83281 4.7554-1.64395 5.1362-0.733742 5.16406-0.678015 5.18264-0.622288 5.18264-0.557272 5.18264-0.278637 4.81112-0.269349 4.72753-0.269349 4.64394-0.269349 4.55106-0.269349 4.55106-0.092879 4.55106 0 4.65323 0 4.68109 0 5.00617 0 5.34982-0.0185757 5.6749-0.0185757L6.12072-0.0185757C6.26003-0.0185757 6.41792 0 6.55725 0 6.61297 0 6.71514 0 6.71514-0.17647 6.71514-0.269349 6.63155-0.269349 6.53867-0.269349 6.19502-0.278637 6.07428-0.352939 5.93496-0.687303L4.64394-3.75231Z" transform="matrix(1.0001 0 0 1 518.184 191.11)"/><path d="M1.74612-1.26315C1.84519-1.35602 2.10526-1.56037 2.20432-1.64705 2.58823-2 2.95355-2.34055 2.95355-2.90401 2.95355-3.64086 2.33435-4.11762 1.56037-4.11762 0.817329-4.11762 0.328172-3.55416 0.328172-3.00308 0.328172-2.69968 0.569657-2.65633 0.656344-2.65633 0.786371-2.65633 0.978326-2.74921 0.978326-2.9845 0.978326-3.30649 0.668727-3.30649 0.594425-3.30649 0.77399-3.75849 1.18885-3.9133 1.49226-3.9133 2.0681-3.9133 2.36532-3.42413 2.36532-2.90401 2.36532-2.26005 1.9133-1.78946 1.18265-1.04024L0.402474-0.235293C0.328172-0.167182 0.328172-0.154798 0.328172 0L2.77398 0 2.95355-1.10835 2.7616-1.10835C2.74302-0.984516 2.69349-0.674919 2.61919-0.557272 2.58203-0.507737 2.11145-0.507737 2.01238-0.507737L0.910215-0.507737 1.74612-1.26315Z" transform="matrix(1.0001 0 0 1 526.56 188.428)"/><path d="M2.74921-2.95355 4.30958-2.95355C5.5913-2.95355 6.87303-3.90091 6.87303-4.95972 6.87303-5.68418 6.26003-6.34362 5.08976-6.34362L2.21981-6.34362C2.04333-6.34362 1.95974-6.34362 1.95974-6.16715 1.95974-6.07428 2.04333-6.07428 2.18265-6.07428 2.74921-6.07428 2.74921-5.99997 2.74921-5.8978 2.74921-5.87922 2.74921-5.8235 2.71207-5.68418L1.4582-0.687303C1.3746-0.362228 1.35602-0.269349 0.705879-0.269349 0.52941-0.269349 0.43653-0.269349 0.43653-0.102167 0.43653 0 0.520121 0 0.575848 0 0.752319 0 0.938074-0.0185757 1.11454-0.0185757L2.20122-0.0185757C2.37769-0.0185757 2.57275 0 2.74921 0 2.82351 0 2.92569 0 2.92569-0.17647 2.92569-0.269349 2.84209-0.269349 2.70277-0.269349 2.1455-0.269349 2.13621-0.334363 2.13621-0.427242 2.13621-0.473682 2.1455-0.538698 2.15479-0.585137L2.74921-2.95355ZM3.41793-5.71205C3.50153-6.0557 3.53868-6.07428 3.90091-6.07428L4.82041-6.07428C5.517-6.07428 6.09285-5.85137 6.09285-5.15478 6.09285-4.91329 5.9721-4.12381 5.54487-3.69658 5.38697-3.52939 4.94116-3.17646 4.09596-3.17646L2.78637-3.17646 3.41793-5.71205Z" transform="matrix(1.0001 0 0 1 531.195 184.739)"/><path d="M3.02785-1.97523C3.02785-2.63776 2.95974-3.04024 2.7554-3.43651 2.48295-3.98141 1.98142-4.11762 1.64086-4.11762 0.86068-4.11762 0.575848-3.53558 0.489162-3.36221 0.266253-2.9102 0.25387-2.2972 0.25387-1.97523 0.25387-1.56656 0.272444-0.941174 0.569657-0.445818 0.854489 0.0123839 1.31269 0.13003 1.64086 0.13003 1.93808 0.13003 2.47057 0.0371516 2.78017-0.575848 3.00927-1.02167 3.02785-1.57275 3.02785-1.97523ZM1.64086-0.0433435C1.43033-0.0433435 1.00309-0.142414 0.873065-0.792562 0.804946-1.14551 0.804946-1.72755 0.804946-2.04953 0.804946-2.47676 0.804946-2.9102 0.873065-3.25076 1.00309-3.88233 1.48607-3.94425 1.64086-3.94425 1.85139-3.94425 2.27863-3.83899 2.40246-3.27553 2.47676-2.93497 2.47676-2.47057 2.47676-2.04953 2.47676-1.6842 2.47676-1.12693 2.40246-0.780179 2.27244-0.13003 1.84519-0.0433435 1.64086-0.0433435Z" transform="matrix(1.0001 0 0 1 537.035 186.132)"/><path d="M3.01856 2.25696C3.01856 2.22909 3.01856 2.21051 2.86067 2.05262 1.93188 1.11454 1.41177-0.417955 1.41177-2.31269 1.41177-4.11453 1.84829-5.6656 2.92569-6.76158 3.01856-6.84517 3.01856-6.86375 3.01856-6.8916 3.01856-6.94733 2.97212-6.96591 2.93497-6.96591 2.81423-6.96591 2.05262-6.29718 1.59751-5.38697 1.12383-4.4489 0.910215-3.45509 0.910215-2.31269 0.910215-1.48607 1.04024-0.380803 1.52321 0.613 2.07119 1.72755 2.83281 2.33126 2.93497 2.33126 2.97212 2.33126 3.01856 2.31269 3.01856 2.25696Z" transform="matrix(1.0001 0 0 1 540.712 184.739)"/><path d="M4.64394-3.75231C4.63466-3.78017 4.5975-3.85447 4.5975-3.88233 4.5975-3.89162 4.60679-3.90091 4.76468-4.02166L5.6656-4.72753C6.91019-5.69347 7.31885-6.01855 7.95973-6.07428 8.02476-6.08357 8.1176-6.08357 8.1176-6.24146 8.1176-6.29718 8.08978-6.34362 8.01544-6.34362 7.91327-6.34362 7.80179-6.32505 7.69965-6.32505L7.34671-6.32505C7.05879-6.32505 6.75229-6.34362 6.47365-6.34362 6.40864-6.34362 6.29718-6.34362 6.29718-6.17645 6.29718-6.08357 6.3622-6.07428 6.41792-6.07428 6.52009-6.06498 6.64083-6.02784 6.64083-5.8978 6.64083-5.71205 6.3622-5.48914 6.2879-5.43341L2.64705-2.60061 3.41793-5.6656C3.50153-5.9814 3.52011-6.07428 4.17955-6.07428 4.35601-6.07428 4.43961-6.07428 4.43961-6.25075 4.43961-6.34362 4.34673-6.34362 4.30029-6.34362 4.13311-6.34362 3.93806-6.32505 3.76159-6.32505L2.66562-6.32505C2.49844-6.32505 2.29411-6.34362 2.12692-6.34362 2.05262-6.34362 1.95046-6.34362 1.95046-6.16715 1.95046-6.07428 2.03405-6.07428 2.17337-6.07428 2.73992-6.07428 2.73992-5.99997 2.73992-5.8978 2.73992-5.87922 2.73992-5.8235 2.70277-5.68418L1.44891-0.687303C1.36532-0.362228 1.34674-0.269349 0.696591-0.269349 0.520121-0.269349 0.427242-0.269349 0.427242-0.102167 0.427242 0 0.510834 0 0.56656 0 0.74303 0 0.92879-0.0185757 1.10527-0.0185757L2.19194-0.0185757C2.36841-0.0185757 2.56346 0 2.73992 0 2.81423 0 2.91639 0 2.91639-0.17647 2.91639-0.269349 2.83281-0.269349 2.69349-0.269349 2.12692-0.269349 2.12692-0.343651 2.12692-0.43653 2.12692-0.501546 2.18265-0.733742 2.21981-0.882348L2.58203-2.32197 3.99379-3.42723C4.26314-2.83281 4.7554-1.64395 5.1362-0.733742 5.16406-0.678015 5.18264-0.622288 5.18264-0.557272 5.18264-0.278637 4.81112-0.269349 4.72753-0.269349 4.64394-0.269349 4.55106-0.269349 4.55106-0.092879 4.55106 0 4.65323 0 4.68109 0 5.00617 0 5.34982-0.0185757 5.6749-0.0185757L6.12072-0.0185757C6.26003-0.0185757 6.41792 0 6.55725 0 6.61297 0 6.71514 0 6.71514-0.17647 6.71514-0.269349 6.63155-0.269349 6.53867-0.269349 6.19502-0.278637 6.07428-0.352939 5.93496-0.687303L4.64394-3.75231Z" transform="matrix(1.0001 0 0 1 544.236 184.739)"/><path d="M2.61919-2.31269C2.61919-3.01856 2.52631-4.17026 2.00619-5.24766 1.4582-6.3622 0.696591-6.96591 0.594425-6.96591 0.557272-6.96591 0.510834-6.94733 0.510834-6.8916 0.510834-6.86375 0.510834-6.84517 0.668727-6.68727 1.59751-5.7492 2.11763-4.2167 2.11763-2.32197 2.11763-0.520121 1.68111 1.03096 0.603712 2.12692 0.510834 2.21051 0.510834 2.22909 0.510834 2.25696 0.510834 2.31269 0.557272 2.33126 0.594425 2.33126 0.715167 2.33126 1.47677 1.66253 1.93188 0.752319 2.40557-0.195046 2.61919-1.19814 2.61919-2.31269Z" transform="matrix(1.0001 0 0 1 552.612 184.739)"/><path d="M4.6718-6.21359C4.68109-6.25075 4.69967-6.30647 4.69967-6.3529 4.69967-6.44579 4.60679-6.44579 4.58821-6.44579 4.57892-6.44579 4.12381-6.40864 4.07738-6.39935 3.91949-6.39007 3.78017-6.37149 3.61299-6.3622 3.38079-6.34362 3.31578-6.33434 3.31578-6.16715 3.31578-6.07428 3.39008-6.07428 3.52011-6.07428 3.97521-6.07428 3.9845-5.99068 3.9845-5.8978 3.9845-5.84208 3.96593-5.76778 3.95663-5.7399L3.39008-3.48296C3.28791-3.72444 3.03713-4.09596 2.55417-4.09596 1.50464-4.09596 0.371516-2.73992 0.371516-1.36532 0.371516-0.445818 0.910215 0.092879 1.54179 0.092879 2.05262 0.092879 2.48915-0.3065 2.74921-0.613 2.84209-0.0650152 3.27862 0.092879 3.55726 0.092879 3.8359 0.092879 4.0588-0.074303 4.22599-0.408667 4.37459-0.724455 4.50462-1.29102 4.50462-1.32817 4.50462-1.3746 4.46748-1.41177 4.41174-1.41177 4.32816-1.41177 4.31886-1.36532 4.28171-1.226 4.14239-0.678015 3.96593-0.092879 3.58511-0.092879 3.31578-0.092879 3.29719-0.334363 3.29719-0.520121 3.29719-0.557272 3.29719-0.752319 3.36221-1.01238L4.6718-6.21359ZM2.79566-1.10527C2.74921-0.947366 2.74921-0.92879 2.61919-0.752319 2.41485-0.492258 2.00619-0.092879 1.56965-0.092879 1.18885-0.092879 0.975222-0.43653 0.975222-0.984516 0.975222-1.49535 1.26315-2.53559 1.43962-2.92569 1.75541-3.57583 2.19194-3.9102 2.55417-3.9102 3.16717-3.9102 3.28791-3.14859 3.28791-3.07429 3.28791-3.065 3.26005-2.94426 3.25076-2.92569L2.79566-1.10527Z" transform="matrix(1.0001 0 0 1 556.135 184.739)"/><path d="M4.64394-3.75231C4.63466-3.78017 4.5975-3.85447 4.5975-3.88233 4.5975-3.89162 4.60679-3.90091 4.76468-4.02166L5.6656-4.72753C6.91019-5.69347 7.31885-6.01855 7.95973-6.07428 8.02476-6.08357 8.1176-6.08357 8.1176-6.24146 8.1176-6.29718 8.08978-6.34362 8.01544-6.34362 7.91327-6.34362 7.80179-6.32505 7.69965-6.32505L7.34671-6.32505C7.05879-6.32505 6.75229-6.34362 6.47365-6.34362 6.40864-6.34362 6.29718-6.34362 6.29718-6.17645 6.29718-6.08357 6.3622-6.07428 6.41792-6.07428 6.52009-6.06498 6.64083-6.02784 6.64083-5.8978 6.64083-5.71205 6.3622-5.48914 6.2879-5.43341L2.64705-2.60061 3.41793-5.6656C3.50153-5.9814 3.52011-6.07428 4.17955-6.07428 4.35601-6.07428 4.43961-6.07428 4.43961-6.25075 4.43961-6.34362 4.34673-6.34362 4.30029-6.34362 4.13311-6.34362 3.93806-6.32505 3.76159-6.32505L2.66562-6.32505C2.49844-6.32505 2.29411-6.34362 2.12692-6.34362 2.05262-6.34362 1.95046-6.34362 1.95046-6.16715 1.95046-6.07428 2.03405-6.07428 2.17337-6.07428 2.73992-6.07428 2.73992-5.99997 2.73992-5.8978 2.73992-5.87922 2.73992-5.8235 2.70277-5.68418L1.44891-0.687303C1.36532-0.362228 1.34674-0.269349 0.696591-0.269349 0.520121-0.269349 0.427242-0.269349 0.427242-0.102167 0.427242 0 0.510834 0 0.56656 0 0.74303 0 0.92879-0.0185757 1.10527-0.0185757L2.19194-0.0185757C2.36841-0.0185757 2.56346 0 2.73992 0 2.81423 0 2.91639 0 2.91639-0.17647 2.91639-0.269349 2.83281-0.269349 2.69349-0.269349 2.12692-0.269349 2.12692-0.343651 2.12692-0.43653 2.12692-0.501546 2.18265-0.733742 2.21981-0.882348L2.58203-2.32197 3.99379-3.42723C4.26314-2.83281 4.7554-1.64395 5.1362-0.733742 5.16406-0.678015 5.18264-0.622288 5.18264-0.557272 5.18264-0.278637 4.81112-0.269349 4.72753-0.269349 4.64394-0.269349 4.55106-0.269349 4.55106-0.092879 4.55106 0 4.65323 0 4.68109 0 5.00617 0 5.34982-0.0185757 5.6749-0.0185757L6.12072-0.0185757C6.26003-0.0185757 6.41792 0 6.55725 0 6.61297 0 6.71514 0 6.71514-0.17647 6.71514-0.269349 6.63155-0.269349 6.53867-0.269349 6.19502-0.278637 6.07428-0.352939 5.93496-0.687303L4.64394-3.75231Z" transform="matrix(1.0001 0 0 1 560.844 184.739)"/><path d="M3.70587-2.1455 6.26932-2.1455C6.39935-2.1455 6.56653-2.1455 6.56653-2.31269 6.56653-2.48915 6.40864-2.48915 6.26932-2.48915L3.70587-2.48915 3.70587-5.0526C3.70587-5.18264 3.70587-5.34982 3.53868-5.34982 3.36221-5.34982 3.36221-5.19192 3.36221-5.0526L3.36221-2.48915 0.798755-2.48915C0.668727-2.48915 0.501546-2.48915 0.501546-2.32197 0.501546-2.1455 0.65944-2.1455 0.798755-2.1455L3.36221-2.1455 3.36221 0.417955C3.36221 0.547985 3.36221 0.715167 3.52939 0.715167 3.70587 0.715167 3.70587 0.557272 3.70587 0.417955L3.70587-2.1455Z" transform="matrix(1.0001 0 0 1 475.533 209.687)"/><path d="M1.66253-2.15479C1.9133-2.15479 2.54488-2.17337 2.99069-2.34055 3.69658-2.60989 3.76159-3.14859 3.76159-3.31578 3.76159-3.72444 3.40866-4.09596 2.79566-4.09596 1.82042-4.09596 0.417955-3.21361 0.417955-1.56037 0.417955-0.585137 0.975222 0.092879 1.82042 0.092879 3.08358 0.092879 3.88233-0.891639 3.88233-1.01238 3.88233-1.0681 3.82661-1.11454 3.78946-1.11454 3.76159-1.11454 3.75231-1.10527 3.66871-1.02167 3.07429-0.232197 2.19194-0.092879 1.839-0.092879 1.30959-0.092879 1.03096-0.510834 1.03096-1.19814 1.03096-1.32817 1.03096-1.56037 1.17027-2.15479L1.66253-2.15479ZM1.21671-2.34055C1.61609-3.77088 2.49844-3.9102 2.79566-3.9102 3.20431-3.9102 3.48296-3.66871 3.48296-3.31578 3.48296-2.34055 1.99689-2.34055 1.6068-2.34055L1.21671-2.34055Z" transform="matrix(1.0001 0 0 1 484.644 209.687)"/><path d="M1.19504-0.854489C1.26315-1.12074 1.33126-1.387 1.39319-1.65944 1.39938-1.67182 1.44272-1.85139 1.44891-1.88234 1.46749-1.93808 1.62228-2.19194 1.78327-2.34674 1.98142-2.52631 2.19194-2.55726 2.30339-2.55726 2.37151-2.55726 2.48295-2.55107 2.56965-2.47676 2.30339-2.42104 2.26624-2.19194 2.26624-2.13621 2.26624-2 2.37151-1.90711 2.50773-1.90711 2.67491-1.90711 2.86067-2.04333 2.86067-2.29101 2.86067-2.51392 2.66872-2.73063 2.31578-2.73063 1.89472-2.73063 1.6099-2.452 1.47987-2.28482 1.35602-2.73063 0.934982-2.73063 0.873065-2.73063 0.650152-2.73063 0.495354-2.58823 0.396283-2.39627 0.25387-2.11763 0.185757-1.80185 0.185757-1.78327 0.185757-1.72755 0.229101-1.70278 0.278637-1.70278 0.359131-1.70278 0.365324-1.72755 0.408667-1.88853 0.48297-2.19194 0.594425-2.55726 0.854489-2.55726 1.01547-2.55726 1.05263-2.40246 1.05263-2.26624 1.05263-2.15479 1.02167-2.03714 0.972137-1.83281 0.959749-1.78327 0.866872-1.41796 0.842105-1.33126L0.613-0.402474C0.588233-0.309596 0.551081-0.154798 0.551081-0.13003 0.551081 0.0123839 0.668727 0.0619192 0.749223 0.0619192 0.965938 0.0619192 1.00928-0.111454 1.05882-0.32198L1.19504-0.854489Z" transform="matrix(1.0001 0 0 1 488.844 205.853)"/><path d="M2.79875-3.74612C2.85448-3.96902 2.86067-3.98141 3.11454-3.98141L3.58511-3.98141C4.22909-3.98141 4.30339-3.77707 4.30339-3.46748 4.30339-3.31268 4.26624-3.04643 4.26005-3.01546 4.24766-2.94735 4.24147-2.89162 4.24147-2.87925 4.24147-2.79875 4.29719-2.78017 4.33435-2.78017 4.40246-2.78017 4.42723-2.81732 4.44579-2.93497L4.61298-4.09905C4.61298-4.18574 4.53867-4.18574 4.42723-4.18574L0.780179-4.18574C0.625383-4.18574 0.613-4.18574 0.569657-4.05571L0.191949-2.9845C0.179565-2.95355 0.16099-2.90401 0.16099-2.86686 0.16099-2.81732 0.204333-2.78017 0.25387-2.78017 0.32198-2.78017 0.334363-2.81113 0.371516-2.91639 0.724455-3.9071 0.904023-3.98141 1.84519-3.98141L2.08668-3.98141C2.27244-3.98141 2.27863-3.97521 2.27863-3.92567 2.27863-3.9071 2.25386-3.78326 2.24767-3.75849L1.43033-0.507737C1.3746-0.272444 1.35602-0.204333 0.712071-0.204333 0.513929-0.204333 0.45201-0.204333 0.45201-0.0866872 0.45201-0.0804946 0.45201 0 0.557272 0 0.724455 0 1.1517-0.0185757 1.31888-0.0185757L1.84519-0.0185757C2.01857-0.0185757 2.452 0 2.62538 0 2.67491 0 2.76779 0 2.76779-0.117646 2.76779-0.204333 2.69968-0.204333 2.5325-0.204333 2.38388-0.204333 2.33435-0.204333 2.17337-0.216717 1.97523-0.235293 1.95046-0.260061 1.95046-0.340556 1.95046-0.365324 1.95665-0.390091 1.97523-0.45201L2.79875-3.74612Z" transform="matrix(1.0001 0 0 1 491.985 205.853)"/><path d="M0.965938 20.2198C1.26315 20.2011 1.42105 19.9968 1.42105 19.7646 1.42105 19.4581 1.18885 19.3095 0.975222 19.3095 0.752319 19.3095 0.520121 19.4489 0.520121 19.7739 0.520121 20.2476 0.984516 20.6376 1.55108 20.6376 2.96283 20.6376 3.49224 18.4643 4.15168 15.7708 4.86686 12.8358 5.47056 9.87295 5.9721 6.8916 6.31576 4.91329 6.65941 3.05571 6.9752 1.85757 7.08665 1.40247 7.40245 0.204333 7.76467 0.204333 8.05257 0.204333 8.28478 0.380803 8.32192 0.417955 8.01544 0.43653 7.85757 0.640864 7.85757 0.873065 7.85757 1.17957 8.08978 1.32817 8.30335 1.32817 8.52624 1.32817 8.75845 1.18885 8.75845 0.863773 8.75845 0.362228 8.25689 0 7.74609 0 7.04021 0 6.52009 1.01238 6.00926 2.90711 5.9814 3.00927 4.71824 7.67179 3.69658 13.746 3.45509 15.1671 3.18575 16.7182 2.87925 18.0092 2.71207 18.6872 2.28482 20.4333 1.5325 20.4333 1.19814 20.4333 0.975222 20.2198 0.965938 20.2198Z" transform="matrix(1.0001 0 0 1 498.676 197.045)"/><path d="M3.34363-1.69658C2.97831-2.13621 2.92878-2.18575 2.71207-2.34674 2.42723-2.56346 2.04953-2.73063 1.64086-2.73063 0.885448-2.73063 0.365324-2.0681 0.365324-1.33126 0.365324-0.606809 0.879256 0.0619192 1.61609 0.0619192 2.12383 0.0619192 2.71825-0.204333 3.23219-0.972137 3.59751-0.532505 3.64705-0.48297 3.86376-0.32198 4.14859-0.105263 4.5263 0.0619192 4.93496 0.0619192 5.69037 0.0619192 6.2105-0.600616 6.2105-1.33745 6.2105-2.06191 5.69657-2.73063 4.95972-2.73063 4.45199-2.73063 3.85756-2.46438 3.34363-1.69658ZM3.52939-1.46749C3.76469-1.85757 4.27242-2.49535 5.00307-2.49535 5.6656-2.49535 6.03712-1.89472 6.03712-1.33745 6.03712-0.736839 5.57892-0.272444 5.03403-0.272444 4.48914-0.272444 4.12381-0.724455 3.52939-1.46749ZM3.04643-1.20123C2.81113-0.811138 2.30339-0.173374 1.57275-0.173374 0.910215-0.173374 0.538698-0.77399 0.538698-1.33126 0.538698-1.93188 0.996904-2.39627 1.54179-2.39627 2.08668-2.39627 2.452-1.94426 3.04643-1.20123Z" transform="matrix(1.0001 0 0 1 507.964 199.496)"/><path d="M4.15478-4.19193C4.16098-4.2167 4.17336-4.25386 4.17336-4.28481 4.17336-4.32816 4.1362-4.35911 4.09286-4.35911 4.04951-4.35911 4.03713-4.34673 3.96902-4.27242 3.90091-4.19193 3.73993-3.99379 3.67181-3.91949 3.43032-4.27242 3.04024-4.35911 2.72444-4.35911 1.86376-4.35911 1.12693-3.63466 1.12693-2.92878 1.12693-2.56965 1.31888-2.35912 1.34983-2.31578 1.55417-2.09907 1.73374-2.04953 2.17956-1.94426 2.39627-1.88853 2.40865-1.88853 2.58823-1.84519 2.7678-1.80185 3.16407-1.70278 3.16407-1.18885 3.16407-0.650152 2.63157-0.074303 1.98142-0.074303 1.57894-0.074303 0.842105-0.198142 0.842105-0.965938 0.842105-0.984516 0.842105-1.11454 0.879256-1.26315L0.885448-1.32507C0.885448-1.39938 0.817329-1.40557 0.792562-1.40557 0.712071-1.40557 0.705879-1.38079 0.674919-1.23839L0.421051-0.229101C0.396283-0.136222 0.352939 0.0309596 0.352939 0.0495354 0.352939 0.0990705 0.390091 0.13003 0.433435 0.13003 0.476779 0.13003 0.48297 0.123839 0.551081 0.0433435L0.848297-0.303404C0.990705-0.117646 1.34364 0.13003 1.96903 0.13003 2.86686 0.13003 3.6037-0.681111 3.6037-1.42414 3.6037-1.70897 3.51081-1.93188 3.34363-2.10526 3.15788-2.30958 2.95355-2.35912 2.66253-2.43342 2.48295-2.47676 2.24147-2.5325 2.09907-2.56965 1.9133-2.613 1.56656-2.73683 1.56656-3.17026 1.56656-3.65324 2.08668-4.17336 2.71825-4.17336 3.27553-4.17336 3.65943-3.88233 3.65943-3.21361 3.65943-3.065 3.63466-2.93497 3.63466-2.9102 3.63466-2.8359 3.69039-2.82351 3.73373-2.82351 3.80803-2.82351 3.81423-2.84828 3.83899-2.94735L4.15478-4.19193Z" transform="matrix(1.0001 0 0 1 503.836 218.073)"/><path d="M1.43033-0.691947C1.43962-0.701235 1.46749-0.733742 1.48142-0.733742 1.49999-0.733742 1.77399-0.431886 1.81579-0.385447 1.90867-0.283281 2.00154-0.181114 2.09907-0.0835913 2.12229-0.0650152 2.13621-0.0464394 2.16407-0.0464394 2.20122-0.0464394 2.23373-0.078947 2.23373-0.116099 2.23373-0.143962 2.05262-0.464394 1.99225-0.575848 1.86687-0.78947 1.86687-0.798755 1.78327-0.956654L2.56346-1.32352C2.62847-1.35602 2.65169-1.37925 2.65169-1.41177 2.65169-1.43498 2.63776-1.48142 2.57739-1.48142 2.54023-1.48142 2.07119-1.38854 1.99689-1.36997L1.66717-1.30959 1.56037-2.16407C1.55108-2.22909 1.54179-2.28482 1.48142-2.28482 1.4164-2.28482 1.40711-2.21051 1.40247-2.16407L1.29567-1.30959 0.385447-1.48142C0.325076-1.48142 0.311143-1.43498 0.311143-1.41177 0.311143-1.37925 0.339008-1.35139 0.390091-1.32817L1.17957-0.956654C1.09597-0.798755 1.09597-0.78947 0.975222-0.575848 0.891639-0.431886 0.729099-0.143962 0.729099-0.116099 0.729099-0.078947 0.761607-0.0464394 0.798755-0.0464394 0.817329-0.0464394 0.835913-0.0510834 0.882348-0.102167L1.43033-0.691947Z" transform="matrix(1.0001 0 0 1 507.823 218.846)"/><path d="M2.67491-5.95353C2.67491-6.16715 2.67491-6.17645 2.48915-6.17645 2.26624-5.92567 1.80185-5.58202 0.845197-5.58202L0.845197-5.31267C1.05882-5.31267 1.52321-5.31267 2.03405-5.55416L2.03405-0.715167C2.03405-0.380803 2.00619-0.269349 1.18885-0.269349L0.900924-0.269349 0.900924 0C1.1517-0.0185757 2.05262-0.0185757 2.35912-0.0185757 2.66562-0.0185757 3.55726-0.0185757 3.80803 0L3.80803-0.269349 3.52011-0.269349C2.70277-0.269349 2.67491-0.380803 2.67491-0.715167L2.67491-5.95353Z" transform="matrix(1.0001 0 0 1 521.175 203.404)"/><path d="M171.284 123.813 183.365 123.813 183.365 124.184 171.284 124.184Z" transform="matrix(1.0001 0 0 1 346.108 83.3672)"/><path d="M4.64394-3.75231C4.63466-3.78017 4.5975-3.85447 4.5975-3.88233 4.5975-3.89162 4.60679-3.90091 4.76468-4.02166L5.6656-4.72753C6.91019-5.69347 7.31885-6.01855 7.95973-6.07428 8.02476-6.08357 8.1176-6.08357 8.1176-6.24146 8.1176-6.29718 8.08978-6.34362 8.01544-6.34362 7.91327-6.34362 7.80179-6.32505 7.69965-6.32505L7.34671-6.32505C7.05879-6.32505 6.75229-6.34362 6.47365-6.34362 6.40864-6.34362 6.29718-6.34362 6.29718-6.17645 6.29718-6.08357 6.3622-6.07428 6.41792-6.07428 6.52009-6.06498 6.64083-6.02784 6.64083-5.8978 6.64083-5.71205 6.3622-5.48914 6.2879-5.43341L2.64705-2.60061 3.41793-5.6656C3.50153-5.9814 3.52011-6.07428 4.17955-6.07428 4.35601-6.07428 4.43961-6.07428 4.43961-6.25075 4.43961-6.34362 4.34673-6.34362 4.30029-6.34362 4.13311-6.34362 3.93806-6.32505 3.76159-6.32505L2.66562-6.32505C2.49844-6.32505 2.29411-6.34362 2.12692-6.34362 2.05262-6.34362 1.95046-6.34362 1.95046-6.16715 1.95046-6.07428 2.03405-6.07428 2.17337-6.07428 2.73992-6.07428 2.73992-5.99997 2.73992-5.8978 2.73992-5.87922 2.73992-5.8235 2.70277-5.68418L1.44891-0.687303C1.36532-0.362228 1.34674-0.269349 0.696591-0.269349 0.520121-0.269349 0.427242-0.269349 0.427242-0.102167 0.427242 0 0.510834 0 0.56656 0 0.74303 0 0.92879-0.0185757 1.10527-0.0185757L2.19194-0.0185757C2.36841-0.0185757 2.56346 0 2.73992 0 2.81423 0 2.91639 0 2.91639-0.17647 2.91639-0.269349 2.83281-0.269349 2.69349-0.269349 2.12692-0.269349 2.12692-0.343651 2.12692-0.43653 2.12692-0.501546 2.18265-0.733742 2.21981-0.882348L2.58203-2.32197 3.99379-3.42723C4.26314-2.83281 4.7554-1.64395 5.1362-0.733742 5.16406-0.678015 5.18264-0.622288 5.18264-0.557272 5.18264-0.278637 4.81112-0.269349 4.72753-0.269349 4.64394-0.269349 4.55106-0.269349 4.55106-0.092879 4.55106 0 4.65323 0 4.68109 0 5.00617 0 5.34982-0.0185757 5.6749-0.0185757L6.12072-0.0185757C6.26003-0.0185757 6.41792 0 6.55725 0 6.61297 0 6.71514 0 6.71514-0.17647 6.71514-0.269349 6.63155-0.269349 6.53867-0.269349 6.19502-0.278637 6.07428-0.352939 5.93496-0.687303L4.64394-3.75231Z" transform="matrix(1.0001 0 0 1 517.408 216.059)"/><path d="M1.74612-1.26315C1.84519-1.35602 2.10526-1.56037 2.20432-1.64705 2.58823-2 2.95355-2.34055 2.95355-2.90401 2.95355-3.64086 2.33435-4.11762 1.56037-4.11762 0.817329-4.11762 0.328172-3.55416 0.328172-3.00308 0.328172-2.69968 0.569657-2.65633 0.656344-2.65633 0.786371-2.65633 0.978326-2.74921 0.978326-2.9845 0.978326-3.30649 0.668727-3.30649 0.594425-3.30649 0.77399-3.75849 1.18885-3.9133 1.49226-3.9133 2.0681-3.9133 2.36532-3.42413 2.36532-2.90401 2.36532-2.26005 1.9133-1.78946 1.18265-1.04024L0.402474-0.235293C0.328172-0.167182 0.328172-0.154798 0.328172 0L2.77398 0 2.95355-1.10835 2.7616-1.10835C2.74302-0.984516 2.69349-0.674919 2.61919-0.557272 2.58203-0.507737 2.11145-0.507737 2.01238-0.507737L0.910215-0.507737 1.74612-1.26315Z" transform="matrix(1.0001 0 0 1 525.784 213.375)"/><path d="M6.93805-6.45508C6.93805-6.53867 6.87303-6.53867 6.85446-6.53867 6.83588-6.53867 6.79873-6.53867 6.72443-6.44579L6.08357-5.6656C5.75848-6.22288 5.24766-6.53867 4.55106-6.53867 2.54488-6.53867 0.464394-4.50462 0.464394-2.32197 0.464394-0.770895 1.55108 0.195046 2.90711 0.195046 3.65013 0.195046 4.30029-0.120742 4.83898-0.575848 5.64704-1.25387 5.88852-2.15479 5.88852-2.22909 5.88852-2.31269 5.81422-2.31269 5.78635-2.31269 5.70276-2.31269 5.69347-2.25696 5.6749-2.21981 5.24766-0.770895 3.99379-0.074303 3.065-0.074303 2.08049-0.074303 1.226-0.705879 1.226-2.02476 1.226-2.32197 1.31888-3.93806 2.36841-5.15478 2.87925-5.7492 3.75231-6.26932 4.63466-6.26932 5.65632-6.26932 6.11142-5.42412 6.11142-4.47676 6.11142-4.23528 6.08357-4.03094 6.08357-3.99379 6.08357-3.9102 6.17645-3.9102 6.2043-3.9102 6.30647-3.9102 6.31576-3.91949 6.3529-4.08667L6.93805-6.45508Z" transform="matrix(1.0001 0 0 1 530.419 209.687)"/><path d="M3.02785-1.97523C3.02785-2.63776 2.95974-3.04024 2.7554-3.43651 2.48295-3.98141 1.98142-4.11762 1.64086-4.11762 0.86068-4.11762 0.575848-3.53558 0.489162-3.36221 0.266253-2.9102 0.25387-2.2972 0.25387-1.97523 0.25387-1.56656 0.272444-0.941174 0.569657-0.445818 0.854489 0.0123839 1.31269 0.13003 1.64086 0.13003 1.93808 0.13003 2.47057 0.0371516 2.78017-0.575848 3.00927-1.02167 3.02785-1.57275 3.02785-1.97523ZM1.64086-0.0433435C1.43033-0.0433435 1.00309-0.142414 0.873065-0.792562 0.804946-1.14551 0.804946-1.72755 0.804946-2.04953 0.804946-2.47676 0.804946-2.9102 0.873065-3.25076 1.00309-3.88233 1.48607-3.94425 1.64086-3.94425 1.85139-3.94425 2.27863-3.83899 2.40246-3.27553 2.47676-2.93497 2.47676-2.47057 2.47676-2.04953 2.47676-1.6842 2.47676-1.12693 2.40246-0.780179 2.27244-0.13003 1.84519-0.0433435 1.64086-0.0433435Z" transform="matrix(1.0001 0 0 1 536.901 211.081)"/><path d="M3.01856 2.25696C3.01856 2.22909 3.01856 2.21051 2.86067 2.05262 1.93188 1.11454 1.41177-0.417955 1.41177-2.31269 1.41177-4.11453 1.84829-5.6656 2.92569-6.76158 3.01856-6.84517 3.01856-6.86375 3.01856-6.8916 3.01856-6.94733 2.97212-6.96591 2.93497-6.96591 2.81423-6.96591 2.05262-6.29718 1.59751-5.38697 1.12383-4.4489 0.910215-3.45509 0.910215-2.31269 0.910215-1.48607 1.04024-0.380803 1.52321 0.613 2.07119 1.72755 2.83281 2.33126 2.93497 2.33126 2.97212 2.33126 3.01856 2.31269 3.01856 2.25696Z" transform="matrix(1.0001 0 0 1 540.578 209.687)"/><path d="M4.64394-3.75231C4.63466-3.78017 4.5975-3.85447 4.5975-3.88233 4.5975-3.89162 4.60679-3.90091 4.76468-4.02166L5.6656-4.72753C6.91019-5.69347 7.31885-6.01855 7.95973-6.07428 8.02476-6.08357 8.1176-6.08357 8.1176-6.24146 8.1176-6.29718 8.08978-6.34362 8.01544-6.34362 7.91327-6.34362 7.80179-6.32505 7.69965-6.32505L7.34671-6.32505C7.05879-6.32505 6.75229-6.34362 6.47365-6.34362 6.40864-6.34362 6.29718-6.34362 6.29718-6.17645 6.29718-6.08357 6.3622-6.07428 6.41792-6.07428 6.52009-6.06498 6.64083-6.02784 6.64083-5.8978 6.64083-5.71205 6.3622-5.48914 6.2879-5.43341L2.64705-2.60061 3.41793-5.6656C3.50153-5.9814 3.52011-6.07428 4.17955-6.07428 4.35601-6.07428 4.43961-6.07428 4.43961-6.25075 4.43961-6.34362 4.34673-6.34362 4.30029-6.34362 4.13311-6.34362 3.93806-6.32505 3.76159-6.32505L2.66562-6.32505C2.49844-6.32505 2.29411-6.34362 2.12692-6.34362 2.05262-6.34362 1.95046-6.34362 1.95046-6.16715 1.95046-6.07428 2.03405-6.07428 2.17337-6.07428 2.73992-6.07428 2.73992-5.99997 2.73992-5.8978 2.73992-5.87922 2.73992-5.8235 2.70277-5.68418L1.44891-0.687303C1.36532-0.362228 1.34674-0.269349 0.696591-0.269349 0.520121-0.269349 0.427242-0.269349 0.427242-0.102167 0.427242 0 0.510834 0 0.56656 0 0.74303 0 0.92879-0.0185757 1.10527-0.0185757L2.19194-0.0185757C2.36841-0.0185757 2.56346 0 2.73992 0 2.81423 0 2.91639 0 2.91639-0.17647 2.91639-0.269349 2.83281-0.269349 2.69349-0.269349 2.12692-0.269349 2.12692-0.343651 2.12692-0.43653 2.12692-0.501546 2.18265-0.733742 2.21981-0.882348L2.58203-2.32197 3.99379-3.42723C4.26314-2.83281 4.7554-1.64395 5.1362-0.733742 5.16406-0.678015 5.18264-0.622288 5.18264-0.557272 5.18264-0.278637 4.81112-0.269349 4.72753-0.269349 4.64394-0.269349 4.55106-0.269349 4.55106-0.092879 4.55106 0 4.65323 0 4.68109 0 5.00617 0 5.34982-0.0185757 5.6749-0.0185757L6.12072-0.0185757C6.26003-0.0185757 6.41792 0 6.55725 0 6.61297 0 6.71514 0 6.71514-0.17647 6.71514-0.269349 6.63155-0.269349 6.53867-0.269349 6.19502-0.278637 6.07428-0.352939 5.93496-0.687303L4.64394-3.75231Z" transform="matrix(1.0001 0 0 1 544.102 209.687)"/><path d="M2.61919-2.31269C2.61919-3.01856 2.52631-4.17026 2.00619-5.24766 1.4582-6.3622 0.696591-6.96591 0.594425-6.96591 0.557272-6.96591 0.510834-6.94733 0.510834-6.8916 0.510834-6.86375 0.510834-6.84517 0.668727-6.68727 1.59751-5.7492 2.11763-4.2167 2.11763-2.32197 2.11763-0.520121 1.68111 1.03096 0.603712 2.12692 0.510834 2.21051 0.510834 2.22909 0.510834 2.25696 0.510834 2.31269 0.557272 2.33126 0.594425 2.33126 0.715167 2.33126 1.47677 1.66253 1.93188 0.752319 2.40557-0.195046 2.61919-1.19814 2.61919-2.31269Z" transform="matrix(1.0001 0 0 1 552.478 209.687)"/><path d="M4.6718-6.21359C4.68109-6.25075 4.69967-6.30647 4.69967-6.3529 4.69967-6.44579 4.60679-6.44579 4.58821-6.44579 4.57892-6.44579 4.12381-6.40864 4.07738-6.39935 3.91949-6.39007 3.78017-6.37149 3.61299-6.3622 3.38079-6.34362 3.31578-6.33434 3.31578-6.16715 3.31578-6.07428 3.39008-6.07428 3.52011-6.07428 3.97521-6.07428 3.9845-5.99068 3.9845-5.8978 3.9845-5.84208 3.96593-5.76778 3.95663-5.7399L3.39008-3.48296C3.28791-3.72444 3.03713-4.09596 2.55417-4.09596 1.50464-4.09596 0.371516-2.73992 0.371516-1.36532 0.371516-0.445818 0.910215 0.092879 1.54179 0.092879 2.05262 0.092879 2.48915-0.3065 2.74921-0.613 2.84209-0.0650152 3.27862 0.092879 3.55726 0.092879 3.8359 0.092879 4.0588-0.074303 4.22599-0.408667 4.37459-0.724455 4.50462-1.29102 4.50462-1.32817 4.50462-1.3746 4.46748-1.41177 4.41174-1.41177 4.32816-1.41177 4.31886-1.36532 4.28171-1.226 4.14239-0.678015 3.96593-0.092879 3.58511-0.092879 3.31578-0.092879 3.29719-0.334363 3.29719-0.520121 3.29719-0.557272 3.29719-0.752319 3.36221-1.01238L4.6718-6.21359ZM2.79566-1.10527C2.74921-0.947366 2.74921-0.92879 2.61919-0.752319 2.41485-0.492258 2.00619-0.092879 1.56965-0.092879 1.18885-0.092879 0.975222-0.43653 0.975222-0.984516 0.975222-1.49535 1.26315-2.53559 1.43962-2.92569 1.75541-3.57583 2.19194-3.9102 2.55417-3.9102 3.16717-3.9102 3.28791-3.14859 3.28791-3.07429 3.28791-3.065 3.26005-2.94426 3.25076-2.92569L2.79566-1.10527Z" transform="matrix(1.0001 0 0 1 556.002 209.687)"/><path d="M4.64394-3.75231C4.63466-3.78017 4.5975-3.85447 4.5975-3.88233 4.5975-3.89162 4.60679-3.90091 4.76468-4.02166L5.6656-4.72753C6.91019-5.69347 7.31885-6.01855 7.95973-6.07428 8.02476-6.08357 8.1176-6.08357 8.1176-6.24146 8.1176-6.29718 8.08978-6.34362 8.01544-6.34362 7.91327-6.34362 7.80179-6.32505 7.69965-6.32505L7.34671-6.32505C7.05879-6.32505 6.75229-6.34362 6.47365-6.34362 6.40864-6.34362 6.29718-6.34362 6.29718-6.17645 6.29718-6.08357 6.3622-6.07428 6.41792-6.07428 6.52009-6.06498 6.64083-6.02784 6.64083-5.8978 6.64083-5.71205 6.3622-5.48914 6.2879-5.43341L2.64705-2.60061 3.41793-5.6656C3.50153-5.9814 3.52011-6.07428 4.17955-6.07428 4.35601-6.07428 4.43961-6.07428 4.43961-6.25075 4.43961-6.34362 4.34673-6.34362 4.30029-6.34362 4.13311-6.34362 3.93806-6.32505 3.76159-6.32505L2.66562-6.32505C2.49844-6.32505 2.29411-6.34362 2.12692-6.34362 2.05262-6.34362 1.95046-6.34362 1.95046-6.16715 1.95046-6.07428 2.03405-6.07428 2.17337-6.07428 2.73992-6.07428 2.73992-5.99997 2.73992-5.8978 2.73992-5.87922 2.73992-5.8235 2.70277-5.68418L1.44891-0.687303C1.36532-0.362228 1.34674-0.269349 0.696591-0.269349 0.520121-0.269349 0.427242-0.269349 0.427242-0.102167 0.427242 0 0.510834 0 0.56656 0 0.74303 0 0.92879-0.0185757 1.10527-0.0185757L2.19194-0.0185757C2.36841-0.0185757 2.56346 0 2.73992 0 2.81423 0 2.91639 0 2.91639-0.17647 2.91639-0.269349 2.83281-0.269349 2.69349-0.269349 2.12692-0.269349 2.12692-0.343651 2.12692-0.43653 2.12692-0.501546 2.18265-0.733742 2.21981-0.882348L2.58203-2.32197 3.99379-3.42723C4.26314-2.83281 4.7554-1.64395 5.1362-0.733742 5.16406-0.678015 5.18264-0.622288 5.18264-0.557272 5.18264-0.278637 4.81112-0.269349 4.72753-0.269349 4.64394-0.269349 4.55106-0.269349 4.55106-0.092879 4.55106 0 4.65323 0 4.68109 0 5.00617 0 5.34982-0.0185757 5.6749-0.0185757L6.12072-0.0185757C6.26003-0.0185757 6.41792 0 6.55725 0 6.61297 0 6.71514 0 6.71514-0.17647 6.71514-0.269349 6.63155-0.269349 6.53867-0.269349 6.19502-0.278637 6.07428-0.352939 5.93496-0.687303L4.64394-3.75231Z" transform="matrix(1.0001 0 0 1 560.71 209.687)"/><path d="M2.06191 21.3993 0.13003 21.3993 0.13003 21.9101 2.57275 21.9101 2.57275-0.371516 0.13003-0.371516 0.13003 0.139319 2.06191 0.139319 2.06191 21.3993Z" transform="matrix(1.0001 0 0 1 569.087 196.591)"/></g></g></g></g></svg>